<svg width="118" height="32" viewBox="0 0 118 32" fill="none" xmlns="http://www.w3.org/2000/svg">
<path d="M6 8.42105C6 3.77023 9.77023 0 14.4211 0H29.5789C34.2298 0 38 3.77023 38 8.42105V23.5789C38 28.2298 34.2298 32 29.5789 32H14.4211C9.77023 32 6 28.2298 6 23.5789V8.42105Z" fill="#3C50E0"/>
<path d="M31.5947 11.258L23.3613 8.0434C23.2146 7.98553 23.052 7.98553 22.9053 8.0434L18.0793 9.92714H23.1333C23.3013 9.92714 23.4624 9.99488 23.5811 10.1154C23.6999 10.236 23.7666 10.3995 23.7666 10.5701C23.7666 10.7406 23.6999 10.9041 23.5811 11.0247C23.4624 11.1452 23.3013 11.213 23.1333 11.213H14.8999C14.7324 11.2145 14.5722 11.2827 14.4538 11.403C14.3353 11.5232 14.2681 11.6858 14.2666 11.8559V21.267L13.1468 22.6311C13.065 22.7308 13.0148 22.8533 13.0028 22.9825C12.9908 23.1117 13.0176 23.2416 13.0797 23.355L14.3464 25.6695C14.4013 25.7697 14.4815 25.8531 14.5788 25.9112C14.6762 25.9694 14.787 26 14.8999 26C15.0128 26 15.1237 25.9694 15.221 25.9112C15.3184 25.8531 15.3986 25.7697 15.4535 25.6695L16.7201 23.355C16.7822 23.2416 16.8091 23.1117 16.7971 22.9825C16.7851 22.8533 16.7349 22.7308 16.6531 22.6311L15.5333 21.267V12.7901L22.9053 15.6684C23.0515 15.7284 23.215 15.7284 23.3613 15.6684L31.5947 12.4538C31.7139 12.4075 31.8165 12.3256 31.8889 12.2188C31.9613 12.112 32 11.9855 32 11.8559C32 11.7263 31.9613 11.5997 31.8889 11.493C31.8165 11.3862 31.7139 11.3043 31.5947 11.258Z" fill="white"/>
<path d="M23.1333 16.9993C22.8996 16.9983 22.6679 16.9548 22.4493 16.8707L17.4333 14.9098V16.9478C17.4331 17.0775 17.4719 17.2041 17.5442 17.3108C17.6166 17.4176 17.7193 17.4996 17.8386 17.5457L22.9053 19.5259C23.0515 19.5859 23.215 19.5859 23.3613 19.5259L28.428 17.5457C28.5473 17.4996 28.65 17.4176 28.7223 17.3108C28.7947 17.2041 28.8334 17.0775 28.8333 16.9478V14.9098L23.8173 16.8707C23.5987 16.9548 23.367 16.9983 23.1333 16.9993Z" fill="white"/>
<g filter="url(#filter0_d_3663_5121)">
<path d="M1.8158 8.15809C1.8158 7.22792 2.56984 6.47388 3.50001 6.47388C4.43017 6.47388 5.18422 7.22792 5.18422 8.15809V23.316C5.18422 24.2462 4.43017 25.0002 3.50001 25.0002C2.56984 25.0002 1.8158 24.2462 1.8158 23.316V8.15809Z" fill="#3C50E0"/>
</g>
<mask id="path-5-outside-1_3663_5121" maskUnits="userSpaceOnUse" x="38" y="0" width="70" height="32" fill="black">
<rect fill="white" x="38" width="70" height="32"/>
<path d="M58.938 6.162H45.296V13.648H55.518V17.41H45.296V25.238H58.938V29H40.774V2.4H58.938V6.162ZM66.8218 21.704C66.9738 22.4133 67.2651 23.0593 67.6958 23.642C68.1518 24.1993 68.7471 24.6427 69.4818 24.972C70.2418 25.3013 71.1411 25.466 72.1798 25.466C73.7758 25.466 74.9665 25.0987 75.7518 24.364C76.5371 23.604 76.9298 22.7173 76.9298 21.704C76.9298 20.868 76.6765 20.1713 76.1698 19.614C75.6885 19.0567 75.0045 18.588 74.1178 18.208C73.2311 17.8027 72.2178 17.4227 71.0778 17.068C70.0391 16.764 69.0385 16.4473 68.0758 16.118C67.1131 15.7633 66.2391 15.3327 65.4538 14.826C64.6938 14.294 64.0858 13.6227 63.6298 12.812C63.1738 11.976 62.9585 10.9373 62.9838 9.696C62.9838 8.07467 63.3638 6.70667 64.1238 5.592C64.8838 4.452 65.9478 3.59067 67.3158 3.008C68.6838 2.42533 70.2545 2.134 72.0278 2.134C73.5225 2.134 74.8651 2.34933 76.0558 2.78C77.2718 3.18533 78.2978 3.79333 79.1338 4.604C79.9698 5.38933 80.5905 6.36467 80.9958 7.53L76.8538 8.898C76.7018 8.34067 76.3978 7.84667 75.9418 7.416C75.4858 6.96 74.9158 6.60533 74.2318 6.352C73.5731 6.09867 72.8511 5.95933 72.0658 5.934C71.2045 5.90866 70.4318 6.03533 69.7478 6.314C69.0891 6.59267 68.5571 6.998 68.1518 7.53C67.7465 8.03667 67.5438 8.632 67.5438 9.316C67.5438 10.1013 67.7718 10.722 68.2278 11.178C68.6838 11.6087 69.2791 11.976 70.0138 12.28C70.7738 12.5587 71.6098 12.85 72.5218 13.154C73.5858 13.458 74.6371 13.8127 75.6758 14.218C76.7398 14.598 77.7025 15.092 78.5638 15.7C79.4505 16.2827 80.1598 17.03 80.6918 17.942C81.2238 18.854 81.4898 19.994 81.4898 21.362C81.4898 22.8313 81.1478 24.1613 80.4638 25.352C79.8051 26.5427 78.7918 27.4927 77.4238 28.202C76.0558 28.9113 74.3585 29.266 72.3318 29.266C70.6851 29.266 69.1778 29.0253 67.8098 28.544C66.4671 28.0373 65.3398 27.328 64.4278 26.416C63.5411 25.4787 62.9585 24.3767 62.6798 23.11L66.8218 21.704ZM96.3481 14.712C97.4628 14.712 98.3621 14.5473 99.0461 14.218C99.7554 13.8633 100.287 13.3693 100.642 12.736C100.997 12.0773 101.174 11.3047 101.174 10.418C101.174 9.07533 100.781 8.03666 99.9961 7.302C99.2108 6.542 97.9948 6.162 96.3481 6.162H90.4581V14.712H96.3481ZM105.734 10.418C105.734 11.3807 105.569 12.3307 105.24 13.268C104.911 14.2053 104.379 15.0793 103.644 15.89C102.909 16.6753 101.934 17.3087 100.718 17.79C99.5274 18.246 98.0708 18.474 96.3481 18.474H90.4581V29H85.9361V2.4H96.3481C98.4761 2.4 100.224 2.76733 101.592 3.502C102.985 4.21133 104.024 5.18667 104.708 6.428C105.392 7.644 105.734 8.974 105.734 10.418Z"/>
</mask>
<path d="M58.938 6.162H45.296V13.648H55.518V17.41H45.296V25.238H58.938V29H40.774V2.4H58.938V6.162ZM66.8218 21.704C66.9738 22.4133 67.2651 23.0593 67.6958 23.642C68.1518 24.1993 68.7471 24.6427 69.4818 24.972C70.2418 25.3013 71.1411 25.466 72.1798 25.466C73.7758 25.466 74.9665 25.0987 75.7518 24.364C76.5371 23.604 76.9298 22.7173 76.9298 21.704C76.9298 20.868 76.6765 20.1713 76.1698 19.614C75.6885 19.0567 75.0045 18.588 74.1178 18.208C73.2311 17.8027 72.2178 17.4227 71.0778 17.068C70.0391 16.764 69.0385 16.4473 68.0758 16.118C67.1131 15.7633 66.2391 15.3327 65.4538 14.826C64.6938 14.294 64.0858 13.6227 63.6298 12.812C63.1738 11.976 62.9585 10.9373 62.9838 9.696C62.9838 8.07467 63.3638 6.70667 64.1238 5.592C64.8838 4.452 65.9478 3.59067 67.3158 3.008C68.6838 2.42533 70.2545 2.134 72.0278 2.134C73.5225 2.134 74.8651 2.34933 76.0558 2.78C77.2718 3.18533 78.2978 3.79333 79.1338 4.604C79.9698 5.38933 80.5905 6.36467 80.9958 7.53L76.8538 8.898C76.7018 8.34067 76.3978 7.84667 75.9418 7.416C75.4858 6.96 74.9158 6.60533 74.2318 6.352C73.5731 6.09867 72.8511 5.95933 72.0658 5.934C71.2045 5.90866 70.4318 6.03533 69.7478 6.314C69.0891 6.59267 68.5571 6.998 68.1518 7.53C67.7465 8.03667 67.5438 8.632 67.5438 9.316C67.5438 10.1013 67.7718 10.722 68.2278 11.178C68.6838 11.6087 69.2791 11.976 70.0138 12.28C70.7738 12.5587 71.6098 12.85 72.5218 13.154C73.5858 13.458 74.6371 13.8127 75.6758 14.218C76.7398 14.598 77.7025 15.092 78.5638 15.7C79.4505 16.2827 80.1598 17.03 80.6918 17.942C81.2238 18.854 81.4898 19.994 81.4898 21.362C81.4898 22.8313 81.1478 24.1613 80.4638 25.352C79.8051 26.5427 78.7918 27.4927 77.4238 28.202C76.0558 28.9113 74.3585 29.266 72.3318 29.266C70.6851 29.266 69.1778 29.0253 67.8098 28.544C66.4671 28.0373 65.3398 27.328 64.4278 26.416C63.5411 25.4787 62.9585 24.3767 62.6798 23.11L66.8218 21.704ZM96.3481 14.712C97.4628 14.712 98.3621 14.5473 99.0461 14.218C99.7554 13.8633 100.287 13.3693 100.642 12.736C100.997 12.0773 101.174 11.3047 101.174 10.418C101.174 9.07533 100.781 8.03666 99.9961 7.302C99.2108 6.542 97.9948 6.162 96.3481 6.162H90.4581V14.712H96.3481ZM105.734 10.418C105.734 11.3807 105.569 12.3307 105.24 13.268C104.911 14.2053 104.379 15.0793 103.644 15.89C102.909 16.6753 101.934 17.3087 100.718 17.79C99.5274 18.246 98.0708 18.474 96.3481 18.474H90.4581V29H85.9361V2.4H96.3481C98.4761 2.4 100.224 2.76733 101.592 3.502C102.985 4.21133 104.024 5.18667 104.708 6.428C105.392 7.644 105.734 8.974 105.734 10.418Z" fill="white"/>
<path d="M58.938 6.162V8.162C60.0426 8.162 60.938 7.26657 60.938 6.162H58.938ZM45.296 6.162V4.162C44.1914 4.162 43.296 5.05743 43.296 6.162H45.296ZM45.296 13.648H43.296C43.296 14.7526 44.1914 15.648 45.296 15.648V13.648ZM55.518 13.648H57.518C57.518 12.5434 56.6226 11.648 55.518 11.648V13.648ZM55.518 17.41V19.41C56.6226 19.41 57.518 18.5146 57.518 17.41H55.518ZM45.296 17.41V15.41C44.1914 15.41 43.296 16.3054 43.296 17.41H45.296ZM45.296 25.238H43.296C43.296 26.3426 44.1914 27.238 45.296 27.238V25.238ZM58.938 25.238H60.938C60.938 24.1334 60.0426 23.238 58.938 23.238V25.238ZM58.938 29V31C60.0426 31 60.938 30.1046 60.938 29H58.938ZM40.774 29H38.774C38.774 30.1046 39.6694 31 40.774 31V29ZM40.774 2.4V0.399998C39.6694 0.399998 38.774 1.29543 38.774 2.4H40.774ZM58.938 2.4H60.938C60.938 1.29543 60.0426 0.399998 58.938 0.399998V2.4ZM58.938 4.162H45.296V8.162H58.938V4.162ZM43.296 6.162V13.648H47.296V6.162H43.296ZM45.296 15.648H55.518V11.648H45.296V15.648ZM53.518 13.648V17.41H57.518V13.648H53.518ZM55.518 15.41H45.296V19.41H55.518V15.41ZM43.296 17.41V25.238H47.296V17.41H43.296ZM45.296 27.238H58.938V23.238H45.296V27.238ZM56.938 25.238V29H60.938V25.238H56.938ZM58.938 27H40.774V31H58.938V27ZM42.774 29V2.4H38.774V29H42.774ZM40.774 4.4H58.938V0.399998H40.774V4.4ZM56.938 2.4V6.162H60.938V2.4H56.938ZM66.8218 21.704L68.7774 21.2849C68.6578 20.7268 68.3054 20.2464 67.809 19.9646C67.3126 19.6829 66.7195 19.6267 66.1789 19.8101L66.8218 21.704ZM67.6958 23.642L66.0875 24.8308C66.107 24.8572 66.1271 24.8831 66.1479 24.9085L67.6958 23.642ZM69.4818 24.972L68.6637 26.797C68.6713 26.8004 68.6789 26.8038 68.6866 26.8071L69.4818 24.972ZM75.7518 24.364L77.1181 25.8245C77.1264 25.8168 77.1345 25.8091 77.1427 25.8012L75.7518 24.364ZM76.1698 19.614L74.6562 20.9212C74.6673 20.9341 74.6785 20.9468 74.6899 20.9593L76.1698 19.614ZM74.1178 18.208L73.2863 20.0269C73.3008 20.0336 73.3153 20.04 73.33 20.0463L74.1178 18.208ZM71.0778 17.068L71.6719 15.1583C71.6612 15.1549 71.6504 15.1517 71.6396 15.1485L71.0778 17.068ZM68.0758 16.118L67.3844 17.9947C67.399 18.0001 67.4137 18.0053 67.4284 18.0103L68.0758 16.118ZM65.4538 14.826L64.3069 16.4645C64.3275 16.4789 64.3484 16.4929 64.3696 16.5066L65.4538 14.826ZM63.6298 12.812L61.874 13.7697C61.8782 13.7773 61.8824 13.7849 61.8867 13.7925L63.6298 12.812ZM62.9838 9.696L64.9834 9.73681C64.9837 9.72321 64.9838 9.7096 64.9838 9.696L62.9838 9.696ZM64.1238 5.592L65.7763 6.71867C65.7802 6.71293 65.7841 6.70718 65.7879 6.7014L64.1238 5.592ZM76.0558 2.78L75.3755 4.66075C75.3914 4.66649 75.4073 4.67203 75.4234 4.67736L76.0558 2.78ZM79.1338 4.604L77.7415 6.0398C77.7491 6.04716 77.7568 6.05446 77.7645 6.0617L79.1338 4.604ZM80.9958 7.53L81.623 9.4291C82.1319 9.26104 82.552 8.8958 82.7892 8.41527C83.0264 7.93473 83.0609 7.37911 82.8848 6.87296L80.9958 7.53ZM76.8538 8.898L74.9243 9.42424C75.0687 9.95363 75.4242 10.4005 75.9077 10.66C76.3911 10.9196 76.96 10.9692 77.481 10.7971L76.8538 8.898ZM75.9418 7.416L74.5276 8.83021C74.5411 8.84368 74.5547 8.85695 74.5686 8.87003L75.9418 7.416ZM74.2318 6.352L73.5139 8.21869C73.5216 8.22167 73.5294 8.22461 73.5372 8.2275L74.2318 6.352ZM72.0658 5.934L72.1303 3.93503L72.1246 3.93486L72.0658 5.934ZM69.7478 6.314L68.9932 4.46182C68.985 4.46518 68.9767 4.46859 68.9685 4.47206L69.7478 6.314ZM68.1518 7.53L69.7135 8.77939C69.7234 8.76707 69.7331 8.75464 69.7427 8.74209L68.1518 7.53ZM68.2278 11.178L66.8136 12.5922C66.8271 12.6057 66.8407 12.619 66.8546 12.632L68.2278 11.178ZM70.0138 12.28L69.2491 14.128C69.2743 14.1385 69.2997 14.1484 69.3253 14.1578L70.0138 12.28ZM72.5218 13.154L71.8894 15.0514C71.9168 15.0605 71.9445 15.0691 71.9724 15.077L72.5218 13.154ZM75.6758 14.218L74.9487 16.0812C74.9668 16.0882 74.9849 16.095 75.0031 16.1015L75.6758 14.218ZM78.5638 15.7L77.4104 17.3339C77.4286 17.3467 77.4469 17.3592 77.4655 17.3714L78.5638 15.7ZM80.6918 17.942L78.9643 18.9497L78.9643 18.9497L80.6918 17.942ZM80.4638 25.352L78.7296 24.3558C78.7242 24.3651 78.719 24.3745 78.7137 24.3839L80.4638 25.352ZM77.4238 28.202L76.5032 26.4265L76.5032 26.4265L77.4238 28.202ZM67.8098 28.544L67.1037 30.4152C67.1177 30.4205 67.1318 30.4256 67.146 30.4306L67.8098 28.544ZM64.4278 26.416L62.9749 27.7904C62.9876 27.8038 63.0005 27.8171 63.0136 27.8302L64.4278 26.416ZM62.6798 23.11L62.0369 21.2161C61.072 21.5437 60.5076 22.5445 60.7265 23.5397L62.6798 23.11ZM64.8662 22.1231C65.0778 23.1104 65.4874 24.0189 66.0875 24.8308L69.3042 22.4532C69.0429 22.0998 68.8698 21.7163 68.7774 21.2849L64.8662 22.1231ZM66.1479 24.9085C66.8227 25.7332 67.6795 26.3558 68.6637 26.797L70.2999 23.147C69.8148 22.9295 69.4809 22.6654 69.2437 22.3755L66.1479 24.9085ZM68.6866 26.8071C69.7527 27.2691 70.9348 27.466 72.1798 27.466V23.466C71.3475 23.466 70.7309 23.3336 70.277 23.1369L68.6866 26.8071ZM72.1798 27.466C74.0418 27.466 75.8173 27.0415 77.1181 25.8245L74.3855 22.9035C74.1157 23.1559 73.5098 23.466 72.1798 23.466V27.466ZM77.1427 25.8012C78.2834 24.6973 78.9298 23.3046 78.9298 21.704H74.9298C74.9298 22.1301 74.7909 22.5107 74.361 22.9268L77.1427 25.8012ZM78.9298 21.704C78.9298 20.4295 78.5288 19.2356 77.6497 18.2687L74.6899 20.9593C74.8242 21.107 74.9298 21.3065 74.9298 21.704H78.9298ZM77.6835 18.3068C76.952 17.4598 75.9884 16.8337 74.9057 16.3697L73.33 20.0463C74.0206 20.3423 74.425 20.6535 74.6562 20.9212L77.6835 18.3068ZM74.9493 16.3891C73.9707 15.9417 72.8757 15.5328 71.6719 15.1583L70.4837 18.9777C71.5599 19.3125 72.4916 19.6637 73.2863 20.0269L74.9493 16.3891ZM71.6396 15.1485C70.6279 14.8524 69.6558 14.5447 68.7232 14.2257L67.4284 18.0103C68.4211 18.3499 69.4504 18.6756 70.516 18.9875L71.6396 15.1485ZM68.7672 14.2413C67.9291 13.9325 67.1887 13.5652 66.5381 13.1454L64.3696 16.5066C65.2896 17.1002 66.2972 17.5942 67.3844 17.9947L68.7672 14.2413ZM66.6007 13.1875C66.0869 12.8279 65.6824 12.3816 65.373 11.8315L61.8867 13.7925C62.4892 14.8637 63.3007 15.7601 64.3069 16.4645L66.6007 13.1875ZM65.3856 11.8543C65.1397 11.4035 64.9631 10.7328 64.9834 9.73681L60.9842 9.65519C60.9539 11.1419 61.2079 12.5485 61.874 13.7697L65.3856 11.8543ZM64.9838 9.696C64.9838 8.39414 65.2851 7.43907 65.7763 6.71867L62.4714 4.46532C61.4425 5.97427 60.9838 7.75519 60.9838 9.696H64.9838ZM65.7879 6.7014C66.3134 5.91316 67.058 5.29167 68.0995 4.84805L66.5321 1.16795C64.8376 1.88967 63.4542 2.99084 62.4597 4.4826L65.7879 6.7014ZM68.0995 4.84805C69.1768 4.38921 70.4729 4.134 72.0278 4.134V0.133999C70.0361 0.133999 68.1908 0.461459 66.5321 1.16795L68.0995 4.84805ZM72.0278 4.134C73.3314 4.134 74.4384 4.32179 75.3755 4.66075L76.7361 0.899245C75.2919 0.376877 73.7135 0.133999 72.0278 0.133999V4.134ZM75.4234 4.67736C76.3837 4.99748 77.1419 5.45835 77.7415 6.0398L80.5261 3.1682C79.4537 2.12831 78.1599 1.37319 76.6883 0.882632L75.4234 4.67736ZM77.7645 6.0617C78.3476 6.60946 78.7993 7.30296 79.1068 8.18704L82.8848 6.87296C82.3816 5.42637 81.5921 4.16921 80.5032 3.1463L77.7645 6.0617ZM80.3686 5.6309L76.2266 6.9989L77.481 10.7971L81.623 9.4291L80.3686 5.6309ZM78.7833 8.37176C78.5264 7.42971 78.0145 6.62252 77.3151 5.96197L74.5686 8.87003C74.7812 9.07081 74.8772 9.25162 74.9243 9.42424L78.7833 8.37176ZM77.356 6.00179C76.671 5.3168 75.8452 4.8168 74.9264 4.4765L73.5372 8.2275C73.9864 8.39387 74.3006 8.6032 74.5276 8.83021L77.356 6.00179ZM74.9498 4.48531C74.0599 4.14306 73.1141 3.96678 72.1303 3.93504L72.0013 7.93296C72.5881 7.95189 73.0864 8.05427 73.5139 8.21869L74.9498 4.48531ZM72.1246 3.93486C71.0308 3.90269 69.9746 4.062 68.9932 4.46182L70.5024 8.16618C70.889 8.00867 71.3781 7.91464 72.007 7.93313L72.1246 3.93486ZM68.9685 4.47206C68.0121 4.8767 67.192 5.48967 66.5609 6.31791L69.7427 8.74209C69.9223 8.50633 70.1662 8.30863 70.5271 8.15593L68.9685 4.47206ZM66.5901 6.28061C65.8849 7.16205 65.5438 8.20434 65.5438 9.316H69.5438C69.5438 9.05966 69.608 8.91129 69.7135 8.77939L66.5901 6.28061ZM65.5438 9.316C65.5438 10.5087 65.9036 11.6823 66.8136 12.5922L69.642 9.76379C69.64 9.76174 69.5438 9.69397 69.5438 9.316H65.5438ZM66.8546 12.632C67.5281 13.2681 68.347 13.7547 69.2491 14.128L70.7785 10.432C70.2113 10.1973 69.8396 9.94923 69.6011 9.72397L66.8546 12.632ZM69.3253 14.1578C70.1069 14.4444 70.9619 14.7422 71.8894 15.0514L73.1543 11.2566C72.2577 10.9578 71.4407 10.673 70.7023 10.4022L69.3253 14.1578ZM71.9724 15.077C72.9758 15.3637 73.9679 15.6984 74.9487 16.0812L76.4029 12.3548C75.3064 11.927 74.1958 11.5523 73.0713 11.231L71.9724 15.077ZM75.0031 16.1015C75.9085 16.4248 76.7075 16.8377 77.4104 17.3339L79.7172 14.0661C78.6975 13.3463 77.5711 12.7712 76.3485 12.3345L75.0031 16.1015ZM77.4655 17.3714C78.0953 17.7853 78.5887 18.3059 78.9643 18.9497L82.4194 16.9343C81.7309 15.7541 80.8057 14.7801 79.6622 14.0286L77.4655 17.3714ZM78.9643 18.9497C79.2725 19.4782 79.4898 20.2458 79.4898 21.362H83.4898C83.4898 19.7422 83.1751 18.2298 82.4194 16.9343L78.9643 18.9497ZM79.4898 21.362C79.4898 22.5071 79.2273 23.4895 78.7296 24.3558L82.198 26.3482C83.0684 24.8332 83.4898 23.1556 83.4898 21.362H79.4898ZM78.7137 24.3839C78.2705 25.1852 77.569 25.8738 76.5032 26.4265L78.3444 29.9775C80.0146 29.1115 81.3398 27.9001 82.2139 26.3201L78.7137 24.3839ZM76.5032 26.4265C75.495 26.9493 74.1353 27.266 72.3318 27.266V31.266C74.5816 31.266 76.6166 30.8734 78.3444 29.9775L76.5032 26.4265ZM72.3318 27.266C70.881 27.266 69.6016 27.0542 68.4736 26.6574L67.146 30.4306C68.754 30.9964 70.4893 31.266 72.3318 31.266V27.266ZM68.5159 26.6728C67.409 26.2551 66.5316 25.6913 65.842 25.0018L63.0136 27.8302C64.1481 28.9647 65.5253 29.8196 67.1037 30.4152L68.5159 26.6728ZM65.8807 25.0416C65.2449 24.3694 64.8342 23.5944 64.6331 22.6803L60.7265 23.5397C61.0827 25.1589 61.8374 26.588 62.9749 27.7904L65.8807 25.0416ZM63.3227 25.0039L67.4647 23.5979L66.1789 19.8101L62.0369 21.2161L63.3227 25.0039ZM99.0461 14.218L99.9137 16.02C99.9227 16.0157 99.9316 16.0113 99.9405 16.0069L99.0461 14.218ZM100.642 12.736L102.387 13.7132C102.393 13.7036 102.398 13.6939 102.403 13.6842L100.642 12.736ZM99.9961 7.302L98.6053 8.7392C98.6134 8.74705 98.6216 8.75483 98.6298 8.76254L99.9961 7.302ZM90.4581 6.162V4.162C89.3535 4.162 88.4581 5.05743 88.4581 6.162H90.4581ZM90.4581 14.712H88.4581C88.4581 15.8166 89.3535 16.712 90.4581 16.712V14.712ZM105.24 13.268L103.353 12.605L103.353 12.605L105.24 13.268ZM103.644 15.89L105.105 17.2563C105.112 17.2486 105.119 17.2409 105.126 17.233L103.644 15.89ZM100.718 17.79L101.433 19.6577C101.44 19.6551 101.447 19.6524 101.454 19.6496L100.718 17.79ZM90.4581 18.474V16.474C89.3535 16.474 88.4581 17.3694 88.4581 18.474H90.4581ZM90.4581 29V31C91.5627 31 92.4581 30.1046 92.4581 29H90.4581ZM85.9361 29H83.9361C83.9361 30.1046 84.8315 31 85.9361 31V29ZM85.9361 2.4V0.399998C84.8315 0.399998 83.9361 1.29543 83.9361 2.4H85.9361ZM101.592 3.502L100.646 5.26399C100.659 5.27091 100.672 5.27769 100.685 5.28433L101.592 3.502ZM104.708 6.428L102.956 7.39321C102.959 7.39833 102.962 7.40343 102.965 7.40852L104.708 6.428ZM96.3481 16.712C97.6337 16.712 98.8626 16.5261 99.9137 16.02L98.1785 12.416C97.8616 12.5685 97.2919 12.712 96.3481 12.712V16.712ZM99.9405 16.0069C100.974 15.4903 101.819 14.7286 102.387 13.7132L98.8971 11.7588C98.7564 12.0101 98.5373 12.2364 98.1517 12.4291L99.9405 16.0069ZM102.403 13.6842C102.941 12.6846 103.174 11.5744 103.174 10.418H99.1741C99.1741 11.0349 99.0522 11.4701 98.8812 11.7878L102.403 13.6842ZM103.174 10.418C103.174 8.6687 102.648 7.04416 101.362 5.84145L98.6298 8.76254C98.9148 9.02917 99.1741 9.48197 99.1741 10.418H103.174ZM101.387 5.86479C100.077 4.59717 98.2557 4.162 96.3481 4.162V8.162C97.7339 8.162 98.3445 8.48682 98.6053 8.7392L101.387 5.86479ZM96.3481 4.162H90.4581V8.162H96.3481V4.162ZM88.4581 6.162V14.712H92.4581V6.162H88.4581ZM90.4581 16.712H96.3481V12.712H90.4581V16.712ZM103.734 10.418C103.734 11.1477 103.61 11.8738 103.353 12.605L107.127 13.931C107.529 12.7875 107.734 11.6137 107.734 10.418H103.734ZM103.353 12.605C103.121 13.2666 102.736 13.9137 102.162 14.547L105.126 17.233C106.022 16.245 106.701 15.1441 107.127 13.931L103.353 12.605ZM102.184 14.5237C101.69 15.0515 100.981 15.5348 99.982 15.9304L101.454 19.6496C102.887 19.0825 104.129 18.2992 105.105 17.2563L102.184 14.5237ZM100.003 15.9223C99.1052 16.2661 97.9067 16.474 96.3481 16.474V20.474C98.2348 20.474 99.9497 20.2259 101.433 19.6577L100.003 15.9223ZM96.3481 16.474H90.4581V20.474H96.3481V16.474ZM88.4581 18.474V29H92.4581V18.474H88.4581ZM90.4581 27H85.9361V31H90.4581V27ZM87.9361 29V2.4H83.9361V29H87.9361ZM85.9361 4.4H96.3481V0.399998H85.9361V4.4ZM96.3481 4.4C98.2623 4.4 99.6565 4.73267 100.646 5.26399L102.538 1.74001C100.792 0.801995 98.6899 0.399998 96.3481 0.399998V4.4ZM100.685 5.28433C101.76 5.83151 102.486 6.53856 102.956 7.39321L106.46 5.46279C105.563 3.83478 104.211 2.59116 102.499 1.71967L100.685 5.28433ZM102.965 7.40852C103.475 8.31443 103.734 9.30495 103.734 10.418H107.734C107.734 8.64305 107.31 6.97357 106.451 5.44748L102.965 7.40852Z" fill="#3C50E0" mask="url(#path-5-outside-1_3663_5121)"/>
<defs>
<filter id="filter0_d_3663_5121" x="0.815796" y="5.97388" width="5.36842" height="20.5264" filterUnits="userSpaceOnUse" color-interpolation-filters="sRGB">
<feFlood flood-opacity="0" result="BackgroundImageFix"/>
<feColorMatrix in="SourceAlpha" type="matrix" values="0 0 0 0 0 0 0 0 0 0 0 0 0 0 0 0 0 0 127 0" result="hardAlpha"/>
<feOffset dy="0.5"/>
<feGaussianBlur stdDeviation="0.5"/>
<feComposite in2="hardAlpha" operator="out"/>
<feColorMatrix type="matrix" values="0 0 0 0 0 0 0 0 0 0 0 0 0 0 0 0 0 0 0.12 0"/>
<feBlend mode="normal" in2="BackgroundImageFix" result="effect1_dropShadow_3663_5121"/>
<feBlend mode="normal" in="SourceGraphic" in2="effect1_dropShadow_3663_5121" result="shape"/>
</filter>
</defs>
</svg>
