<svg width="184" height="32" viewBox="0 0 184 32" fill="none" xmlns="http://www.w3.org/2000/svg">
<path d="M6 8.42105C6 3.77023 9.77023 0 14.4211 0H29.5789C34.2298 0 38 3.77023 38 8.42105V23.5789C38 28.2298 34.2298 32 29.5789 32H14.4211C9.77023 32 6 28.2298 6 23.5789V8.42105Z" fill="#3C50E0"/>
<mask id="path-2-outside-1_3443_6089" maskUnits="userSpaceOnUse" x="45" y="13" width="139" height="13" fill="black">
<rect fill="white" x="45" y="13" width="139" height="13"/>
<path d="M53.816 15.384H48.072V18.536H52.376V20.12H48.072V23.416H53.816V25H46.168V13.8H53.816V15.384ZM57.1355 21.928C57.1995 22.2267 57.3222 22.4987 57.5035 22.744C57.6955 22.9787 57.9462 23.1653 58.2555 23.304C58.5755 23.4427 58.9542 23.512 59.3915 23.512C60.0635 23.512 60.5648 23.3573 60.8955 23.048C61.2262 22.728 61.3915 22.3547 61.3915 21.928C61.3915 21.576 61.2848 21.2827 61.0715 21.048C60.8688 20.8133 60.5808 20.616 60.2075 20.456C59.8342 20.2853 59.4075 20.1253 58.9275 19.976C58.4902 19.848 58.0688 19.7147 57.6635 19.576C57.2582 19.4267 56.8902 19.2453 56.5595 19.032C56.2395 18.808 55.9835 18.5253 55.7915 18.184C55.5995 17.832 55.5088 17.3947 55.5195 16.872C55.5195 16.1893 55.6795 15.6133 55.9995 15.144C56.3195 14.664 56.7675 14.3013 57.3435 14.056C57.9195 13.8107 58.5808 13.688 59.3275 13.688C59.9568 13.688 60.5222 13.7787 61.0235 13.96C61.5355 14.1307 61.9675 14.3867 62.3195 14.728C62.6715 15.0587 62.9328 15.4693 63.1035 15.96L61.3595 16.536C61.2955 16.3013 61.1675 16.0933 60.9755 15.912C60.7835 15.72 60.5435 15.5707 60.2555 15.464C59.9782 15.3573 59.6742 15.2987 59.3435 15.288C58.9808 15.2773 58.6555 15.3307 58.3675 15.448C58.0902 15.5653 57.8662 15.736 57.6955 15.96C57.5248 16.1733 57.4395 16.424 57.4395 16.712C57.4395 17.0427 57.5355 17.304 57.7275 17.496C57.9195 17.6773 58.1702 17.832 58.4795 17.96C58.7995 18.0773 59.1515 18.2 59.5355 18.328C59.9835 18.456 60.4262 18.6053 60.8635 18.776C61.3115 18.936 61.7168 19.144 62.0795 19.4C62.4528 19.6453 62.7515 19.96 62.9755 20.344C63.1995 20.728 63.3115 21.208 63.3115 21.784C63.3115 22.4027 63.1675 22.9627 62.8795 23.464C62.6022 23.9653 62.1755 24.3653 61.5995 24.664C61.0235 24.9627 60.3088 25.112 59.4555 25.112C58.7622 25.112 58.1275 25.0107 57.5515 24.808C56.9862 24.5947 56.5115 24.296 56.1275 23.912C55.7542 23.5173 55.5088 23.0533 55.3915 22.52L57.1355 21.928ZM73.6476 17.288C73.253 16.584 72.7676 16.0773 72.1916 15.768C71.6156 15.4587 71.0023 15.304 70.3516 15.304C69.6476 15.304 69.0023 15.48 68.4156 15.832C67.8396 16.1733 67.381 16.6533 67.0396 17.272C66.709 17.88 66.5436 18.5893 66.5436 19.4C66.5436 20.2107 66.709 20.9253 67.0396 21.544C67.3703 22.152 67.8183 22.632 68.3836 22.984C68.9596 23.3253 69.5996 23.496 70.3036 23.496C70.805 23.496 71.2743 23.4107 71.7116 23.24C72.149 23.0693 72.533 22.8347 72.8636 22.536C73.1943 22.2267 73.4556 21.8747 73.6476 21.48V20.36H70.4316V18.808H75.5516V21.592C75.2956 22.2533 74.9116 22.8507 74.3996 23.384C73.8983 23.9173 73.2956 24.3387 72.5916 24.648C71.8983 24.9573 71.1303 25.112 70.2876 25.112C69.4983 25.112 68.757 24.9733 68.0636 24.696C67.381 24.4187 66.7783 24.0293 66.2556 23.528C65.7436 23.016 65.3383 22.4133 65.0396 21.72C64.7516 21.016 64.6076 20.2427 64.6076 19.4C64.6076 18.568 64.7516 17.8053 65.0396 17.112C65.3383 16.408 65.7436 15.8 66.2556 15.288C66.7783 14.776 67.381 14.3813 68.0636 14.104C68.757 13.8267 69.4983 13.688 70.2876 13.688C71.0023 13.688 71.6903 13.8053 72.3516 14.04C73.013 14.264 73.605 14.6 74.1276 15.048C74.6503 15.496 75.0503 16.0453 75.3276 16.696L73.6476 17.288ZM77.4336 13.8H79.3376V25H77.4336V13.8ZM82.9636 21.928C83.0276 22.2267 83.1503 22.4987 83.3316 22.744C83.5236 22.9787 83.7743 23.1653 84.0836 23.304C84.4036 23.4427 84.7823 23.512 85.2196 23.512C85.8916 23.512 86.393 23.3573 86.7236 23.048C87.0543 22.728 87.2196 22.3547 87.2196 21.928C87.2196 21.576 87.113 21.2827 86.8996 21.048C86.697 20.8133 86.409 20.616 86.0356 20.456C85.6623 20.2853 85.2356 20.1253 84.7556 19.976C84.3183 19.848 83.897 19.7147 83.4916 19.576C83.0863 19.4267 82.7183 19.2453 82.3876 19.032C82.0676 18.808 81.8116 18.5253 81.6196 18.184C81.4276 17.832 81.337 17.3947 81.3476 16.872C81.3476 16.1893 81.5076 15.6133 81.8276 15.144C82.1476 14.664 82.5956 14.3013 83.1716 14.056C83.7476 13.8107 84.409 13.688 85.1556 13.688C85.785 13.688 86.3503 13.7787 86.8516 13.96C87.3636 14.1307 87.7956 14.3867 88.1476 14.728C88.4996 15.0587 88.761 15.4693 88.9316 15.96L87.1876 16.536C87.1236 16.3013 86.9956 16.0933 86.8036 15.912C86.6116 15.72 86.3716 15.5707 86.0836 15.464C85.8063 15.3573 85.5023 15.2987 85.1716 15.288C84.809 15.2773 84.4836 15.3307 84.1956 15.448C83.9183 15.5653 83.6943 15.736 83.5236 15.96C83.353 16.1733 83.2676 16.424 83.2676 16.712C83.2676 17.0427 83.3636 17.304 83.5556 17.496C83.7476 17.6773 83.9983 17.832 84.3076 17.96C84.6276 18.0773 84.9796 18.2 85.3636 18.328C85.8116 18.456 86.2543 18.6053 86.6916 18.776C87.1396 18.936 87.545 19.144 87.9076 19.4C88.281 19.6453 88.5796 19.96 88.8036 20.344C89.0276 20.728 89.1396 21.208 89.1396 21.784C89.1396 22.4027 88.9956 22.9627 88.7076 23.464C88.4303 23.9653 88.0036 24.3653 87.4276 24.664C86.8516 24.9627 86.137 25.112 85.2836 25.112C84.5903 25.112 83.9556 25.0107 83.3796 24.808C82.8143 24.5947 82.3396 24.296 81.9556 23.912C81.5823 23.5173 81.337 23.0533 81.2196 22.52L82.9636 21.928ZM99.8801 18.984C100.349 18.984 100.728 18.9147 101.016 18.776C101.315 18.6267 101.539 18.4187 101.688 18.152C101.837 17.8747 101.912 17.5493 101.912 17.176C101.912 16.6107 101.747 16.1733 101.416 15.864C101.085 15.544 100.573 15.384 99.8801 15.384H97.4001V18.984H99.8801ZM103.832 17.176C103.832 17.5813 103.763 17.9813 103.624 18.376C103.485 18.7707 103.261 19.1387 102.952 19.48C102.643 19.8107 102.232 20.0773 101.72 20.28C101.219 20.472 100.605 20.568 99.8801 20.568H97.4001V25H95.4961V13.8H99.8801C100.776 13.8 101.512 13.9547 102.088 14.264C102.675 14.5627 103.112 14.9733 103.4 15.496C103.688 16.008 103.832 16.568 103.832 17.176ZM112.022 17.176C112.022 16.6213 111.856 16.184 111.526 15.864C111.195 15.544 110.683 15.384 109.99 15.384H107.51V18.984H109.99C110.459 18.984 110.838 18.9147 111.126 18.776C111.424 18.6267 111.648 18.4187 111.798 18.152C111.947 17.8747 112.022 17.5493 112.022 17.176ZM109.99 13.8C110.886 13.8 111.622 13.9547 112.198 14.264C112.784 14.5627 113.222 14.9733 113.51 15.496C113.798 16.008 113.942 16.568 113.942 17.176C113.942 17.5813 113.872 17.9813 113.734 18.376C113.595 18.7707 113.371 19.1387 113.062 19.48C112.752 19.8107 112.342 20.0773 111.83 20.28C111.328 20.472 110.715 20.568 109.99 20.568H107.51V25H105.606V13.8H109.99ZM111.126 19.944L114.182 25H112.038L109.094 19.944H111.126ZM123.597 15.384H117.853V18.536H122.157V20.12H117.853V23.416H123.597V25H115.949V13.8H123.597V15.384ZM126.917 21.928C126.981 22.2267 127.103 22.4987 127.285 22.744C127.477 22.9787 127.727 23.1653 128.037 23.304C128.357 23.4427 128.735 23.512 129.173 23.512C129.845 23.512 130.346 23.3573 130.677 23.048C131.007 22.728 131.173 22.3547 131.173 21.928C131.173 21.576 131.066 21.2827 130.853 21.048C130.65 20.8133 130.362 20.616 129.989 20.456C129.615 20.2853 129.189 20.1253 128.709 19.976C128.271 19.848 127.85 19.7147 127.445 19.576C127.039 19.4267 126.671 19.2453 126.341 19.032C126.021 18.808 125.765 18.5253 125.573 18.184C125.381 17.832 125.29 17.3947 125.301 16.872C125.301 16.1893 125.461 15.6133 125.781 15.144C126.101 14.664 126.549 14.3013 127.125 14.056C127.701 13.8107 128.362 13.688 129.109 13.688C129.738 13.688 130.303 13.7787 130.805 13.96C131.317 14.1307 131.749 14.3867 132.101 14.728C132.453 15.0587 132.714 15.4693 132.885 15.96L131.141 16.536C131.077 16.3013 130.949 16.0933 130.757 15.912C130.565 15.72 130.325 15.5707 130.037 15.464C129.759 15.3573 129.455 15.2987 129.125 15.288C128.762 15.2773 128.437 15.3307 128.149 15.448C127.871 15.5653 127.647 15.736 127.477 15.96C127.306 16.1733 127.221 16.424 127.221 16.712C127.221 17.0427 127.317 17.304 127.509 17.496C127.701 17.6773 127.951 17.832 128.261 17.96C128.581 18.0773 128.933 18.2 129.317 18.328C129.765 18.456 130.207 18.6053 130.645 18.776C131.093 18.936 131.498 19.144 131.861 19.4C132.234 19.6453 132.533 19.96 132.757 20.344C132.981 20.728 133.093 21.208 133.093 21.784C133.093 22.4027 132.949 22.9627 132.661 23.464C132.383 23.9653 131.957 24.3653 131.381 24.664C130.805 24.9627 130.09 25.112 129.237 25.112C128.543 25.112 127.909 25.0107 127.333 24.808C126.767 24.5947 126.293 24.296 125.909 23.912C125.535 23.5173 125.29 23.0533 125.173 22.52L126.917 21.928ZM142.613 15.384H136.869V18.536H141.173V20.12H136.869V23.416H142.613V25H134.965V13.8H142.613V15.384ZM153.708 13.8V25H151.772L146.556 16.792V25H144.652V13.8H146.604L151.82 21.976V13.8H153.708ZM155.483 19.4C155.483 18.5573 155.627 17.7893 155.915 17.096C156.213 16.392 156.619 15.7893 157.131 15.288C157.653 14.776 158.256 14.3813 158.939 14.104C159.632 13.8267 160.373 13.688 161.163 13.688C162.261 13.688 163.253 13.9493 164.139 14.472C165.035 14.9947 165.717 15.7467 166.187 16.728L164.635 17.256C164.389 16.7867 164.075 16.408 163.691 16.12C163.307 15.832 162.901 15.624 162.475 15.496C162.048 15.368 161.627 15.304 161.211 15.304C160.485 15.304 159.835 15.4747 159.259 15.816C158.683 16.1467 158.229 16.6213 157.899 17.24C157.579 17.848 157.419 18.568 157.419 19.4C157.419 20.2213 157.579 20.9413 157.899 21.56C158.229 22.168 158.683 22.6427 159.259 22.984C159.835 23.3253 160.485 23.496 161.211 23.496C161.637 23.496 162.069 23.432 162.507 23.304C162.955 23.1653 163.376 22.9307 163.771 22.6C164.176 22.2587 164.512 21.8053 164.779 21.24L166.315 21.736C165.824 22.888 165.125 23.7413 164.219 24.296C163.312 24.84 162.293 25.112 161.163 25.112C160.373 25.112 159.632 24.9733 158.939 24.696C158.256 24.4187 157.653 24.024 157.131 23.512C156.619 23 156.213 22.3973 155.915 21.704C155.627 21 155.483 20.232 155.483 19.4ZM168.246 13.8H170.15V25H168.246V13.8ZM177.344 15.384H176.768L173.408 25H171.456L175.424 13.8H178.656L182.64 25H180.688L177.344 15.384ZM173.632 20.696H180.16V22.264H173.632V20.696Z"/>
</mask>
<path d="M53.816 15.384H48.072V18.536H52.376V20.12H48.072V23.416H53.816V25H46.168V13.8H53.816V15.384ZM57.1355 21.928C57.1995 22.2267 57.3222 22.4987 57.5035 22.744C57.6955 22.9787 57.9462 23.1653 58.2555 23.304C58.5755 23.4427 58.9542 23.512 59.3915 23.512C60.0635 23.512 60.5648 23.3573 60.8955 23.048C61.2262 22.728 61.3915 22.3547 61.3915 21.928C61.3915 21.576 61.2848 21.2827 61.0715 21.048C60.8688 20.8133 60.5808 20.616 60.2075 20.456C59.8342 20.2853 59.4075 20.1253 58.9275 19.976C58.4902 19.848 58.0688 19.7147 57.6635 19.576C57.2582 19.4267 56.8902 19.2453 56.5595 19.032C56.2395 18.808 55.9835 18.5253 55.7915 18.184C55.5995 17.832 55.5088 17.3947 55.5195 16.872C55.5195 16.1893 55.6795 15.6133 55.9995 15.144C56.3195 14.664 56.7675 14.3013 57.3435 14.056C57.9195 13.8107 58.5808 13.688 59.3275 13.688C59.9568 13.688 60.5222 13.7787 61.0235 13.96C61.5355 14.1307 61.9675 14.3867 62.3195 14.728C62.6715 15.0587 62.9328 15.4693 63.1035 15.96L61.3595 16.536C61.2955 16.3013 61.1675 16.0933 60.9755 15.912C60.7835 15.72 60.5435 15.5707 60.2555 15.464C59.9782 15.3573 59.6742 15.2987 59.3435 15.288C58.9808 15.2773 58.6555 15.3307 58.3675 15.448C58.0902 15.5653 57.8662 15.736 57.6955 15.96C57.5248 16.1733 57.4395 16.424 57.4395 16.712C57.4395 17.0427 57.5355 17.304 57.7275 17.496C57.9195 17.6773 58.1702 17.832 58.4795 17.96C58.7995 18.0773 59.1515 18.2 59.5355 18.328C59.9835 18.456 60.4262 18.6053 60.8635 18.776C61.3115 18.936 61.7168 19.144 62.0795 19.4C62.4528 19.6453 62.7515 19.96 62.9755 20.344C63.1995 20.728 63.3115 21.208 63.3115 21.784C63.3115 22.4027 63.1675 22.9627 62.8795 23.464C62.6022 23.9653 62.1755 24.3653 61.5995 24.664C61.0235 24.9627 60.3088 25.112 59.4555 25.112C58.7622 25.112 58.1275 25.0107 57.5515 24.808C56.9862 24.5947 56.5115 24.296 56.1275 23.912C55.7542 23.5173 55.5088 23.0533 55.3915 22.52L57.1355 21.928ZM73.6476 17.288C73.253 16.584 72.7676 16.0773 72.1916 15.768C71.6156 15.4587 71.0023 15.304 70.3516 15.304C69.6476 15.304 69.0023 15.48 68.4156 15.832C67.8396 16.1733 67.381 16.6533 67.0396 17.272C66.709 17.88 66.5436 18.5893 66.5436 19.4C66.5436 20.2107 66.709 20.9253 67.0396 21.544C67.3703 22.152 67.8183 22.632 68.3836 22.984C68.9596 23.3253 69.5996 23.496 70.3036 23.496C70.805 23.496 71.2743 23.4107 71.7116 23.24C72.149 23.0693 72.533 22.8347 72.8636 22.536C73.1943 22.2267 73.4556 21.8747 73.6476 21.48V20.36H70.4316V18.808H75.5516V21.592C75.2956 22.2533 74.9116 22.8507 74.3996 23.384C73.8983 23.9173 73.2956 24.3387 72.5916 24.648C71.8983 24.9573 71.1303 25.112 70.2876 25.112C69.4983 25.112 68.757 24.9733 68.0636 24.696C67.381 24.4187 66.7783 24.0293 66.2556 23.528C65.7436 23.016 65.3383 22.4133 65.0396 21.72C64.7516 21.016 64.6076 20.2427 64.6076 19.4C64.6076 18.568 64.7516 17.8053 65.0396 17.112C65.3383 16.408 65.7436 15.8 66.2556 15.288C66.7783 14.776 67.381 14.3813 68.0636 14.104C68.757 13.8267 69.4983 13.688 70.2876 13.688C71.0023 13.688 71.6903 13.8053 72.3516 14.04C73.013 14.264 73.605 14.6 74.1276 15.048C74.6503 15.496 75.0503 16.0453 75.3276 16.696L73.6476 17.288ZM77.4336 13.8H79.3376V25H77.4336V13.8ZM82.9636 21.928C83.0276 22.2267 83.1503 22.4987 83.3316 22.744C83.5236 22.9787 83.7743 23.1653 84.0836 23.304C84.4036 23.4427 84.7823 23.512 85.2196 23.512C85.8916 23.512 86.393 23.3573 86.7236 23.048C87.0543 22.728 87.2196 22.3547 87.2196 21.928C87.2196 21.576 87.113 21.2827 86.8996 21.048C86.697 20.8133 86.409 20.616 86.0356 20.456C85.6623 20.2853 85.2356 20.1253 84.7556 19.976C84.3183 19.848 83.897 19.7147 83.4916 19.576C83.0863 19.4267 82.7183 19.2453 82.3876 19.032C82.0676 18.808 81.8116 18.5253 81.6196 18.184C81.4276 17.832 81.337 17.3947 81.3476 16.872C81.3476 16.1893 81.5076 15.6133 81.8276 15.144C82.1476 14.664 82.5956 14.3013 83.1716 14.056C83.7476 13.8107 84.409 13.688 85.1556 13.688C85.785 13.688 86.3503 13.7787 86.8516 13.96C87.3636 14.1307 87.7956 14.3867 88.1476 14.728C88.4996 15.0587 88.761 15.4693 88.9316 15.96L87.1876 16.536C87.1236 16.3013 86.9956 16.0933 86.8036 15.912C86.6116 15.72 86.3716 15.5707 86.0836 15.464C85.8063 15.3573 85.5023 15.2987 85.1716 15.288C84.809 15.2773 84.4836 15.3307 84.1956 15.448C83.9183 15.5653 83.6943 15.736 83.5236 15.96C83.353 16.1733 83.2676 16.424 83.2676 16.712C83.2676 17.0427 83.3636 17.304 83.5556 17.496C83.7476 17.6773 83.9983 17.832 84.3076 17.96C84.6276 18.0773 84.9796 18.2 85.3636 18.328C85.8116 18.456 86.2543 18.6053 86.6916 18.776C87.1396 18.936 87.545 19.144 87.9076 19.4C88.281 19.6453 88.5796 19.96 88.8036 20.344C89.0276 20.728 89.1396 21.208 89.1396 21.784C89.1396 22.4027 88.9956 22.9627 88.7076 23.464C88.4303 23.9653 88.0036 24.3653 87.4276 24.664C86.8516 24.9627 86.137 25.112 85.2836 25.112C84.5903 25.112 83.9556 25.0107 83.3796 24.808C82.8143 24.5947 82.3396 24.296 81.9556 23.912C81.5823 23.5173 81.337 23.0533 81.2196 22.52L82.9636 21.928ZM99.8801 18.984C100.349 18.984 100.728 18.9147 101.016 18.776C101.315 18.6267 101.539 18.4187 101.688 18.152C101.837 17.8747 101.912 17.5493 101.912 17.176C101.912 16.6107 101.747 16.1733 101.416 15.864C101.085 15.544 100.573 15.384 99.8801 15.384H97.4001V18.984H99.8801ZM103.832 17.176C103.832 17.5813 103.763 17.9813 103.624 18.376C103.485 18.7707 103.261 19.1387 102.952 19.48C102.643 19.8107 102.232 20.0773 101.72 20.28C101.219 20.472 100.605 20.568 99.8801 20.568H97.4001V25H95.4961V13.8H99.8801C100.776 13.8 101.512 13.9547 102.088 14.264C102.675 14.5627 103.112 14.9733 103.4 15.496C103.688 16.008 103.832 16.568 103.832 17.176ZM112.022 17.176C112.022 16.6213 111.856 16.184 111.526 15.864C111.195 15.544 110.683 15.384 109.99 15.384H107.51V18.984H109.99C110.459 18.984 110.838 18.9147 111.126 18.776C111.424 18.6267 111.648 18.4187 111.798 18.152C111.947 17.8747 112.022 17.5493 112.022 17.176ZM109.99 13.8C110.886 13.8 111.622 13.9547 112.198 14.264C112.784 14.5627 113.222 14.9733 113.51 15.496C113.798 16.008 113.942 16.568 113.942 17.176C113.942 17.5813 113.872 17.9813 113.734 18.376C113.595 18.7707 113.371 19.1387 113.062 19.48C112.752 19.8107 112.342 20.0773 111.83 20.28C111.328 20.472 110.715 20.568 109.99 20.568H107.51V25H105.606V13.8H109.99ZM111.126 19.944L114.182 25H112.038L109.094 19.944H111.126ZM123.597 15.384H117.853V18.536H122.157V20.12H117.853V23.416H123.597V25H115.949V13.8H123.597V15.384ZM126.917 21.928C126.981 22.2267 127.103 22.4987 127.285 22.744C127.477 22.9787 127.727 23.1653 128.037 23.304C128.357 23.4427 128.735 23.512 129.173 23.512C129.845 23.512 130.346 23.3573 130.677 23.048C131.007 22.728 131.173 22.3547 131.173 21.928C131.173 21.576 131.066 21.2827 130.853 21.048C130.65 20.8133 130.362 20.616 129.989 20.456C129.615 20.2853 129.189 20.1253 128.709 19.976C128.271 19.848 127.85 19.7147 127.445 19.576C127.039 19.4267 126.671 19.2453 126.341 19.032C126.021 18.808 125.765 18.5253 125.573 18.184C125.381 17.832 125.29 17.3947 125.301 16.872C125.301 16.1893 125.461 15.6133 125.781 15.144C126.101 14.664 126.549 14.3013 127.125 14.056C127.701 13.8107 128.362 13.688 129.109 13.688C129.738 13.688 130.303 13.7787 130.805 13.96C131.317 14.1307 131.749 14.3867 132.101 14.728C132.453 15.0587 132.714 15.4693 132.885 15.96L131.141 16.536C131.077 16.3013 130.949 16.0933 130.757 15.912C130.565 15.72 130.325 15.5707 130.037 15.464C129.759 15.3573 129.455 15.2987 129.125 15.288C128.762 15.2773 128.437 15.3307 128.149 15.448C127.871 15.5653 127.647 15.736 127.477 15.96C127.306 16.1733 127.221 16.424 127.221 16.712C127.221 17.0427 127.317 17.304 127.509 17.496C127.701 17.6773 127.951 17.832 128.261 17.96C128.581 18.0773 128.933 18.2 129.317 18.328C129.765 18.456 130.207 18.6053 130.645 18.776C131.093 18.936 131.498 19.144 131.861 19.4C132.234 19.6453 132.533 19.96 132.757 20.344C132.981 20.728 133.093 21.208 133.093 21.784C133.093 22.4027 132.949 22.9627 132.661 23.464C132.383 23.9653 131.957 24.3653 131.381 24.664C130.805 24.9627 130.09 25.112 129.237 25.112C128.543 25.112 127.909 25.0107 127.333 24.808C126.767 24.5947 126.293 24.296 125.909 23.912C125.535 23.5173 125.29 23.0533 125.173 22.52L126.917 21.928ZM142.613 15.384H136.869V18.536H141.173V20.12H136.869V23.416H142.613V25H134.965V13.8H142.613V15.384ZM153.708 13.8V25H151.772L146.556 16.792V25H144.652V13.8H146.604L151.82 21.976V13.8H153.708ZM155.483 19.4C155.483 18.5573 155.627 17.7893 155.915 17.096C156.213 16.392 156.619 15.7893 157.131 15.288C157.653 14.776 158.256 14.3813 158.939 14.104C159.632 13.8267 160.373 13.688 161.163 13.688C162.261 13.688 163.253 13.9493 164.139 14.472C165.035 14.9947 165.717 15.7467 166.187 16.728L164.635 17.256C164.389 16.7867 164.075 16.408 163.691 16.12C163.307 15.832 162.901 15.624 162.475 15.496C162.048 15.368 161.627 15.304 161.211 15.304C160.485 15.304 159.835 15.4747 159.259 15.816C158.683 16.1467 158.229 16.6213 157.899 17.24C157.579 17.848 157.419 18.568 157.419 19.4C157.419 20.2213 157.579 20.9413 157.899 21.56C158.229 22.168 158.683 22.6427 159.259 22.984C159.835 23.3253 160.485 23.496 161.211 23.496C161.637 23.496 162.069 23.432 162.507 23.304C162.955 23.1653 163.376 22.9307 163.771 22.6C164.176 22.2587 164.512 21.8053 164.779 21.24L166.315 21.736C165.824 22.888 165.125 23.7413 164.219 24.296C163.312 24.84 162.293 25.112 161.163 25.112C160.373 25.112 159.632 24.9733 158.939 24.696C158.256 24.4187 157.653 24.024 157.131 23.512C156.619 23 156.213 22.3973 155.915 21.704C155.627 21 155.483 20.232 155.483 19.4ZM168.246 13.8H170.15V25H168.246V13.8ZM177.344 15.384H176.768L173.408 25H171.456L175.424 13.8H178.656L182.64 25H180.688L177.344 15.384ZM173.632 20.696H180.16V22.264H173.632V20.696Z" fill="white"/>
<path d="M53.816 15.384V15.884H54.316V15.384H53.816ZM48.072 15.384V14.884H47.572V15.384H48.072ZM48.072 18.536H47.572V19.036H48.072V18.536ZM52.376 18.536H52.876V18.036H52.376V18.536ZM52.376 20.12V20.62H52.876V20.12H52.376ZM48.072 20.12V19.62H47.572V20.12H48.072ZM48.072 23.416H47.572V23.916H48.072V23.416ZM53.816 23.416H54.316V22.916H53.816V23.416ZM53.816 25V25.5H54.316V25H53.816ZM46.168 25H45.668V25.5H46.168V25ZM46.168 13.8V13.3H45.668V13.8H46.168ZM53.816 13.8H54.316V13.3H53.816V13.8ZM53.816 14.884H48.072V15.884H53.816V14.884ZM47.572 15.384V18.536H48.572V15.384H47.572ZM48.072 19.036H52.376V18.036H48.072V19.036ZM51.876 18.536V20.12H52.876V18.536H51.876ZM52.376 19.62H48.072V20.62H52.376V19.62ZM47.572 20.12V23.416H48.572V20.12H47.572ZM48.072 23.916H53.816V22.916H48.072V23.916ZM53.316 23.416V25H54.316V23.416H53.316ZM53.816 24.5H46.168V25.5H53.816V24.5ZM46.668 25V13.8H45.668V25H46.668ZM46.168 14.3H53.816V13.3H46.168V14.3ZM53.316 13.8V15.384H54.316V13.8H53.316ZM57.1355 21.928L57.6244 21.8232L57.5067 21.274L56.9748 21.4545L57.1355 21.928ZM57.5035 22.744L57.1014 23.0412L57.1087 23.0511L57.1165 23.0606L57.5035 22.744ZM58.2555 23.304L58.051 23.7603L58.0567 23.7628L58.2555 23.304ZM60.8955 23.048L61.2371 23.4132L61.2432 23.4073L60.8955 23.048ZM61.0715 21.048L60.693 21.3749L60.7015 21.3843L61.0715 21.048ZM60.2075 20.456L59.9996 20.9109L60.0105 20.9156L60.2075 20.456ZM58.9275 19.976L59.0761 19.4985L59.0679 19.4961L58.9275 19.976ZM57.6635 19.576L57.4906 20.0453L57.5017 20.0491L57.6635 19.576ZM56.5595 19.032L56.2728 19.4416L56.2805 19.447L56.2884 19.4521L56.5595 19.032ZM55.7915 18.184L55.3525 18.4234L55.3557 18.4291L55.7915 18.184ZM55.5195 16.872L56.0195 16.8822V16.872H55.5195ZM55.9995 15.144L56.4126 15.4257L56.4155 15.4213L55.9995 15.144ZM61.0235 13.96L60.8534 14.4303L60.8654 14.4343L61.0235 13.96ZM62.3195 14.728L61.9714 15.087L61.9772 15.0924L62.3195 14.728ZM63.1035 15.96L63.2603 16.4348L63.7426 16.2755L63.5757 15.7957L63.1035 15.96ZM61.3595 16.536L60.8771 16.6676L61.0158 17.1761L61.5163 17.0108L61.3595 16.536ZM60.9755 15.912L60.6219 16.2656L60.627 16.2706L60.6322 16.2755L60.9755 15.912ZM60.2555 15.464L60.076 15.9307L60.0818 15.9329L60.2555 15.464ZM59.3435 15.288L59.3596 14.7883L59.3582 14.7882L59.3435 15.288ZM58.3675 15.448L58.1788 14.9849L58.1727 14.9875L58.3675 15.448ZM57.6955 15.96L58.086 16.2724L58.0932 16.263L57.6955 15.96ZM57.7275 17.496L57.3739 17.8496L57.379 17.8546L57.3842 17.8595L57.7275 17.496ZM58.4795 17.96L58.2883 18.422L58.2978 18.4259L58.3074 18.4294L58.4795 17.96ZM59.5355 18.328L59.3774 18.8023L59.3877 18.8058L59.3981 18.8088L59.5355 18.328ZM60.8635 18.776L60.6817 19.2418L60.6885 19.2444L60.6953 19.2469L60.8635 18.776ZM62.0795 19.4L61.7912 19.8085L61.798 19.8133L61.8049 19.8179L62.0795 19.4ZM62.9755 20.344L62.5436 20.5959V20.5959L62.9755 20.344ZM62.8795 23.464L62.4459 23.2149L62.442 23.222L62.8795 23.464ZM61.5995 24.664L61.3693 24.2201L61.5995 24.664ZM57.5515 24.808L57.3749 25.2759L57.3855 25.2797L57.5515 24.808ZM56.1275 23.912L55.7641 24.2557L55.7739 24.2656L56.1275 23.912ZM55.3915 22.52L55.2308 22.0465L54.807 22.1904L54.9032 22.6274L55.3915 22.52ZM56.6466 22.0328C56.7255 22.4009 56.8777 22.7386 57.1014 23.0412L57.9056 22.4468C57.7666 22.2588 57.6735 22.0524 57.6244 21.8232L56.6466 22.0328ZM57.1165 23.0606C57.3632 23.3621 57.6793 23.5936 58.051 23.7603L58.46 22.8477C58.2131 22.737 58.0278 22.5952 57.8905 22.4274L57.1165 23.0606ZM58.0567 23.7628C58.4532 23.9346 58.9026 24.012 59.3915 24.012V23.012C59.0058 23.012 58.6978 22.9507 58.4543 22.8452L58.0567 23.7628ZM59.3915 24.012C60.13 24.012 60.7775 23.843 61.2371 23.4131L60.5539 22.6829C60.3521 22.8716 59.997 23.012 59.3915 23.012V24.012ZM61.2432 23.4073C61.6627 23.0013 61.8915 22.5015 61.8915 21.928H60.8915C60.8915 22.2078 60.7896 22.4547 60.5478 22.6887L61.2432 23.4073ZM61.8915 21.928C61.8915 21.4664 61.7479 21.0487 61.4415 20.7117L60.7015 21.3843C60.8218 21.5166 60.8915 21.6856 60.8915 21.928H61.8915ZM61.4499 20.7212C61.1847 20.4141 60.8268 20.1774 60.4045 19.9964L60.0105 20.9156C60.3349 21.0546 60.553 21.2125 60.6931 21.3748L61.4499 20.7212ZM60.4154 20.0013C60.0191 19.8201 59.572 19.6529 59.076 19.4986L58.779 20.4534C59.243 20.5978 59.6493 20.7506 59.9996 20.9107L60.4154 20.0013ZM59.0679 19.4961C58.6373 19.3701 58.2232 19.239 57.8253 19.1029L57.5017 20.0491C57.9145 20.1903 58.343 20.3259 58.7871 20.4559L59.0679 19.4961ZM57.8364 19.1068C57.4621 18.969 57.1276 18.8035 56.8306 18.6119L56.2884 19.4521C56.6528 19.6872 57.0542 19.8844 57.4906 20.0452L57.8364 19.1068ZM56.8462 18.6224C56.5878 18.4415 56.3827 18.2151 56.2273 17.9389L55.3557 18.4291C55.5843 18.8356 55.8912 19.1745 56.2728 19.4416L56.8462 18.6224ZM56.2304 17.9446C56.091 17.6889 56.01 17.3435 56.0194 16.8822L55.0196 16.8618C55.0077 17.4458 55.108 17.9751 55.3526 18.4234L56.2304 17.9446ZM56.0195 16.872C56.0195 16.2692 56.1598 15.7964 56.4126 15.4257L55.5864 14.8623C55.1992 15.4302 55.0195 16.1095 55.0195 16.872H56.0195ZM56.4155 15.4213C56.6769 15.0293 57.045 14.7266 57.5394 14.516L57.1476 13.596C56.49 13.8761 55.9621 14.2987 55.5835 14.8666L56.4155 15.4213ZM57.5394 14.516C58.0428 14.3016 58.6354 14.188 59.3275 14.188V13.188C58.5262 13.188 57.7962 13.3197 57.1476 13.596L57.5394 14.516ZM59.3275 14.188C59.9091 14.188 60.4155 14.2718 60.8534 14.4302L61.1936 13.4898C60.6289 13.2856 60.0046 13.188 59.3275 13.188V14.188ZM60.8654 14.4343C61.3135 14.5837 61.6785 14.8029 61.9714 15.0869L62.6676 14.369C62.2565 13.9704 61.7575 13.6776 61.1816 13.4857L60.8654 14.4343ZM61.9772 15.0924C62.2659 15.3637 62.485 15.7039 62.6313 16.1243L63.5757 15.7957C63.3806 15.2348 63.0771 14.7536 62.6618 14.3636L61.9772 15.0924ZM62.9467 15.4852L61.2027 16.0612L61.5163 17.0108L63.2603 16.4348L62.9467 15.4852ZM61.8419 16.4044C61.7517 16.0736 61.5717 15.7873 61.3188 15.5485L60.6322 16.2755C60.7633 16.3994 60.8393 16.5291 60.8771 16.6676L61.8419 16.4044ZM61.3291 15.5584C61.0798 15.3092 60.7759 15.1235 60.4292 14.9951L60.0818 15.9329C60.3111 16.0178 60.4872 16.1308 60.6219 16.2656L61.3291 15.5584ZM60.435 14.9973C60.0999 14.8684 59.7399 14.8005 59.3596 14.7883L59.3274 15.7877C59.6084 15.7968 59.8565 15.8462 60.076 15.9307L60.435 14.9973ZM59.3582 14.7882C58.9374 14.7758 58.5412 14.8373 58.1789 14.985L58.5561 15.911C58.7698 15.824 59.0242 15.7788 59.3288 15.7878L59.3582 14.7882ZM58.1727 14.9875C57.8209 15.1363 57.5249 15.3589 57.2978 15.657L58.0932 16.263C58.2075 16.1131 58.3594 15.9943 58.5623 15.9085L58.1727 14.9875ZM57.3051 15.6477C57.0594 15.9547 56.9395 16.3171 56.9395 16.712H57.9395C57.9395 16.5309 57.9902 16.392 58.0859 16.2723L57.3051 15.6477ZM56.9395 16.712C56.9395 17.1445 57.0685 17.5441 57.3739 17.8496L58.0811 17.1424C58.0025 17.0639 57.9395 16.9408 57.9395 16.712H56.9395ZM57.3842 17.8595C57.6306 18.0922 57.9371 18.2767 58.2883 18.422L58.6707 17.498C58.4032 17.3873 58.2084 17.2625 58.0708 17.1325L57.3842 17.8595ZM58.3074 18.4294C58.6328 18.5488 58.9895 18.6731 59.3774 18.8023L59.6936 17.8537C59.3135 17.7269 58.9662 17.6059 58.6516 17.4906L58.3074 18.4294ZM59.3981 18.8088C59.831 18.9324 60.2588 19.0768 60.6817 19.2418L61.0453 18.3102C60.5935 18.1339 60.136 17.9796 59.6729 17.8472L59.3981 18.8088ZM60.6953 19.2469C61.1037 19.3927 61.4681 19.5804 61.7912 19.8085L62.3678 18.9915C61.9656 18.7076 61.5193 18.4793 61.0317 18.3051L60.6953 19.2469ZM61.8049 19.8179C62.114 20.021 62.3587 20.279 62.5436 20.5959L63.4074 20.0921C63.1443 19.641 62.7916 19.2697 62.3541 18.9821L61.8049 19.8179ZM62.5436 20.5959C62.7117 20.884 62.8115 21.2709 62.8115 21.784H63.8115C63.8115 21.1451 63.6873 20.572 63.4074 20.0921L62.5436 20.5959ZM62.8115 21.784C62.8115 22.3216 62.6874 22.7947 62.4459 23.2149L63.3131 23.7131C63.6476 23.1306 63.8115 22.4837 63.8115 21.784H62.8115ZM62.442 23.222C62.2185 23.626 61.8698 23.9606 61.3693 24.2201L61.8297 25.1079C62.4812 24.77 62.9858 24.3047 63.317 23.706L62.442 23.222ZM61.3693 24.2201C60.8833 24.4721 60.253 24.612 59.4555 24.612V25.612C60.3646 25.612 61.1637 25.4532 61.8297 25.1079L61.3693 24.2201ZM59.4555 24.612C58.8111 24.612 58.2334 24.5179 57.7175 24.3363L57.3855 25.2797C58.0216 25.5034 58.7132 25.612 59.4555 25.612V24.612ZM57.728 24.3402C57.2216 24.1491 56.8094 23.8868 56.4811 23.5584L55.7739 24.2656C56.2136 24.7052 56.7507 25.0402 57.375 25.2758L57.728 24.3402ZM56.4907 23.5684C56.1801 23.24 55.9778 22.8578 55.8798 22.4126L54.9032 22.6274C55.0399 23.2489 55.3282 23.7947 55.7643 24.2556L56.4907 23.5684ZM55.5522 22.9935L57.2962 22.4015L56.9748 21.4545L55.2308 22.0465L55.5522 22.9935ZM73.6476 17.288L73.2115 17.5325L73.4171 17.8994L73.8138 17.7596L73.6476 17.288ZM72.1916 15.768L72.4282 15.3275L72.1916 15.768ZM68.4156 15.832L68.6705 16.2622L68.6729 16.2607L68.4156 15.832ZM67.0396 17.272L66.6018 17.0305L66.6004 17.0331L67.0396 17.272ZM67.0396 21.544L66.5986 21.7797L66.6004 21.7829L67.0396 21.544ZM68.3836 22.984L68.1193 23.4086L68.1287 23.4141L68.3836 22.984ZM71.7116 23.24L71.8934 23.7058L71.7116 23.24ZM72.8636 22.536L73.1988 22.9071L73.2052 22.9011L72.8636 22.536ZM73.6476 21.48L74.0972 21.6987L74.1476 21.5952V21.48H73.6476ZM73.6476 20.36H74.1476V19.86H73.6476V20.36ZM70.4316 20.36H69.9316V20.86H70.4316V20.36ZM70.4316 18.808V18.308H69.9316V18.808H70.4316ZM75.5516 18.808H76.0516V18.308H75.5516V18.808ZM75.5516 21.592L76.0179 21.7725L76.0516 21.6854V21.592H75.5516ZM74.3996 23.384L74.0389 23.0377L74.0353 23.0415L74.3996 23.384ZM72.5916 24.648L72.3905 24.1902L72.3879 24.1914L72.5916 24.648ZM68.0636 24.696L67.8754 25.1592L67.8779 25.1602L68.0636 24.696ZM66.2556 23.528L65.902 23.8816L65.9095 23.8888L66.2556 23.528ZM65.0396 21.72L64.5768 21.9093L64.5804 21.9178L65.0396 21.72ZM65.0396 17.112L64.5793 16.9167L64.5779 16.9202L65.0396 17.112ZM66.2556 15.288L65.9057 14.9308L65.9021 14.9344L66.2556 15.288ZM68.0636 14.104L67.8779 13.6398L67.8754 13.6408L68.0636 14.104ZM72.3516 14.04L72.1844 14.5113L72.1912 14.5136L72.3516 14.04ZM75.3276 16.696L75.4938 17.1676L75.9966 16.9904L75.7876 16.5L75.3276 16.696ZM74.0838 17.0435C73.6535 16.276 73.1057 15.6914 72.4282 15.3275L71.9551 16.2085C72.4295 16.4633 72.8524 16.892 73.2115 17.5325L74.0838 17.0435ZM72.4282 15.3275C71.7798 14.9793 71.0853 14.804 70.3516 14.804V15.804C70.9193 15.804 71.4514 15.938 71.9551 16.2085L72.4282 15.3275ZM70.3516 14.804C69.5598 14.804 68.8251 15.0032 68.1584 15.4033L68.6729 16.2607C69.1795 15.9568 69.7355 15.804 70.3516 15.804V14.804ZM68.1607 15.4019C67.5037 15.7912 66.9838 16.3382 66.6018 17.0305L67.4774 17.5135C67.7782 16.9684 68.1755 16.5555 68.6705 16.2621L68.1607 15.4019ZM66.6004 17.0331C66.2235 17.7261 66.0436 18.5202 66.0436 19.4H67.0436C67.0436 18.6584 67.1944 18.0339 67.4789 17.5109L66.6004 17.0331ZM66.0436 19.4C66.0436 20.28 66.2236 21.0779 66.5987 21.7797L67.4806 21.3083C67.1943 20.7727 67.0436 20.1413 67.0436 19.4H66.0436ZM66.6004 21.7829C66.9707 22.4637 67.4777 23.0089 68.1193 23.4084L68.6479 22.5596C68.1589 22.2551 67.7699 21.8403 67.4789 21.3051L66.6004 21.7829ZM68.1287 23.4141C68.7859 23.8036 69.5147 23.996 70.3036 23.996V22.996C69.6845 22.996 69.1333 22.8471 68.6385 22.5539L68.1287 23.4141ZM70.3036 23.996C70.8629 23.996 71.3943 23.9006 71.8934 23.7058L71.5299 22.7742C71.1543 22.9208 70.747 22.996 70.3036 22.996V23.996ZM71.8934 23.7058C72.3841 23.5143 72.8208 23.2485 73.1988 22.9071L72.5285 22.1649C72.2452 22.4209 71.9138 22.6244 71.5299 22.7742L71.8934 23.7058ZM73.2052 22.9011C73.5791 22.5514 73.8776 22.1501 74.0972 21.6987L73.198 21.2613C73.0336 21.5992 72.8095 21.902 72.522 22.1709L73.2052 22.9011ZM74.1476 21.48V20.36H73.1476V21.48H74.1476ZM73.6476 19.86H70.4316V20.86H73.6476V19.86ZM70.9316 20.36V18.808H69.9316V20.36H70.9316ZM70.4316 19.308H75.5516V18.308H70.4316V19.308ZM75.0516 18.808V21.592H76.0516V18.808H75.0516ZM75.0853 21.4115C74.8542 22.0085 74.5071 22.5501 74.0389 23.0377L74.7603 23.7303C75.3162 23.1513 75.737 22.4981 76.0179 21.7725L75.0853 21.4115ZM74.0353 23.0415C73.5824 23.5234 73.0361 23.9066 72.3905 24.1902L72.7928 25.1058C73.5552 24.7708 74.2142 24.3113 74.7639 23.7265L74.0353 23.0415ZM72.3879 24.1914C71.7654 24.4691 71.0679 24.612 70.2876 24.612V25.612C71.1927 25.612 72.0312 25.4456 72.7953 25.1046L72.3879 24.1914ZM70.2876 24.612C69.5582 24.612 68.8803 24.4841 68.2493 24.2318L67.8779 25.1602C68.6336 25.4625 69.4384 25.612 70.2876 25.612V24.612ZM68.2518 24.2328C67.6268 23.9788 67.0779 23.6239 66.6017 23.1672L65.9095 23.8888C66.4787 24.4348 67.1352 24.8585 67.8754 25.1592L68.2518 24.2328ZM66.6092 23.1744C66.1438 22.7091 65.7735 22.1599 65.4988 21.5222L64.5804 21.9178C64.903 22.6668 65.3434 23.3229 65.9021 23.8816L66.6092 23.1744ZM65.5024 21.5307C65.2415 20.8929 65.1076 20.1848 65.1076 19.4H64.1076C64.1076 20.3006 64.2617 21.1391 64.5769 21.9093L65.5024 21.5307ZM65.1076 19.4C65.1076 18.6267 65.2412 17.9301 65.5014 17.3038L64.5779 16.9202C64.262 17.6806 64.1076 18.5093 64.1076 19.4H65.1076ZM65.4999 17.3073C65.7749 16.659 66.1451 16.1056 66.6092 15.6416L65.9021 14.9344C65.3421 15.4944 64.9017 16.157 64.5793 16.9167L65.4999 17.3073ZM66.6055 15.6452C67.0814 15.179 67.629 14.8203 68.2518 14.5672L67.8754 13.6408C67.1329 13.9424 66.4752 14.373 65.9057 14.9308L66.6055 15.6452ZM68.2493 14.5682C68.8803 14.3159 69.5582 14.188 70.2876 14.188V13.188C69.4384 13.188 68.6336 13.3375 67.8779 13.6398L68.2493 14.5682ZM70.2876 14.188C70.9464 14.188 71.5778 14.296 72.1844 14.5112L72.5188 13.5688C71.8028 13.3147 71.0582 13.188 70.2876 13.188V14.188ZM72.1912 14.5136C72.7929 14.7174 73.3288 15.0218 73.8022 15.4276L74.453 14.6684C73.8812 14.1782 73.233 13.8106 72.512 13.5664L72.1912 14.5136ZM73.8022 15.4276C74.2649 15.8242 74.6196 16.3101 74.8677 16.892L75.7876 16.5C75.481 15.7806 75.0357 15.1678 74.453 14.6684L73.8022 15.4276ZM75.1614 16.2244L73.4815 16.8164L73.8138 17.7596L75.4938 17.1676L75.1614 16.2244ZM77.4336 13.8V13.3H76.9336V13.8H77.4336ZM79.3376 13.8H79.8376V13.3H79.3376V13.8ZM79.3376 25V25.5H79.8376V25H79.3376ZM77.4336 25H76.9336V25.5H77.4336V25ZM77.4336 14.3H79.3376V13.3H77.4336V14.3ZM78.8376 13.8V25H79.8376V13.8H78.8376ZM79.3376 24.5H77.4336V25.5H79.3376V24.5ZM77.9336 25V13.8H76.9336V25H77.9336ZM82.9636 21.928L83.4525 21.8232L83.3348 21.274L82.8029 21.4545L82.9636 21.928ZM83.3316 22.744L82.9295 23.0412L82.9369 23.0511L82.9446 23.0606L83.3316 22.744ZM84.0836 23.304L83.8791 23.7603L83.8848 23.7628L84.0836 23.304ZM86.7236 23.048L87.0653 23.4132L87.0713 23.4073L86.7236 23.048ZM86.8996 21.048L86.5211 21.3749L86.5297 21.3843L86.8996 21.048ZM86.0356 20.456L85.8277 20.9109L85.8387 20.9156L86.0356 20.456ZM84.7556 19.976L84.9042 19.4985L84.8961 19.4961L84.7556 19.976ZM83.4916 19.576L83.3187 20.0453L83.3298 20.0491L83.4916 19.576ZM82.3876 19.032L82.1009 19.4416L82.1086 19.447L82.1166 19.4521L82.3876 19.032ZM81.6196 18.184L81.1806 18.4234L81.1838 18.4291L81.6196 18.184ZM81.3476 16.872L81.8476 16.8822V16.872H81.3476ZM81.8276 15.144L82.2408 15.4257L82.2436 15.4213L81.8276 15.144ZM86.8516 13.96L86.6815 14.4303L86.6935 14.4343L86.8516 13.96ZM88.1476 14.728L87.7995 15.087L87.8053 15.0924L88.1476 14.728ZM88.9316 15.96L89.0884 16.4348L89.5707 16.2755L89.4039 15.7957L88.9316 15.96ZM87.1876 16.536L86.7052 16.6676L86.8439 17.1761L87.3444 17.0108L87.1876 16.536ZM86.8036 15.912L86.4501 16.2656L86.4551 16.2706L86.4603 16.2755L86.8036 15.912ZM86.0836 15.464L85.9041 15.9307L85.91 15.9329L86.0836 15.464ZM85.1716 15.288L85.1877 14.7883L85.1863 14.7882L85.1716 15.288ZM84.1956 15.448L84.007 14.9849L84.0008 14.9875L84.1956 15.448ZM83.5236 15.96L83.9142 16.2724L83.9213 16.263L83.5236 15.96ZM83.5556 17.496L83.2021 17.8496L83.2071 17.8546L83.2123 17.8595L83.5556 17.496ZM84.3076 17.96L84.1165 18.422L84.1259 18.4259L84.1355 18.4294L84.3076 17.96ZM85.3636 18.328L85.2055 18.8023L85.2158 18.8058L85.2263 18.8088L85.3636 18.328ZM86.6916 18.776L86.5099 19.2418L86.5166 19.2444L86.5235 19.2469L86.6916 18.776ZM87.9076 19.4L87.6193 19.8085L87.6261 19.8133L87.633 19.8179L87.9076 19.4ZM88.8036 20.344L88.3717 20.5959V20.5959L88.8036 20.344ZM88.7076 23.464L88.274 23.2149L88.2701 23.222L88.7076 23.464ZM87.4276 24.664L87.1975 24.2201L87.4276 24.664ZM83.3796 24.808L83.2031 25.2759L83.2137 25.2797L83.3796 24.808ZM81.9556 23.912L81.5923 24.2557L81.6021 24.2656L81.9556 23.912ZM81.2196 22.52L81.0589 22.0465L80.6352 22.1904L80.7313 22.6274L81.2196 22.52ZM82.4747 22.0328C82.5536 22.4009 82.7058 22.7386 82.9295 23.0412L83.7337 22.4468C83.5947 22.2588 83.5016 22.0524 83.4525 21.8232L82.4747 22.0328ZM82.9446 23.0606C83.1913 23.3621 83.5074 23.5936 83.8791 23.7603L84.2882 22.8477C84.0412 22.737 83.8559 22.5952 83.7186 22.4274L82.9446 23.0606ZM83.8848 23.7628C84.2813 23.9346 84.7307 24.012 85.2196 24.012V23.012C84.8339 23.012 84.5259 22.9507 84.2824 22.8452L83.8848 23.7628ZM85.2196 24.012C85.9581 24.012 86.6057 23.843 87.0652 23.4131L86.382 22.6829C86.1803 22.8716 85.8251 23.012 85.2196 23.012V24.012ZM87.0713 23.4073C87.4909 23.0013 87.7196 22.5015 87.7196 21.928H86.7196C86.7196 22.2078 86.6177 22.4547 86.3759 22.6887L87.0713 23.4073ZM87.7196 21.928C87.7196 21.4664 87.576 21.0487 87.2696 20.7117L86.5297 21.3843C86.6499 21.5166 86.7196 21.6856 86.7196 21.928H87.7196ZM87.278 20.7212C87.0128 20.4141 86.6549 20.1774 86.2326 19.9964L85.8387 20.9156C86.163 21.0546 86.3811 21.2125 86.5212 21.3748L87.278 20.7212ZM86.2435 20.0013C85.8472 19.8201 85.4001 19.6529 84.9042 19.4986L84.6071 20.4534C85.0712 20.5978 85.4774 20.7506 85.8277 20.9107L86.2435 20.0013ZM84.8961 19.4961C84.4655 19.3701 84.0513 19.239 83.6535 19.1029L83.3298 20.0491C83.7426 20.1903 84.1711 20.3259 84.6152 20.4559L84.8961 19.4961ZM83.6645 19.1068C83.2903 18.969 82.9557 18.8035 82.6587 18.6119L82.1166 19.4521C82.4809 19.6872 82.8823 19.8844 83.3188 20.0452L83.6645 19.1068ZM82.6744 18.6224C82.4159 18.4415 82.2108 18.2151 82.0554 17.9389L81.1838 18.4291C81.4125 18.8356 81.7193 19.1745 82.1009 19.4416L82.6744 18.6224ZM82.0586 17.9446C81.9191 17.6889 81.8381 17.3435 81.8475 16.8822L80.8477 16.8618C80.8358 17.4458 80.9361 17.9751 81.1807 18.4234L82.0586 17.9446ZM81.8476 16.872C81.8476 16.2692 81.9879 15.7964 82.2407 15.4257L81.4145 14.8623C81.0273 15.4302 80.8476 16.1095 80.8476 16.872H81.8476ZM82.2436 15.4213C82.505 15.0293 82.8732 14.7266 83.3676 14.516L82.9757 13.596C82.3181 13.8761 81.7902 14.2987 81.4116 14.8666L82.2436 15.4213ZM83.3676 14.516C83.8709 14.3016 84.4636 14.188 85.1556 14.188V13.188C84.3544 13.188 83.6244 13.3197 82.9757 13.596L83.3676 14.516ZM85.1556 14.188C85.7372 14.188 86.2436 14.2718 86.6816 14.4302L87.0217 13.4898C86.457 13.2856 85.8327 13.188 85.1556 13.188V14.188ZM86.6935 14.4343C87.1416 14.5837 87.5066 14.8029 87.7996 15.0869L88.4957 14.369C88.0846 13.9704 87.5857 13.6776 87.0097 13.4857L86.6935 14.4343ZM87.8053 15.0924C88.0941 15.3637 88.3132 15.7039 88.4594 16.1243L89.4039 15.7957C89.2088 15.2348 88.9052 14.7536 88.49 14.3636L87.8053 15.0924ZM88.7748 15.4852L87.0308 16.0612L87.3444 17.0108L89.0884 16.4348L88.7748 15.4852ZM87.67 16.4044C87.5798 16.0736 87.3998 15.7873 87.1469 15.5485L86.4603 16.2755C86.5915 16.3994 86.6675 16.5291 86.7052 16.6676L87.67 16.4044ZM87.1572 15.5584C86.9079 15.3092 86.604 15.1235 86.2573 14.9951L85.91 15.9329C86.1393 16.0178 86.3153 16.1308 86.4501 16.2656L87.1572 15.5584ZM86.2631 14.9973C85.928 14.8684 85.568 14.8005 85.1877 14.7883L85.1555 15.7877C85.4365 15.7968 85.6846 15.8462 85.9041 15.9307L86.2631 14.9973ZM85.1863 14.7882C84.7655 14.7758 84.3693 14.8373 84.007 14.985L84.3843 15.911C84.5979 15.824 84.8524 15.7788 85.1569 15.7878L85.1863 14.7882ZM84.0008 14.9875C83.649 15.1363 83.353 15.3589 83.1259 15.657L83.9213 16.263C84.0356 16.1131 84.1875 15.9943 84.3904 15.9085L84.0008 14.9875ZM83.1332 15.6477C82.8876 15.9547 82.7676 16.3171 82.7676 16.712H83.7676C83.7676 16.5309 83.8183 16.392 83.9141 16.2723L83.1332 15.6477ZM82.7676 16.712C82.7676 17.1445 82.8966 17.5441 83.2021 17.8496L83.9092 17.1424C83.8307 17.0639 83.7676 16.9408 83.7676 16.712H82.7676ZM83.2123 17.8595C83.4587 18.0922 83.7653 18.2767 84.1165 18.422L84.4988 17.498C84.2313 17.3873 84.0366 17.2625 83.8989 17.1325L83.2123 17.8595ZM84.1355 18.4294C84.4609 18.5488 84.8177 18.6731 85.2055 18.8023L85.5217 17.8537C85.1416 17.7269 84.7943 17.6059 84.4798 17.4906L84.1355 18.4294ZM85.2263 18.8088C85.6591 18.9324 86.087 19.0768 86.5099 19.2418L86.8734 18.3102C86.4216 18.1339 85.9641 17.9796 85.501 17.8472L85.2263 18.8088ZM86.5235 19.2469C86.9318 19.3927 87.2962 19.5804 87.6193 19.8085L88.196 18.9915C87.7937 18.7076 87.3475 18.4793 86.8598 18.3051L86.5235 19.2469ZM87.633 19.8179C87.9422 20.021 88.1868 20.279 88.3717 20.5959L89.2355 20.0921C88.9724 19.641 88.6198 19.2697 88.1822 18.9821L87.633 19.8179ZM88.3717 20.5959C88.5398 20.884 88.6396 21.2709 88.6396 21.784H89.6396C89.6396 21.1451 89.5154 20.572 89.2355 20.0921L88.3717 20.5959ZM88.6396 21.784C88.6396 22.3216 88.5155 22.7947 88.2741 23.2149L89.1412 23.7131C89.4758 23.1306 89.6396 22.4837 89.6396 21.784H88.6396ZM88.2701 23.222C88.0466 23.626 87.6979 23.9606 87.1975 24.2201L87.6578 25.1079C88.3093 24.77 88.814 24.3047 89.1451 23.706L88.2701 23.222ZM87.1975 24.2201C86.7114 24.4721 86.0812 24.612 85.2836 24.612V25.612C86.1927 25.612 86.9918 25.4532 87.6578 25.1079L87.1975 24.2201ZM85.2836 24.612C84.6393 24.612 84.0616 24.5179 83.5456 24.3363L83.2137 25.2797C83.8497 25.5034 84.5413 25.612 85.2836 25.612V24.612ZM83.5562 24.3402C83.0497 24.1491 82.6376 23.8868 82.3092 23.5584L81.6021 24.2656C82.0417 24.7052 82.5788 25.0402 83.2031 25.2758L83.5562 24.3402ZM82.3189 23.5684C82.0082 23.24 81.8059 22.8578 81.7079 22.4126L80.7313 22.6274C80.868 23.2489 81.1564 23.7947 81.5924 24.2556L82.3189 23.5684ZM81.3803 22.9935L83.1243 22.4015L82.8029 21.4545L81.0589 22.0465L81.3803 22.9935ZM101.016 18.776L101.233 19.2266L101.24 19.2232L101.016 18.776ZM101.688 18.152L102.124 18.3963L102.128 18.389L101.688 18.152ZM101.416 15.864L101.068 16.2234L101.075 16.2291L101.416 15.864ZM97.4001 15.384V14.884H96.9001V15.384H97.4001ZM97.4001 18.984H96.9001V19.484H97.4001V18.984ZM103.624 18.376L103.152 18.2103L103.624 18.376ZM102.952 19.48L103.317 19.8216L103.323 19.8158L102.952 19.48ZM101.72 20.28L101.899 20.747L101.904 20.7449L101.72 20.28ZM97.4001 20.568V20.068H96.9001V20.568H97.4001ZM97.4001 25V25.5H97.9001V25H97.4001ZM95.4961 25H94.9961V25.5H95.4961V25ZM95.4961 13.8V13.3H94.9961V13.8H95.4961ZM102.088 14.264L101.852 14.7046L101.861 14.7096L102.088 14.264ZM103.4 15.496L102.962 15.7373L102.964 15.7411L103.4 15.496ZM99.8801 19.484C100.392 19.484 100.853 19.4094 101.233 19.2265L100.799 18.3255C100.603 18.42 100.307 18.484 99.8801 18.484V19.484ZM101.24 19.2232C101.619 19.0334 101.922 18.7585 102.124 18.3963L101.252 17.9077C101.156 18.0789 101.01 18.2199 100.793 18.3288L101.24 19.2232ZM102.128 18.389C102.324 18.0265 102.412 17.6168 102.412 17.176H101.412C101.412 17.4819 101.351 17.7229 101.248 17.9149L102.128 18.389ZM102.412 17.176C102.412 16.509 102.213 15.9252 101.758 15.4989L101.075 16.2291C101.28 16.4215 101.412 16.7123 101.412 17.176H102.412ZM101.764 15.5047C101.302 15.0578 100.639 14.884 99.8801 14.884V15.884C100.508 15.884 100.869 16.0302 101.068 16.2233L101.764 15.5047ZM99.8801 14.884H97.4001V15.884H99.8801V14.884ZM96.9001 15.384V18.984H97.9001V15.384H96.9001ZM97.4001 19.484H99.8801V18.484H97.4001V19.484ZM103.332 17.176C103.332 17.5231 103.273 17.8671 103.152 18.2103L104.096 18.5417C104.253 18.0955 104.332 17.6396 104.332 17.176H103.332ZM103.152 18.2103C103.038 18.536 102.851 18.8473 102.582 19.1442L103.323 19.8158C103.672 19.4301 103.933 19.0053 104.096 18.5417L103.152 18.2103ZM102.587 19.1384C102.338 19.4047 101.994 19.6339 101.536 19.8151L101.904 20.7449C102.47 20.5208 102.948 20.2166 103.317 19.8216L102.587 19.1384ZM101.541 19.8131C101.113 19.977 100.564 20.068 99.8801 20.068V21.068C100.646 21.068 101.324 20.967 101.899 20.7469L101.541 19.8131ZM99.8801 20.068H97.4001V21.068H99.8801V20.068ZM96.9001 20.568V25H97.9001V20.568H96.9001ZM97.4001 24.5H95.4961V25.5H97.4001V24.5ZM95.9961 25V13.8H94.9961V25H95.9961ZM95.4961 14.3H99.8801V13.3H95.4961V14.3ZM99.8801 14.3C100.723 14.3 101.37 14.446 101.852 14.7045L102.325 13.8235C101.654 13.4633 100.83 13.3 99.8801 13.3V14.3ZM101.861 14.7096C102.368 14.9677 102.727 15.3113 102.962 15.7373L103.838 15.2547C103.497 14.6354 102.981 14.1576 102.315 13.8184L101.861 14.7096ZM102.964 15.7411C103.209 16.1756 103.332 16.6507 103.332 17.176H104.332C104.332 16.4853 104.168 15.8404 103.836 15.2509L102.964 15.7411ZM111.525 15.864L111.873 15.5047V15.5047L111.525 15.864ZM107.509 15.384V14.884H107.009V15.384H107.509ZM107.509 18.984H107.009V19.484H107.509V18.984ZM111.126 18.776L111.342 19.2266L111.349 19.2232L111.126 18.776ZM111.798 18.152L112.234 18.3963L112.238 18.389L111.798 18.152ZM112.198 14.264L111.961 14.7046L111.971 14.7096L112.198 14.264ZM113.509 15.496L113.072 15.7373L113.074 15.7411L113.509 15.496ZM113.733 18.376L113.262 18.2103L113.733 18.376ZM113.062 19.48L113.427 19.8216L113.432 19.8158L113.062 19.48ZM111.829 20.28L112.008 20.747L112.014 20.7449L111.829 20.28ZM107.509 20.568V20.068H107.009V20.568H107.509ZM107.509 25V25.5H108.009V25H107.509ZM105.605 25H105.105V25.5H105.605V25ZM105.605 13.8V13.3H105.105V13.8H105.605ZM111.126 19.944L111.553 19.6854L111.408 19.444H111.126V19.944ZM114.182 25V25.5H115.068L114.609 24.7414L114.182 25ZM112.037 25L111.605 25.2516L111.75 25.5H112.037V25ZM109.093 19.944V19.444H108.224L108.661 20.1956L109.093 19.944ZM112.521 17.176C112.521 16.5158 112.321 15.9378 111.873 15.5047L111.178 16.2233C111.392 16.4302 111.521 16.7269 111.521 17.176H112.521ZM111.873 15.5047C111.411 15.0578 110.748 14.884 109.99 14.884V15.884C110.618 15.884 110.978 16.0302 111.178 16.2233L111.873 15.5047ZM109.99 14.884H107.509V15.884H109.99V14.884ZM107.009 15.384V18.984H108.009V15.384H107.009ZM107.509 19.484H109.99V18.484H107.509V19.484ZM109.99 19.484C110.502 19.484 110.963 19.4094 111.342 19.2265L110.909 18.3255C110.712 18.42 110.416 18.484 109.99 18.484V19.484ZM111.349 19.2232C111.729 19.0334 112.031 18.7585 112.234 18.3963L111.361 17.9077C111.265 18.0789 111.12 18.2199 110.902 18.3288L111.349 19.2232ZM112.238 18.389C112.433 18.0265 112.521 17.6168 112.521 17.176H111.521C111.521 17.4819 111.461 17.7229 111.357 17.9149L112.238 18.389ZM109.99 14.3C110.832 14.3 111.48 14.446 111.961 14.7045L112.434 13.8235C111.763 13.4633 110.939 13.3 109.99 13.3V14.3ZM111.971 14.7096C112.478 14.9677 112.837 15.3113 113.072 15.7373L113.947 15.2547C113.606 14.6354 113.091 14.1576 112.424 13.8184L111.971 14.7096ZM113.074 15.7411C113.318 16.1756 113.441 16.6507 113.441 17.176H114.441C114.441 16.4853 114.277 15.8404 113.945 15.2509L113.074 15.7411ZM113.441 17.176C113.441 17.5231 113.382 17.8671 113.262 18.2103L114.205 18.5417C114.362 18.0955 114.441 17.6396 114.441 17.176H113.441ZM113.262 18.2103C113.147 18.536 112.96 18.8473 112.691 19.1442L113.432 19.8158C113.782 19.4301 114.042 19.0053 114.205 18.5417L113.262 18.2103ZM112.696 19.1384C112.447 19.4047 112.103 19.6339 111.645 19.8151L112.014 20.7449C112.58 20.5208 113.057 20.2166 113.427 19.8216L112.696 19.1384ZM111.651 19.8131C111.223 19.977 110.674 20.068 109.99 20.068V21.068C110.756 21.068 111.434 20.967 112.008 20.7469L111.651 19.8131ZM109.99 20.068H107.509V21.068H109.99V20.068ZM107.009 20.568V25H108.009V20.568H107.009ZM107.509 24.5H105.605V25.5H107.509V24.5ZM106.105 25V13.8H105.105V25H106.105ZM105.605 14.3H109.99V13.3H105.605V14.3ZM110.698 20.2026L113.754 25.2586L114.609 24.7414L111.553 19.6854L110.698 20.2026ZM114.182 24.5H112.037V25.5H114.182V24.5ZM112.47 24.7484L109.526 19.6924L108.661 20.1956L111.605 25.2516L112.47 24.7484ZM109.093 20.444H111.126V19.444H109.093V20.444ZM123.597 15.384V15.884H124.097V15.384H123.597ZM117.853 15.384V14.884H117.353V15.384H117.853ZM117.853 18.536H117.353V19.036H117.853V18.536ZM122.157 18.536H122.657V18.036H122.157V18.536ZM122.157 20.12V20.62H122.657V20.12H122.157ZM117.853 20.12V19.62H117.353V20.12H117.853ZM117.853 23.416H117.353V23.916H117.853V23.416ZM123.597 23.416H124.097V22.916H123.597V23.416ZM123.597 25V25.5H124.097V25H123.597ZM115.949 25H115.449V25.5H115.949V25ZM115.949 13.8V13.3H115.449V13.8H115.949ZM123.597 13.8H124.097V13.3H123.597V13.8ZM123.597 14.884H117.853V15.884H123.597V14.884ZM117.353 15.384V18.536H118.353V15.384H117.353ZM117.853 19.036H122.157V18.036H117.853V19.036ZM121.657 18.536V20.12H122.657V18.536H121.657ZM122.157 19.62H117.853V20.62H122.157V19.62ZM117.353 20.12V23.416H118.353V20.12H117.353ZM117.853 23.916H123.597V22.916H117.853V23.916ZM123.097 23.416V25H124.097V23.416H123.097ZM123.597 24.5H115.949V25.5H123.597V24.5ZM116.449 25V13.8H115.449V25H116.449ZM115.949 14.3H123.597V13.3H115.949V14.3ZM123.097 13.8V15.384H124.097V13.8H123.097ZM126.917 21.928L127.406 21.8232L127.288 21.274L126.756 21.4545L126.917 21.928ZM127.285 22.744L126.883 23.0412L126.89 23.0511L126.898 23.0606L127.285 22.744ZM128.037 23.304L127.832 23.7603L127.838 23.7628L128.037 23.304ZM130.677 23.048L131.018 23.4132L131.024 23.4073L130.677 23.048ZM130.853 21.048L130.474 21.3749L130.483 21.3843L130.853 21.048ZM129.989 20.456L129.781 20.9109L129.792 20.9156L129.989 20.456ZM128.709 19.976L128.857 19.4985L128.849 19.4961L128.709 19.976ZM127.445 19.576L127.272 20.0453L127.283 20.0491L127.445 19.576ZM126.341 19.032L126.054 19.4416L126.062 19.447L126.07 19.4521L126.341 19.032ZM125.573 18.184L125.134 18.4234L125.137 18.4291L125.573 18.184ZM125.301 16.872L125.801 16.8822V16.872H125.301ZM125.781 15.144L126.194 15.4257L126.197 15.4213L125.781 15.144ZM130.805 13.96L130.635 14.4303L130.647 14.4343L130.805 13.96ZM132.101 14.728L131.753 15.087L131.758 15.0924L132.101 14.728ZM132.885 15.96L133.042 16.4348L133.524 16.2755L133.357 15.7957L132.885 15.96ZM131.141 16.536L130.658 16.6676L130.797 17.1761L131.298 17.0108L131.141 16.536ZM130.757 15.912L130.403 16.2656L130.408 16.2706L130.413 16.2755L130.757 15.912ZM130.037 15.464L129.857 15.9307L129.863 15.9329L130.037 15.464ZM129.125 15.288L129.141 14.7883L129.139 14.7882L129.125 15.288ZM128.149 15.448L127.96 14.9849L127.954 14.9875L128.149 15.448ZM127.477 15.96L127.867 16.2724L127.874 16.263L127.477 15.96ZM127.509 17.496L127.155 17.8496L127.16 17.8546L127.165 17.8595L127.509 17.496ZM128.261 17.96L128.07 18.422L128.079 18.4259L128.089 18.4294L128.261 17.96ZM129.317 18.328L129.159 18.8023L129.169 18.8058L129.179 18.8088L129.317 18.328ZM130.645 18.776L130.463 19.2418L130.47 19.2444L130.477 19.2469L130.645 18.776ZM131.861 19.4L131.572 19.8085L131.579 19.8133L131.586 19.8179L131.861 19.4ZM132.757 20.344L132.325 20.5959V20.5959L132.757 20.344ZM132.661 23.464L132.227 23.2149L132.223 23.222L132.661 23.464ZM131.381 24.664L131.151 24.2201L131.381 24.664ZM127.333 24.808L127.156 25.2759L127.167 25.2797L127.333 24.808ZM125.909 23.912L125.545 24.2557L125.555 24.2656L125.909 23.912ZM125.173 22.52L125.012 22.0465L124.588 22.1904L124.684 22.6274L125.173 22.52ZM126.428 22.0328C126.507 22.4009 126.659 22.7386 126.883 23.0412L127.687 22.4468C127.548 22.2588 127.455 22.0524 127.406 21.8232L126.428 22.0328ZM126.898 23.0606C127.144 23.3621 127.461 23.5936 127.832 23.7603L128.241 22.8477C127.994 22.737 127.809 22.5952 127.672 22.4274L126.898 23.0606ZM127.838 23.7628C128.234 23.9346 128.684 24.012 129.173 24.012V23.012C128.787 23.012 128.479 22.9507 128.236 22.8452L127.838 23.7628ZM129.173 24.012C129.911 24.012 130.559 23.843 131.018 23.4131L130.335 22.6829C130.133 22.8716 129.778 23.012 129.173 23.012V24.012ZM131.024 23.4073C131.444 23.0013 131.673 22.5015 131.673 21.928H130.673C130.673 22.2078 130.571 22.4547 130.329 22.6887L131.024 23.4073ZM131.673 21.928C131.673 21.4664 131.529 21.0487 131.223 20.7117L130.483 21.3843C130.603 21.5166 130.673 21.6856 130.673 21.928H131.673ZM131.231 20.7212C130.966 20.4141 130.608 20.1774 130.186 19.9964L129.792 20.9156C130.116 21.0546 130.334 21.2125 130.474 21.3748L131.231 20.7212ZM130.197 20.0013C129.8 19.8201 129.353 19.6529 128.857 19.4986L128.56 20.4534C129.024 20.5978 129.431 20.7506 129.781 20.9107L130.197 20.0013ZM128.849 19.4961C128.419 19.3701 128.004 19.239 127.607 19.1029L127.283 20.0491C127.696 20.1903 128.124 20.3259 128.568 20.4559L128.849 19.4961ZM127.618 19.1068C127.243 18.969 126.909 18.8035 126.612 18.6119L126.07 19.4521C126.434 19.6872 126.835 19.8844 127.272 20.0452L127.618 19.1068ZM126.627 18.6224C126.369 18.4415 126.164 18.2151 126.009 17.9389L125.137 18.4291C125.366 18.8356 125.672 19.1745 126.054 19.4416L126.627 18.6224ZM126.012 17.9446C125.872 17.6889 125.791 17.3435 125.801 16.8822L124.801 16.8618C124.789 17.4458 124.889 17.9751 125.134 18.4234L126.012 17.9446ZM125.801 16.872C125.801 16.2692 125.941 15.7964 126.194 15.4257L125.368 14.8623C124.98 15.4302 124.801 16.1095 124.801 16.872H125.801ZM126.197 15.4213C126.458 15.0293 126.826 14.7266 127.321 14.516L126.929 13.596C126.271 13.8761 125.743 14.2987 125.365 14.8666L126.197 15.4213ZM127.321 14.516C127.824 14.3016 128.417 14.188 129.109 14.188V13.188C128.307 13.188 127.577 13.3197 126.929 13.596L127.321 14.516ZM129.109 14.188C129.69 14.188 130.197 14.2718 130.635 14.4302L130.975 13.4898C130.41 13.2856 129.786 13.188 129.109 13.188V14.188ZM130.647 14.4343C131.095 14.5837 131.46 14.8029 131.753 15.0869L132.449 14.369C132.038 13.9704 131.539 13.6776 130.963 13.4857L130.647 14.4343ZM131.758 15.0924C132.047 15.3637 132.266 15.7039 132.412 16.1243L133.357 15.7957C133.162 15.2348 132.858 14.7536 132.443 14.3636L131.758 15.0924ZM132.728 15.4852L130.984 16.0612L131.298 17.0108L133.042 16.4348L132.728 15.4852ZM131.623 16.4044C131.533 16.0736 131.353 15.7873 131.1 15.5485L130.413 16.2755C130.545 16.3994 130.621 16.5291 130.658 16.6676L131.623 16.4044ZM131.11 15.5584C130.861 15.3092 130.557 15.1235 130.21 14.9951L129.863 15.9329C130.092 16.0178 130.268 16.1308 130.403 16.2656L131.11 15.5584ZM130.216 14.9973C129.881 14.8684 129.521 14.8005 129.141 14.7883L129.109 15.7877C129.39 15.7968 129.638 15.8462 129.857 15.9307L130.216 14.9973ZM129.139 14.7882C128.719 14.7758 128.322 14.8373 127.96 14.985L128.337 15.911C128.551 15.824 128.805 15.7788 129.11 15.7878L129.139 14.7882ZM127.954 14.9875C127.602 15.1363 127.306 15.3589 127.079 15.657L127.874 16.263C127.989 16.1131 128.141 15.9943 128.344 15.9085L127.954 14.9875ZM127.086 15.6477C126.841 15.9547 126.721 16.3171 126.721 16.712H127.721C127.721 16.5309 127.771 16.392 127.867 16.2723L127.086 15.6477ZM126.721 16.712C126.721 17.1445 126.85 17.5441 127.155 17.8496L127.862 17.1424C127.784 17.0639 127.721 16.9408 127.721 16.712H126.721ZM127.165 17.8595C127.412 18.0922 127.718 18.2767 128.07 18.422L128.452 17.498C128.184 17.3873 127.99 17.2625 127.852 17.1325L127.165 17.8595ZM128.089 18.4294C128.414 18.5488 128.771 18.6731 129.159 18.8023L129.475 17.8537C129.095 17.7269 128.747 17.6059 128.433 17.4906L128.089 18.4294ZM129.179 18.8088C129.612 18.9324 130.04 19.0768 130.463 19.2418L130.827 18.3102C130.375 18.1339 129.917 17.9796 129.454 17.8472L129.179 18.8088ZM130.477 19.2469C130.885 19.3927 131.249 19.5804 131.572 19.8085L132.149 18.9915C131.747 18.7076 131.301 18.4793 130.813 18.3051L130.477 19.2469ZM131.586 19.8179C131.895 20.021 132.14 20.279 132.325 20.5959L133.189 20.0921C132.926 19.641 132.573 19.2697 132.135 18.9821L131.586 19.8179ZM132.325 20.5959C132.493 20.884 132.593 21.2709 132.593 21.784H133.593C133.593 21.1451 133.469 20.572 133.189 20.0921L132.325 20.5959ZM132.593 21.784C132.593 22.3216 132.469 22.7947 132.227 23.2149L133.094 23.7131C133.429 23.1306 133.593 22.4837 133.593 21.784H132.593ZM132.223 23.222C132 23.626 131.651 23.9606 131.151 24.2201L131.611 25.1079C132.262 24.77 132.767 24.3047 133.098 23.706L132.223 23.222ZM131.151 24.2201C130.665 24.4721 130.034 24.612 129.237 24.612V25.612C130.146 25.612 130.945 25.4532 131.611 25.1079L131.151 24.2201ZM129.237 24.612C128.592 24.612 128.015 24.5179 127.499 24.3363L127.167 25.2797C127.803 25.5034 128.494 25.612 129.237 25.612V24.612ZM127.509 24.3402C127.003 24.1491 126.591 23.8868 126.262 23.5584L125.555 24.2656C125.995 24.7052 126.532 25.0402 127.156 25.2758L127.509 24.3402ZM126.272 23.5684C125.961 23.24 125.759 22.8578 125.661 22.4126L124.684 22.6274C124.821 23.2489 125.109 23.7947 125.546 24.2556L126.272 23.5684ZM125.333 22.9935L127.077 22.4015L126.756 21.4545L125.012 22.0465L125.333 22.9935ZM142.613 15.384V15.884H143.113V15.384H142.613ZM136.869 15.384V14.884H136.369V15.384H136.869ZM136.869 18.536H136.369V19.036H136.869V18.536ZM141.173 18.536H141.673V18.036H141.173V18.536ZM141.173 20.12V20.62H141.673V20.12H141.173ZM136.869 20.12V19.62H136.369V20.12H136.869ZM136.869 23.416H136.369V23.916H136.869V23.416ZM142.613 23.416H143.113V22.916H142.613V23.416ZM142.613 25V25.5H143.113V25H142.613ZM134.965 25H134.465V25.5H134.965V25ZM134.965 13.8V13.3H134.465V13.8H134.965ZM142.613 13.8H143.113V13.3H142.613V13.8ZM142.613 14.884H136.869V15.884H142.613V14.884ZM136.369 15.384V18.536H137.369V15.384H136.369ZM136.869 19.036H141.173V18.036H136.869V19.036ZM140.673 18.536V20.12H141.673V18.536H140.673ZM141.173 19.62H136.869V20.62H141.173V19.62ZM136.369 20.12V23.416H137.369V20.12H136.369ZM136.869 23.916H142.613V22.916H136.869V23.916ZM142.113 23.416V25H143.113V23.416H142.113ZM142.613 24.5H134.965V25.5H142.613V24.5ZM135.465 25V13.8H134.465V25H135.465ZM134.965 14.3H142.613V13.3H134.965V14.3ZM142.113 13.8V15.384H143.113V13.8H142.113ZM153.708 13.8H154.208V13.3H153.708V13.8ZM153.708 25V25.5H154.208V25H153.708ZM151.772 25L151.35 25.2682L151.498 25.5H151.772V25ZM146.556 16.792L146.978 16.5238L146.056 15.073V16.792H146.556ZM146.556 25V25.5H147.056V25H146.556ZM144.652 25H144.152V25.5H144.652V25ZM144.652 13.8V13.3H144.152V13.8H144.652ZM146.604 13.8L147.026 13.5311L146.878 13.3H146.604V13.8ZM151.82 21.976L151.399 22.2449L152.32 23.6894V21.976H151.82ZM151.82 13.8V13.3H151.32V13.8H151.82ZM153.208 13.8V25H154.208V13.8H153.208ZM153.708 24.5H151.772V25.5H153.708V24.5ZM152.194 24.7318L146.978 16.5238L146.134 17.0602L151.35 25.2682L152.194 24.7318ZM146.056 16.792V25H147.056V16.792H146.056ZM146.556 24.5H144.652V25.5H146.556V24.5ZM145.152 25V13.8H144.152V25H145.152ZM144.652 14.3H146.604V13.3H144.652V14.3ZM146.183 14.0689L151.399 22.2449L152.242 21.7071L147.026 13.5311L146.183 14.0689ZM152.32 21.976V13.8H151.32V21.976H152.32ZM151.82 14.3H153.708V13.3H151.82V14.3ZM155.915 17.096L155.454 16.9007L155.453 16.9042L155.915 17.096ZM157.131 15.288L157.48 15.6453L157.481 15.6452L157.131 15.288ZM158.939 14.104L158.753 13.6398L158.75 13.6408L158.939 14.104ZM164.139 14.472L163.884 14.9026L163.887 14.9039L164.139 14.472ZM166.187 16.728L166.348 17.2014L166.881 17.0201L166.638 16.5123L166.187 16.728ZM164.635 17.256L164.192 17.4876L164.39 17.8674L164.796 17.7294L164.635 17.256ZM162.475 15.496L162.618 15.0171L162.475 15.496ZM159.259 15.816L159.508 16.2497L159.514 16.2461L159.259 15.816ZM157.899 17.24L157.458 17.0043L157.456 17.0071L157.899 17.24ZM157.899 21.56L157.454 21.7898L157.459 21.7989L157.899 21.56ZM159.259 22.984L159.004 23.4141L159.259 22.984ZM162.507 23.304L162.647 23.7839L162.654 23.7816L162.507 23.304ZM163.771 22.6L164.092 22.9833L164.093 22.9825L163.771 22.6ZM164.779 21.24L164.932 20.7642L164.514 20.6291L164.326 21.0267L164.779 21.24ZM166.315 21.736L166.775 21.9319L166.989 21.4284L166.468 21.2602L166.315 21.736ZM164.219 24.296L164.476 24.7248L164.48 24.7225L164.219 24.296ZM158.939 24.696L158.75 25.1592L158.753 25.1602L158.939 24.696ZM157.131 23.512L156.777 23.8656L156.781 23.8692L157.131 23.512ZM155.915 21.704L155.452 21.8933L155.455 21.9018L155.915 21.704ZM155.983 19.4C155.983 18.6151 156.117 17.9133 156.376 17.2878L155.453 16.9042C155.137 17.6653 154.983 18.4995 154.983 19.4H155.983ZM156.375 17.2913C156.65 16.6439 157.019 16.0974 157.48 15.6453L156.781 14.9307C156.219 15.4813 155.777 16.1401 155.454 16.9007L156.375 17.2913ZM157.481 15.6452C157.956 15.179 158.504 14.8203 159.127 14.5672L158.75 13.6408C158.008 13.9424 157.35 14.373 156.781 14.9308L157.481 15.6452ZM159.124 14.5682C159.755 14.3159 160.433 14.188 161.163 14.188V13.188C160.313 13.188 159.509 13.3375 158.753 13.6398L159.124 14.5682ZM161.163 14.188C162.178 14.188 163.081 14.4285 163.884 14.9026L164.393 14.0414C163.425 13.4702 162.344 13.188 161.163 13.188V14.188ZM163.887 14.9039C164.692 15.3735 165.307 16.0481 165.736 16.9437L166.638 16.5123C166.127 15.4452 165.377 14.6158 164.391 14.0401L163.887 14.9039ZM166.026 16.2546L164.474 16.7826L164.796 17.7294L166.348 17.2014L166.026 16.2546ZM165.078 17.0244C164.801 16.4959 164.44 16.0572 163.991 15.72L163.391 16.52C163.709 16.7588 163.977 17.0775 164.192 17.4876L165.078 17.0244ZM163.991 15.72C163.563 15.3995 163.106 15.1633 162.618 15.0171L162.331 15.9749C162.697 16.0847 163.05 16.2645 163.391 16.52L163.991 15.72ZM162.618 15.0171C162.148 14.8761 161.679 14.804 161.211 14.804V15.804C161.575 15.804 161.948 15.8599 162.331 15.9749L162.618 15.0171ZM161.211 14.804C160.403 14.804 159.663 14.995 159.004 15.3859L159.514 16.2461C160.006 15.9543 160.567 15.804 161.211 15.804V14.804ZM159.01 15.3824C158.348 15.7624 157.83 16.3078 157.458 17.0043L158.34 17.4757C158.629 16.9348 159.018 16.5309 159.508 16.2496L159.01 15.3824ZM157.456 17.0071C157.091 17.7006 156.919 18.5038 156.919 19.4H157.919C157.919 18.6322 158.066 17.9954 158.341 17.4729L157.456 17.0071ZM156.919 19.4C156.919 20.287 157.092 21.0884 157.455 21.7897L158.343 21.3303C158.066 20.7943 157.919 20.1557 157.919 19.4H156.919ZM157.459 21.7989C157.832 22.4833 158.347 23.0252 159.004 23.4141L159.514 22.5539C159.018 22.2601 158.627 21.8527 158.338 21.3211L157.459 21.7989ZM159.004 23.4141C159.663 23.805 160.403 23.996 161.211 23.996V22.996C160.567 22.996 160.006 22.8457 159.514 22.5539L159.004 23.4141ZM161.211 23.996C161.688 23.996 162.167 23.9243 162.647 23.7839L162.366 22.8241C161.971 22.9397 161.587 22.996 161.211 22.996V23.996ZM162.654 23.7816C163.172 23.6215 163.651 23.3524 164.092 22.9833L163.45 22.2167C163.101 22.5089 162.737 22.7092 162.359 22.8264L162.654 23.7816ZM164.093 22.9825C164.562 22.5872 164.939 22.0722 165.231 21.4533L164.326 21.0267C164.085 21.5385 163.79 21.9302 163.449 22.2175L164.093 22.9825ZM164.625 21.7158L166.161 22.2118L166.468 21.2602L164.932 20.7642L164.625 21.7158ZM165.855 21.5401C165.397 22.6139 164.761 23.3783 163.958 23.8695L164.48 24.7225C165.49 24.1044 166.251 23.1621 166.775 21.9319L165.855 21.5401ZM163.961 23.8673C163.138 24.3614 162.209 24.612 161.163 24.612V25.612C162.377 25.612 163.486 25.3186 164.476 24.7247L163.961 23.8673ZM161.163 24.612C160.433 24.612 159.755 24.4841 159.124 24.2318L158.753 25.1602C159.509 25.4625 160.313 25.612 161.163 25.612V24.612ZM159.127 24.2328C158.504 23.9797 157.956 23.621 157.481 23.1548L156.781 23.8692C157.35 24.427 158.008 24.8576 158.75 25.1592L159.127 24.2328ZM157.484 23.1584C157.019 22.6931 156.649 22.1439 156.374 21.5062L155.455 21.9018C155.778 22.6508 156.218 23.3069 156.777 23.8656L157.484 23.1584ZM156.377 21.5147C156.116 20.8762 155.983 20.1732 155.983 19.4H154.983C154.983 20.2908 155.137 21.1238 155.452 21.8933L156.377 21.5147ZM168.246 13.8V13.3H167.746V13.8H168.246ZM170.15 13.8H170.65V13.3H170.15V13.8ZM170.15 25V25.5H170.65V25H170.15ZM168.246 25H167.746V25.5H168.246V25ZM168.246 14.3H170.15V13.3H168.246V14.3ZM169.65 13.8V25H170.65V13.8H169.65ZM170.15 24.5H168.246V25.5H170.15V24.5ZM168.746 25V13.8H167.746V25H168.746ZM177.344 15.384L177.816 15.2198L177.7 14.884H177.344V15.384ZM176.768 15.384V14.884H176.413L176.296 15.2191L176.768 15.384ZM173.408 25V25.5H173.763L173.88 25.1649L173.408 25ZM171.456 25L170.985 24.833L170.749 25.5H171.456V25ZM175.424 13.8V13.3H175.071L174.953 13.633L175.424 13.8ZM178.656 13.8L179.127 13.6324L179.009 13.3H178.656V13.8ZM182.64 25V25.5H183.349L183.111 24.8324L182.64 25ZM180.688 25L180.216 25.1642L180.333 25.5H180.688V25ZM173.632 20.696V20.196H173.132V20.696H173.632ZM180.16 20.696H180.66V20.196H180.16V20.696ZM180.16 22.264V22.764H180.66V22.264H180.16ZM173.632 22.264H173.132V22.764H173.632V22.264ZM177.344 14.884H176.768V15.884H177.344V14.884ZM176.296 15.2191L172.936 24.8351L173.88 25.1649L177.24 15.5489L176.296 15.2191ZM173.408 24.5H171.456V25.5H173.408V24.5ZM171.927 25.167L175.895 13.967L174.953 13.633L170.985 24.833L171.927 25.167ZM175.424 14.3H178.656V13.3H175.424V14.3ZM178.185 13.9676L182.169 25.1676L183.111 24.8324L179.127 13.6324L178.185 13.9676ZM182.64 24.5H180.688V25.5H182.64V24.5ZM181.16 24.8358L177.816 15.2198L176.872 15.5482L180.216 25.1642L181.16 24.8358ZM173.632 21.196H180.16V20.196H173.632V21.196ZM179.66 20.696V22.264H180.66V20.696H179.66ZM180.16 21.764H173.632V22.764H180.16V21.764ZM174.132 22.264V20.696H173.132V22.264H174.132Z" fill="#3C50E0" mask="url(#path-2-outside-1_3443_6089)"/>
<path d="M31.5947 11.258L23.3613 8.0434C23.2146 7.98553 23.052 7.98553 22.9053 8.0434L18.0793 9.92714H23.1333C23.3013 9.92714 23.4624 9.99488 23.5811 10.1154C23.6999 10.236 23.7666 10.3995 23.7666 10.5701C23.7666 10.7406 23.6999 10.9041 23.5811 11.0247C23.4624 11.1452 23.3013 11.213 23.1333 11.213H14.8999C14.7324 11.2145 14.5722 11.2827 14.4538 11.403C14.3353 11.5232 14.2681 11.6858 14.2666 11.8559V21.267L13.1468 22.6311C13.065 22.7308 13.0148 22.8533 13.0028 22.9825C12.9908 23.1117 13.0176 23.2416 13.0797 23.355L14.3464 25.6695C14.4013 25.7697 14.4815 25.8531 14.5788 25.9112C14.6762 25.9694 14.787 26 14.8999 26C15.0128 26 15.1237 25.9694 15.221 25.9112C15.3184 25.8531 15.3986 25.7697 15.4535 25.6695L16.7201 23.355C16.7822 23.2416 16.8091 23.1117 16.7971 22.9825C16.7851 22.8533 16.7349 22.7308 16.6531 22.6311L15.5333 21.267V12.7901L22.9053 15.6684C23.0515 15.7284 23.215 15.7284 23.3613 15.6684L31.5947 12.4538C31.7139 12.4075 31.8165 12.3256 31.8889 12.2188C31.9613 12.112 32 11.9855 32 11.8559C32 11.7263 31.9613 11.5997 31.8889 11.493C31.8165 11.3862 31.7139 11.3043 31.5947 11.258Z" fill="white"/>
<path d="M23.1333 16.9991C22.8996 16.9982 22.6679 16.9546 22.4493 16.8706L17.4333 14.9097V16.9477C17.4331 17.0773 17.4719 17.2039 17.5442 17.3107C17.6166 17.4175 17.7193 17.4994 17.8386 17.5456L22.9053 19.5258C23.0515 19.5858 23.215 19.5858 23.3613 19.5258L28.428 17.5456C28.5473 17.4994 28.65 17.4175 28.7223 17.3107C28.7947 17.2039 28.8334 17.0773 28.8333 16.9477V14.9097L23.8173 16.8706C23.5987 16.9546 23.367 16.9982 23.1333 16.9991Z" fill="white"/>
<g filter="url(#filter0_d_3443_6089)">
<path d="M1.81579 8.15809C1.81579 7.22792 2.56983 6.47388 3.5 6.47388C4.43016 6.47388 5.18421 7.22792 5.18421 8.15809V23.316C5.18421 24.2462 4.43016 25.0002 3.5 25.0002C2.56983 25.0002 1.81579 24.2462 1.81579 23.316V8.15809Z" fill="#3C50E0"/>
</g>
<defs>
<filter id="filter0_d_3443_6089" x="0.815788" y="5.97388" width="5.36842" height="20.5264" filterUnits="userSpaceOnUse" color-interpolation-filters="sRGB">
<feFlood flood-opacity="0" result="BackgroundImageFix"/>
<feColorMatrix in="SourceAlpha" type="matrix" values="0 0 0 0 0 0 0 0 0 0 0 0 0 0 0 0 0 0 127 0" result="hardAlpha"/>
<feOffset dy="0.5"/>
<feGaussianBlur stdDeviation="0.5"/>
<feComposite in2="hardAlpha" operator="out"/>
<feColorMatrix type="matrix" values="0 0 0 0 0 0 0 0 0 0 0 0 0 0 0 0 0 0 0.12 0"/>
<feBlend mode="normal" in2="BackgroundImageFix" result="effect1_dropShadow_3443_6089"/>
<feBlend mode="normal" in="SourceGraphic" in2="effect1_dropShadow_3443_6089" result="shape"/>
</filter>
</defs>
</svg>
