<svg width="22" height="22" viewBox="0 0 22 22" fill="none" xmlns="http://www.w3.org/2000/svg">
<path d="M0.5 5.78947C0.5 2.86818 2.86818 0.5 5.78947 0.5H16.2105C19.1318 0.5 21.5 2.86818 21.5 5.78947V16.2105C21.5 19.1318 19.1318 21.5 16.2105 21.5H5.78947C2.86818 21.5 0.5 19.1318 0.5 16.2105V5.78947Z" stroke="#3C50E0"/>
<path d="M17.2298 11.33C17.3957 11.5138 17.4875 11.7525 17.4875 12C17.4875 12.2475 17.3957 12.4862 17.2298 12.67C16.1798 13.8 13.7898 16 10.9998 16C8.20985 16 5.81985 13.8 4.76985 12.67C4.60401 12.4862 4.51221 12.2475 4.51221 12C4.51221 11.7525 4.60401 11.5138 4.76985 11.33C5.81985 10.2 8.20985 8 10.9998 8C13.7898 8 16.1798 10.2 17.2298 11.33Z" stroke="#3C50E0" stroke-linecap="round" stroke-linejoin="round"/>
<path d="M11 14C12.1046 14 13 13.1046 13 12C13 10.8954 12.1046 10 11 10C9.89543 10 9 10.8954 9 12C9 13.1046 9.89543 14 11 14Z" stroke="#3C50E0" stroke-linecap="round" stroke-linejoin="round"/>
</svg>
