<svg width="14" height="14" viewBox="0 0 14 14" fill="none" xmlns="http://www.w3.org/2000/svg">
<path d="M13.2303 6.33C13.3962 6.51375 13.488 6.75248 13.488 7C13.488 7.24752 13.3962 7.48625 13.2303 7.67C12.1803 8.8 9.79033 11 7.00033 11C4.21033 11 1.82033 8.8 0.770334 7.67C0.604494 7.48625 0.512695 7.24752 0.512695 7C0.512695 6.75248 0.604494 6.51375 0.770334 6.33C1.82033 5.2 4.21033 3 7.00033 3C9.79033 3 12.1803 5.2 13.2303 6.33Z" stroke="#3C50E0" stroke-linecap="round" stroke-linejoin="round"/>
<path d="M7 9C8.10457 9 9 8.10457 9 7C9 5.89543 8.10457 5 7 5C5.89543 5 5 5.89543 5 7C5 8.10457 5.89543 9 7 9Z" stroke="#3C50E0" stroke-linecap="round" stroke-linejoin="round"/>
</svg>
