<svg width="64" height="65" viewBox="0 0 64 65" fill="none" xmlns="http://www.w3.org/2000/svg">
<g filter="url(#filter0_d_3443_6091)">
<path d="M0 15C0 6.71573 6.59791 0 14.7368 0H41.2632C49.4021 0 56 6.71573 56 15V42C56 50.2843 49.4021 57 41.2632 57H14.7368C6.59791 57 0 50.2843 0 42V15Z" fill="#3C50E0"/>
</g>
<path d="M42.3387 19.249L28.9053 14.0699C28.666 13.9767 28.4006 13.9767 28.1613 14.0699L20.2872 17.1048H28.5333C28.8073 17.1048 29.0702 17.214 29.264 17.4082C29.4577 17.6025 29.5666 17.8659 29.5666 18.1406C29.5666 18.4154 29.4577 18.6788 29.264 18.8731C29.0702 19.0673 28.8073 19.1765 28.5333 19.1765H15.0999C14.8266 19.1789 14.5652 19.2888 14.3719 19.4826C14.1787 19.6763 14.069 19.9383 14.0666 20.2123V35.3746L12.2395 37.5724C12.106 37.733 12.0241 37.9304 12.0045 38.1385C11.985 38.3467 12.0288 38.5559 12.1301 38.7386L14.1968 42.4675C14.2863 42.6289 14.4172 42.7634 14.576 42.857C14.7348 42.9506 14.9157 43 15.0999 43C15.2841 43 15.465 42.9506 15.6238 42.857C15.7826 42.7634 15.9135 42.6289 16.003 42.4675L18.0697 38.7386C18.171 38.5559 18.2148 38.3467 18.1952 38.1385C18.1757 37.9304 18.0938 37.733 17.9603 37.5724L16.1332 35.3746V21.7174L28.1613 26.3546C28.3999 26.4513 28.6667 26.4513 28.9053 26.3546L42.3387 21.1756C42.5332 21.101 42.7006 20.9689 42.8187 20.7969C42.9368 20.6249 43 20.4211 43 20.2123C43 20.0035 42.9368 19.7996 42.8187 19.6276C42.7006 19.4556 42.5332 19.3235 42.3387 19.249Z" fill="white"/>
<path d="M28.5333 28.4987C28.1519 28.4972 27.7739 28.427 27.4173 28.2915L19.2333 25.1323V28.4158C19.2331 28.6247 19.2962 28.8287 19.4143 29.0007C19.5324 29.1727 19.6999 29.3047 19.8946 29.3791L28.1613 32.5694C28.3999 32.6661 28.6667 32.6661 28.9053 32.5694L37.172 29.3791C37.3667 29.3047 37.5342 29.1727 37.6523 29.0007C37.7704 28.8287 37.8335 28.6247 37.8333 28.4158V25.1323L29.6493 28.2915C29.2927 28.427 28.9147 28.4972 28.5333 28.4987Z" fill="white"/>
<defs>
<filter id="filter0_d_3443_6091" x="0" y="0" width="64" height="65" filterUnits="userSpaceOnUse" color-interpolation-filters="sRGB">
<feFlood flood-opacity="0" result="BackgroundImageFix"/>
<feColorMatrix in="SourceAlpha" type="matrix" values="0 0 0 0 0 0 0 0 0 0 0 0 0 0 0 0 0 0 127 0" result="hardAlpha"/>
<feOffset dx="4" dy="4"/>
<feGaussianBlur stdDeviation="2"/>
<feComposite in2="hardAlpha" operator="out"/>
<feColorMatrix type="matrix" values="0 0 0 0 1 0 0 0 0 1 0 0 0 0 1 0 0 0 0.25 0"/>
<feBlend mode="normal" in2="BackgroundImageFix" result="effect1_dropShadow_3443_6091"/>
<feBlend mode="normal" in="SourceGraphic" in2="effect1_dropShadow_3443_6091" result="shape"/>
</filter>
</defs>
</svg>
