<svg width="18" height="18" viewBox="0 0 18 18" fill="none" xmlns="http://www.w3.org/2000/svg">
<path d="M13.8462 1H4.15385C3.58281 1.00063 3.03534 1.22472 2.63156 1.6231C2.22777 2.02147 2.00064 2.56161 2 3.125V15.875C2.00064 16.4384 2.22777 16.9785 2.63156 17.3769C3.03534 17.7753 3.58281 17.9994 4.15385 18H13.8462C14.4172 17.9994 14.9647 17.7753 15.3685 17.3769C15.7723 16.9786 15.9994 16.4384 16 15.875V3.125C15.9994 2.5616 15.7723 2.02144 15.3685 1.62305C14.9647 1.22466 14.4172 1.00059 13.8462 1ZM14.9231 15.875C14.9227 16.1567 14.8092 16.4268 14.6073 16.6259C14.4054 16.8251 14.1317 16.9372 13.8462 16.9375H4.15385C3.86832 16.9372 3.59456 16.8252 3.39266 16.626C3.19076 16.4268 3.07721 16.1567 3.07692 15.875V3.125C3.07721 2.84329 3.19076 2.57321 3.39266 2.37401C3.59456 2.17481 3.86832 2.06278 4.15385 2.0625H13.8462C14.1317 2.06282 14.4054 2.17487 14.6073 2.37406C14.8092 2.57324 14.9227 2.84331 14.9231 3.125V15.875Z" fill="#5E5F60"/>
<path d="M13.846 2.59375H4.1537C4.01089 2.59375 3.87393 2.64972 3.77295 2.74935C3.67197 2.84898 3.61523 2.9841 3.61523 3.125V6.3125C3.61523 6.4534 3.67197 6.58852 3.77295 6.68815C3.87393 6.78778 4.01089 6.84375 4.1537 6.84375H13.846C13.9888 6.84375 14.1258 6.78778 14.2268 6.68815C14.3277 6.58852 14.3845 6.4534 14.3845 6.3125V3.125C14.3845 2.9841 14.3277 2.84898 14.2268 2.74935C14.1258 2.64972 13.9888 2.59375 13.846 2.59375ZM13.3075 5.78125H4.69216V3.65625H13.3075V5.78125Z" fill="#5E5F60"/>
<path d="M10.0771 7.375H7.92323C7.78042 7.375 7.64346 7.43097 7.54248 7.5306C7.4415 7.63023 7.38477 7.76535 7.38477 7.90625V9.5C7.38477 9.6409 7.4415 9.77602 7.54248 9.87565C7.64346 9.97528 7.78042 10.0312 7.92323 10.0312H10.0771C10.2199 10.0312 10.3568 9.97528 10.4578 9.87565C10.5588 9.77602 10.6155 9.6409 10.6155 9.5V7.90625C10.6155 7.76535 10.5588 7.63023 10.4578 7.5306C10.3568 7.43097 10.2199 7.375 10.0771 7.375ZM9.53861 8.96875H8.46169V8.4375H9.53861V8.96875Z" fill="#5E5F60"/>
<path d="M6.30754 7.375H4.1537C4.01089 7.375 3.87393 7.43097 3.77295 7.5306C3.67197 7.63023 3.61523 7.76535 3.61523 7.90625V9.5C3.61523 9.6409 3.67197 9.77602 3.77295 9.87565C3.87393 9.97528 4.01089 10.0312 4.1537 10.0312H6.30754C6.45035 10.0312 6.58731 9.97528 6.68829 9.87565C6.78927 9.77602 6.846 9.6409 6.846 9.5V7.90625C6.846 7.76535 6.78927 7.63023 6.68829 7.5306C6.58731 7.43097 6.45035 7.375 6.30754 7.375ZM5.76908 8.96875H4.69216V8.4375H5.76908V8.96875Z" fill="#5E5F60"/>
<path d="M13.8461 7.375H11.6923C11.5495 7.375 11.4125 7.43097 11.3115 7.5306C11.2105 7.63023 11.1538 7.76535 11.1538 7.90625V9.5C11.1538 9.6409 11.2105 9.77602 11.3115 9.87565C11.4125 9.97528 11.5495 10.0312 11.6923 10.0312H13.8461C13.9889 10.0312 14.1259 9.97528 14.2269 9.87565C14.3278 9.77602 14.3846 9.6409 14.3846 9.5V7.90625C14.3846 7.76535 14.3278 7.63023 14.2269 7.5306C14.1259 7.43097 13.9889 7.375 13.8461 7.375ZM13.3077 8.96875H12.2307V8.4375H13.3077V8.96875Z" fill="#5E5F60"/>
<path d="M10.0771 10.5625H7.92323C7.78042 10.5625 7.64346 10.6185 7.54248 10.7181C7.4415 10.8177 7.38477 10.9529 7.38477 11.0938V12.6875C7.38477 12.8284 7.4415 12.9635 7.54248 13.0632C7.64346 13.1628 7.78042 13.2188 7.92323 13.2188H10.0771C10.2199 13.2188 10.3568 13.1628 10.4578 13.0632C10.5588 12.9635 10.6155 12.8284 10.6155 12.6875V11.0938C10.6155 10.9529 10.5588 10.8177 10.4578 10.7181C10.3568 10.6185 10.2199 10.5625 10.0771 10.5625ZM9.53861 12.1562H8.46169V11.625H9.53861V12.1562Z" fill="#5E5F60"/>
<path d="M6.30754 10.5625H4.1537C4.01089 10.5625 3.87393 10.6185 3.77295 10.7181C3.67197 10.8177 3.61523 10.9529 3.61523 11.0938V12.6875C3.61523 12.8284 3.67197 12.9635 3.77295 13.0632C3.87393 13.1628 4.01089 13.2188 4.1537 13.2188H6.30754C6.45035 13.2188 6.58731 13.1628 6.68829 13.0632C6.78927 12.9635 6.846 12.8284 6.846 12.6875V11.0938C6.846 10.9529 6.78927 10.8177 6.68829 10.7181C6.58731 10.6185 6.45035 10.5625 6.30754 10.5625ZM5.76908 12.1562H4.69216V11.625H5.76908V12.1562Z" fill="#5E5F60"/>
<path d="M10.0771 13.75H7.92323C7.78042 13.75 7.64346 13.806 7.54248 13.9056C7.4415 14.0052 7.38477 14.1404 7.38477 14.2812V15.875C7.38477 16.0159 7.4415 16.151 7.54248 16.2507C7.64346 16.3503 7.78042 16.4062 7.92323 16.4062H10.0771C10.2199 16.4062 10.3568 16.3503 10.4578 16.2507C10.5588 16.151 10.6155 16.0159 10.6155 15.875V14.2812C10.6155 14.1404 10.5588 14.0052 10.4578 13.9056C10.3568 13.806 10.2199 13.75 10.0771 13.75ZM9.53861 15.3438H8.46169V14.8125H9.53861V15.3438Z" fill="#5E5F60"/>
<path d="M6.30754 13.75H4.1537C4.01089 13.75 3.87393 13.806 3.77295 13.9056C3.67197 14.0052 3.61523 14.1404 3.61523 14.2812V15.875C3.61523 16.0159 3.67197 16.151 3.77295 16.2507C3.87393 16.3503 4.01089 16.4062 4.1537 16.4062H6.30754C6.45035 16.4062 6.58731 16.3503 6.68829 16.2507C6.78927 16.151 6.846 16.0159 6.846 15.875V14.2812C6.846 14.1404 6.78927 14.0052 6.68829 13.9056C6.58731 13.806 6.45035 13.75 6.30754 13.75ZM5.76908 15.3438H4.69216V14.8125H5.76908V15.3438Z" fill="#5E5F60"/>
<path d="M13.8461 10.5625H11.6923C11.5495 10.5625 11.4125 10.6185 11.3115 10.7181C11.2105 10.8177 11.1538 10.9529 11.1538 11.0938V15.875C11.1538 16.0159 11.2105 16.151 11.3115 16.2507C11.4125 16.3503 11.5495 16.4062 11.6923 16.4062H13.8461C13.9889 16.4062 14.1259 16.3503 14.2269 16.2507C14.3278 16.151 14.3846 16.0159 14.3846 15.875V11.0938C14.3846 10.9529 14.3278 10.8177 14.2269 10.7181C14.1259 10.6185 13.9889 10.5625 13.8461 10.5625ZM13.3077 15.3438H12.2307V11.625H13.3077V15.3438Z" fill="#5E5F60"/>
</svg>
