<svg width="22" height="22" viewBox="0 0 22 22" fill="none" xmlns="http://www.w3.org/2000/svg">
<path d="M0.5 5.78947C0.5 2.86818 2.86818 0.5 5.78947 0.5H16.2105C19.1318 0.5 21.5 2.86818 21.5 5.78947V16.2105C21.5 19.1318 19.1318 21.5 16.2105 21.5H5.78947C2.86818 21.5 0.5 19.1318 0.5 16.2105V5.78947Z" stroke="#FFAE00"/>
<g clip-path="url(#clip0_3352_2689)">
<path d="M9.5 16.5C9.77635 16.2453 9.99691 15.936 10.1478 15.5918C10.2986 15.2476 10.3765 14.8758 10.3765 14.5C10.3765 14.1242 10.2986 13.7524 10.1478 13.4082C9.99691 13.0639 9.77635 12.7547 9.5 12.5C9.24528 12.2236 8.93605 12.0031 8.59182 11.8522C8.24759 11.7014 7.87584 11.6235 7.5 11.6235C7.12416 11.6235 6.75241 11.7014 6.40818 11.8522C6.06395 12.0031 5.75472 12.2236 5.5 12.5C4.5 13.5 4.5 17.5 4.5 17.5C4.5 17.5 8.5 17.5 9.5 16.5Z" stroke="#FFAE00" stroke-linecap="round" stroke-linejoin="round"/>
<path d="M16.92 5.08C16.5736 4.73799 16.1144 4.53407 15.6284 4.50646C15.1424 4.47884 14.663 4.62943 14.28 4.93L8.50004 9L7.79004 11.64C8.44166 11.7225 9.04524 12.0261 9.50004 12.5C9.97393 12.9548 10.2775 13.5584 10.36 14.21L13 13.5L17.07 7.72C17.3706 7.33707 17.5212 6.85768 17.4936 6.37167C17.466 5.88566 17.262 5.42641 16.92 5.08V5.08Z" stroke="#FFAE00" stroke-linecap="round" stroke-linejoin="round"/>
<path d="M4.5 17.5L7.75 14.25" stroke="#FFAE00" stroke-linecap="round" stroke-linejoin="round"/>
</g>
<defs>
<clipPath id="clip0_3352_2689">
<rect width="14" height="14" fill="white" transform="translate(4 4)"/>
</clipPath>
</defs>
</svg>
