<svg width="22" height="22" viewBox="0 0 22 22" fill="none" xmlns="http://www.w3.org/2000/svg">
<path d="M0.5 5.78947C0.5 2.86818 2.86818 0.5 5.78947 0.5H16.2105C19.1318 0.5 21.5 2.86818 21.5 5.78947V16.2105C21.5 19.1318 19.1318 21.5 16.2105 21.5H5.78947C2.86818 21.5 0.5 19.1318 0.5 16.2105V5.78947Z" stroke="#3C50E0"/>
<g clip-path="url(#clip0_3411_4528)">
<path d="M9.5 16.5001C9.77635 16.2453 9.99691 15.9361 10.1478 15.5919C10.2986 15.2477 10.3765 14.8759 10.3765 14.5001C10.3765 14.1242 10.2986 13.7525 10.1478 13.4082C9.99691 13.064 9.77635 12.7548 9.5 12.5001C9.24528 12.2237 8.93605 12.0031 8.59182 11.8523C8.24759 11.7014 7.87584 11.6235 7.5 11.6235C7.12416 11.6235 6.75241 11.7014 6.40818 11.8523C6.06395 12.0031 5.75472 12.2237 5.5 12.5001C4.5 13.5001 4.5 17.5001 4.5 17.5001C4.5 17.5001 8.5 17.5001 9.5 16.5001Z" stroke="#3C50E0" stroke-linecap="round" stroke-linejoin="round"/>
<path d="M16.92 5.08006C16.5736 4.73805 16.1144 4.53413 15.6284 4.50652C15.1424 4.4789 14.663 4.62949 14.28 4.93006L8.50004 9.00006L7.79004 11.6401C8.44166 11.7226 9.04524 12.0262 9.50004 12.5001C9.97393 12.9549 10.2775 13.5584 10.36 14.2101L13 13.5001L17.07 7.72006C17.3706 7.33714 17.5212 6.85774 17.4936 6.37173C17.466 5.88572 17.262 5.42647 16.92 5.08006V5.08006Z" stroke="#3C50E0" stroke-linecap="round" stroke-linejoin="round"/>
<path d="M4.5 17.5L7.75 14.25" stroke="#3C50E0" stroke-linecap="round" stroke-linejoin="round"/>
</g>
<defs>
<clipPath id="clip0_3411_4528">
<rect width="14" height="14" fill="white" transform="translate(4 4)"/>
</clipPath>
</defs>
</svg>
