<svg width="18" height="18" viewBox="0 0 18 18" fill="none" xmlns="http://www.w3.org/2000/svg">
<path d="M15.6667 14.1667V0.566667C15.6667 0.416377 15.6052 0.272243 15.4958 0.165973C15.3864 0.0597022 15.238 0 15.0833 0H7.5C7.34664 0.00622849 7.20052 0.0650554 7.08758 0.166033L4.17092 2.99937C4.06602 3.10848 4.00531 3.25079 4 3.4V14.1667C4 14.317 4.06146 14.4611 4.17085 14.5674C4.28025 14.6736 4.42862 14.7333 4.58333 14.7333H15.0833C15.238 14.7333 15.3864 14.6736 15.4958 14.5674C15.6052 14.4611 15.6667 14.317 15.6667 14.1667ZM6.91667 1.93466V2.83333H5.99156L6.91667 1.93466ZM14.5 13.6H5.16667V3.96667H7.5C7.65471 3.96667 7.80308 3.90696 7.91248 3.80069C8.02188 3.69442 8.08333 3.55029 8.08333 3.4V1.13333H14.5V13.6Z" fill="#5E5F60"/>
<path d="M17.4168 2.26672C17.2621 2.26672 17.1137 2.32643 17.0044 2.4327C16.895 2.53897 16.8335 2.6831 16.8335 2.83339V15.8667H6.91683C6.76212 15.8667 6.61375 15.9264 6.50435 16.0327C6.39495 16.139 6.3335 16.2831 6.3335 16.4334C6.3335 16.5837 6.39495 16.7278 6.50435 16.8341C6.61375 16.9404 6.76212 17.0001 6.91683 17.0001H17.4168C17.5715 17.0001 17.7199 16.9404 17.8293 16.8341C17.9387 16.7278 18.0002 16.5837 18.0002 16.4334V2.83339C18.0002 2.6831 17.9387 2.53897 17.8293 2.4327C17.7199 2.32643 17.5715 2.26672 17.4168 2.26672Z" fill="#5E5F60"/>
<path d="M9.24984 3.40006H13.3332C13.4879 3.40006 13.6363 3.34035 13.7456 3.23408C13.855 3.12781 13.9165 2.98368 13.9165 2.83339C13.9165 2.6831 13.855 2.53897 13.7456 2.4327C13.6363 2.32643 13.4879 2.26672 13.3332 2.26672H9.24984C9.09513 2.26672 8.94675 2.32643 8.83736 2.4327C8.72796 2.53897 8.6665 2.6831 8.6665 2.83339C8.6665 2.98368 8.72796 3.12781 8.83736 3.23408C8.94675 3.34035 9.09513 3.40006 9.24984 3.40006Z" fill="#5E5F60"/>
<path d="M13.3333 4.53333H6.33333C6.17862 4.53333 6.03025 4.59303 5.92085 4.6993C5.81146 4.80557 5.75 4.9497 5.75 5.09999C5.75 5.25028 5.81146 5.39441 5.92085 5.50069C6.03025 5.60696 6.17862 5.66666 6.33333 5.66666H13.3333C13.488 5.66666 13.6364 5.60696 13.7458 5.50069C13.8552 5.39441 13.9167 5.25028 13.9167 5.09999C13.9167 4.9497 13.8552 4.80557 13.7458 4.6993C13.6364 4.59303 13.488 4.53333 13.3333 4.53333Z" fill="#5E5F60"/>
<path d="M13.3333 6.80005H6.33333C6.17862 6.80005 6.03025 6.85975 5.92085 6.96602C5.81146 7.07229 5.75 7.21643 5.75 7.36672C5.75 7.517 5.81146 7.66114 5.92085 7.76741C6.03025 7.87368 6.17862 7.93338 6.33333 7.93338H13.3333C13.488 7.93338 13.6364 7.87368 13.7458 7.76741C13.8552 7.66114 13.9167 7.517 13.9167 7.36672C13.9167 7.21643 13.8552 7.07229 13.7458 6.96602C13.6364 6.85975 13.488 6.80005 13.3333 6.80005Z" fill="#5E5F60"/>
<path d="M13.3333 9.06665H6.33333C6.17862 9.06665 6.03025 9.12635 5.92085 9.23262C5.81146 9.33889 5.75 9.48303 5.75 9.63332C5.75 9.78361 5.81146 9.92774 5.92085 10.034C6.03025 10.1403 6.17862 10.2 6.33333 10.2H13.3333C13.488 10.2 13.6364 10.1403 13.7458 10.034C13.8552 9.92774 13.9167 9.78361 13.9167 9.63332C13.9167 9.48303 13.8552 9.33889 13.7458 9.23262C13.6364 9.12635 13.488 9.06665 13.3333 9.06665Z" fill="#5E5F60"/>
<path d="M13.3333 11.3334H6.33333C6.17862 11.3334 6.03025 11.3931 5.92085 11.4993C5.81146 11.6056 5.75 11.7498 5.75 11.9C5.75 12.0503 5.81146 12.1945 5.92085 12.3007C6.03025 12.407 6.17862 12.4667 6.33333 12.4667H13.3333C13.488 12.4667 13.6364 12.407 13.7458 12.3007C13.8552 12.1945 13.9167 12.0503 13.9167 11.9C13.9167 11.7498 13.8552 11.6056 13.7458 11.4993C13.6364 11.3931 13.488 11.3334 13.3333 11.3334Z" fill="#5E5F60"/>
</svg>
