<svg width="18" height="18" viewBox="0 0 18 18" fill="none" xmlns="http://www.w3.org/2000/svg">
<path d="M13.8462 1H4.15385C3.58281 1.00063 3.03534 1.22472 2.63156 1.6231C2.22777 2.02147 2.00064 2.56161 2 3.125V15.875C2.00064 16.4384 2.22777 16.9785 2.63156 17.3769C3.03534 17.7753 3.58281 17.9994 4.15385 18H13.8462C14.4172 17.9994 14.9647 17.7753 15.3685 17.3769C15.7723 16.9786 15.9994 16.4384 16 15.875V3.125C15.9994 2.5616 15.7723 2.02144 15.3685 1.62305C14.9647 1.22466 14.4172 1.00059 13.8462 1ZM14.9231 15.875C14.9227 16.1567 14.8092 16.4268 14.6073 16.6259C14.4054 16.8251 14.1317 16.9372 13.8462 16.9375H4.15385C3.86832 16.9372 3.59456 16.8252 3.39266 16.626C3.19076 16.4268 3.07721 16.1567 3.07692 15.875V3.125C3.07721 2.84329 3.19076 2.57321 3.39266 2.37401C3.59456 2.17481 3.86832 2.06278 4.15385 2.0625H13.8462C14.1317 2.06282 14.4054 2.17487 14.6073 2.37406C14.8092 2.57324 14.9227 2.84331 14.9231 3.125V15.875Z" fill="white"/>
<path d="M13.8462 2.59375H4.15384C4.01104 2.59375 3.87408 2.64972 3.77309 2.74935C3.67211 2.84898 3.61538 2.9841 3.61538 3.125V6.3125C3.61538 6.4534 3.67211 6.58852 3.77309 6.68815C3.87408 6.78778 4.01104 6.84375 4.15384 6.84375H13.8462C13.989 6.84375 14.1259 6.78778 14.2269 6.68815C14.3279 6.58852 14.3846 6.4534 14.3846 6.3125V3.125C14.3846 2.9841 14.3279 2.84898 14.2269 2.74935C14.1259 2.64972 13.989 2.59375 13.8462 2.59375ZM13.3077 5.78125H4.69231V3.65625H13.3077V5.78125Z" fill="white"/>
<path d="M10.0769 7.375H7.92308C7.78027 7.375 7.64331 7.43097 7.54233 7.5306C7.44135 7.63023 7.38462 7.76535 7.38462 7.90625V9.5C7.38462 9.6409 7.44135 9.77602 7.54233 9.87565C7.64331 9.97528 7.78027 10.0312 7.92308 10.0312H10.0769C10.2197 10.0312 10.3567 9.97528 10.4577 9.87565C10.5587 9.77602 10.6154 9.6409 10.6154 9.5V7.90625C10.6154 7.76535 10.5587 7.63023 10.4577 7.5306C10.3567 7.43097 10.2197 7.375 10.0769 7.375ZM9.53846 8.96875H8.46154V8.4375H9.53846V8.96875Z" fill="white"/>
<path d="M6.30769 7.375H4.15384C4.01104 7.375 3.87408 7.43097 3.77309 7.5306C3.67211 7.63023 3.61538 7.76535 3.61538 7.90625V9.5C3.61538 9.6409 3.67211 9.77602 3.77309 9.87565C3.87408 9.97528 4.01104 10.0312 4.15384 10.0312H6.30769C6.4505 10.0312 6.58746 9.97528 6.68844 9.87565C6.78942 9.77602 6.84615 9.6409 6.84615 9.5V7.90625C6.84615 7.76535 6.78942 7.63023 6.68844 7.5306C6.58746 7.43097 6.4505 7.375 6.30769 7.375ZM5.76923 8.96875H4.69231V8.4375H5.76923V8.96875Z" fill="white"/>
<path d="M13.8462 7.375H11.6923C11.5495 7.375 11.4125 7.43097 11.3116 7.5306C11.2106 7.63023 11.1538 7.76535 11.1538 7.90625V9.5C11.1538 9.6409 11.2106 9.77602 11.3116 9.87565C11.4125 9.97528 11.5495 10.0312 11.6923 10.0312H13.8462C13.989 10.0312 14.1259 9.97528 14.2269 9.87565C14.3279 9.77602 14.3846 9.6409 14.3846 9.5V7.90625C14.3846 7.76535 14.3279 7.63023 14.2269 7.5306C14.1259 7.43097 13.989 7.375 13.8462 7.375ZM13.3077 8.96875H12.2308V8.4375H13.3077V8.96875Z" fill="white"/>
<path d="M10.0769 10.5625H7.92308C7.78027 10.5625 7.64331 10.6185 7.54233 10.7181C7.44135 10.8177 7.38462 10.9529 7.38462 11.0938V12.6875C7.38462 12.8284 7.44135 12.9635 7.54233 13.0632C7.64331 13.1628 7.78027 13.2188 7.92308 13.2188H10.0769C10.2197 13.2188 10.3567 13.1628 10.4577 13.0632C10.5587 12.9635 10.6154 12.8284 10.6154 12.6875V11.0938C10.6154 10.9529 10.5587 10.8177 10.4577 10.7181C10.3567 10.6185 10.2197 10.5625 10.0769 10.5625ZM9.53846 12.1562H8.46154V11.625H9.53846V12.1562Z" fill="white"/>
<path d="M6.30769 10.5625H4.15384C4.01104 10.5625 3.87408 10.6185 3.77309 10.7181C3.67211 10.8177 3.61538 10.9529 3.61538 11.0938V12.6875C3.61538 12.8284 3.67211 12.9635 3.77309 13.0632C3.87408 13.1628 4.01104 13.2188 4.15384 13.2188H6.30769C6.4505 13.2188 6.58746 13.1628 6.68844 13.0632C6.78942 12.9635 6.84615 12.8284 6.84615 12.6875V11.0938C6.84615 10.9529 6.78942 10.8177 6.68844 10.7181C6.58746 10.6185 6.4505 10.5625 6.30769 10.5625ZM5.76923 12.1562H4.69231V11.625H5.76923V12.1562Z" fill="white"/>
<path d="M10.0769 13.75H7.92308C7.78027 13.75 7.64331 13.806 7.54233 13.9056C7.44135 14.0052 7.38462 14.1404 7.38462 14.2812V15.875C7.38462 16.0159 7.44135 16.151 7.54233 16.2507C7.64331 16.3503 7.78027 16.4062 7.92308 16.4062H10.0769C10.2197 16.4062 10.3567 16.3503 10.4577 16.2507C10.5587 16.151 10.6154 16.0159 10.6154 15.875V14.2812C10.6154 14.1404 10.5587 14.0052 10.4577 13.9056C10.3567 13.806 10.2197 13.75 10.0769 13.75ZM9.53846 15.3438H8.46154V14.8125H9.53846V15.3438Z" fill="white"/>
<path d="M6.30769 13.75H4.15384C4.01104 13.75 3.87408 13.806 3.77309 13.9056C3.67211 14.0052 3.61538 14.1404 3.61538 14.2812V15.875C3.61538 16.0159 3.67211 16.151 3.77309 16.2507C3.87408 16.3503 4.01104 16.4062 4.15384 16.4062H6.30769C6.4505 16.4062 6.58746 16.3503 6.68844 16.2507C6.78942 16.151 6.84615 16.0159 6.84615 15.875V14.2812C6.84615 14.1404 6.78942 14.0052 6.68844 13.9056C6.58746 13.806 6.4505 13.75 6.30769 13.75ZM5.76923 15.3438H4.69231V14.8125H5.76923V15.3438Z" fill="white"/>
<path d="M13.8462 10.5625H11.6923C11.5495 10.5625 11.4125 10.6185 11.3116 10.7181C11.2106 10.8177 11.1538 10.9529 11.1538 11.0938V15.875C11.1538 16.0159 11.2106 16.151 11.3116 16.2507C11.4125 16.3503 11.5495 16.4062 11.6923 16.4062H13.8462C13.989 16.4062 14.1259 16.3503 14.2269 16.2507C14.3279 16.151 14.3846 16.0159 14.3846 15.875V11.0938C14.3846 10.9529 14.3279 10.8177 14.2269 10.7181C14.1259 10.6185 13.989 10.5625 13.8462 10.5625ZM13.3077 15.3438H12.2308V11.625H13.3077V15.3438Z" fill="white"/>
</svg>
