<svg width="17" height="17" viewBox="0 0 17 17" fill="none" xmlns="http://www.w3.org/2000/svg">
<path d="M14.1565 9.83968L11.9843 9.29672L10.3125 8.87907V7.45594C10.5549 7.23862 10.7616 6.98459 10.9252 6.70313H11.3437C11.7539 6.70268 12.1471 6.53956 12.4371 6.24957C12.7271 5.95957 12.8902 5.56638 12.8906 5.15626V2.57813C12.8898 1.89462 12.6179 1.23933 12.1346 0.756015C11.6513 0.272698 10.996 0.000816432 10.3125 1.13104e-05H6.91665C6.38454 -0.00167248 5.86894 0.184693 5.46088 0.526206C4.9533 0.579098 4.48327 0.818014 4.1414 1.1969C3.79952 1.57578 3.61 2.06781 3.60938 2.57813V5.15626C3.60983 5.56638 3.77295 5.95957 4.06294 6.24957C4.35294 6.53956 4.74613 6.70268 5.15625 6.70313H5.57483C5.7384 6.98459 5.94514 7.23862 6.1875 7.45594V8.87907L4.51574 9.29672L2.34347 9.83968C1.67369 10.0063 1.07901 10.3925 0.654275 10.9365C0.229535 11.4805 -0.000801713 12.1511 2.09668e-06 12.8413V15.9844C2.09668e-06 16.1211 0.0543267 16.2523 0.151025 16.349C0.247724 16.4457 0.378875 16.5 0.515627 16.5H15.9844C16.1211 16.5 16.2523 16.4457 16.349 16.349C16.4457 16.2523 16.5 16.1211 16.5 15.9844V12.8413C16.5008 12.1511 16.2705 11.4805 15.8457 10.9365C15.421 10.3925 14.8263 10.0063 14.1565 9.83968ZM10.0038 9.86438L11.0592 10.1282L10.1161 11.7003L9.03303 11.1589L10.0038 9.86438ZM8.25 7.20968C7.97964 7.21064 7.71176 7.15824 7.46168 7.0555C7.21161 6.95276 6.98426 6.80168 6.79267 6.61093C6.60108 6.42018 6.449 6.19351 6.34516 5.94389C6.24131 5.69427 6.18774 5.42662 6.1875 5.15626V3.66378L10.3125 4.07628V5.15626C10.3123 5.42662 10.2587 5.69428 10.1549 5.94391C10.051 6.19354 9.89897 6.42022 9.70738 6.61098C9.51578 6.80173 9.28843 6.95281 9.03834 7.05554C8.78826 7.15828 8.52036 7.21066 8.25 7.20968ZM5.15625 5.67188C5.01952 5.6718 4.88842 5.61745 4.79174 5.52077C4.69506 5.42409 4.64071 5.29298 4.64063 5.15626V2.57813C4.64099 2.30474 4.74976 2.04265 4.94308 1.84934C5.1364 1.65602 5.39848 1.54725 5.67188 1.54689C5.73959 1.54689 5.80663 1.53355 5.86918 1.50763C5.93174 1.4817 5.98856 1.44371 6.03642 1.39581C6.15176 1.27987 6.28894 1.18796 6.44003 1.12539C6.59112 1.06281 6.75311 1.03082 6.91665 1.03126H10.3125C10.7226 1.03171 11.1158 1.19483 11.4058 1.48483C11.6958 1.77482 11.8589 2.16802 11.8594 2.57813V5.15626C11.8593 5.29298 11.8049 5.42409 11.7083 5.52077C11.6116 5.61745 11.4805 5.6718 11.3437 5.67188H11.2973C11.3272 5.50161 11.3427 5.32913 11.3437 5.15626V3.60938C11.3438 3.48155 11.2963 3.35827 11.2105 3.26346C11.1248 3.16865 11.0069 3.10907 10.8797 3.09629L5.72344 2.58066C5.65178 2.57415 5.57955 2.5824 5.51122 2.60492C5.44288 2.62744 5.37989 2.66374 5.32615 2.71158C5.27265 2.75984 5.22988 2.81879 5.20062 2.88463C5.17135 2.95046 5.15623 3.02171 5.15625 3.09376V5.15626C5.15727 5.32913 5.17279 5.50161 5.20266 5.67188H5.15625ZM8.25 8.25001C8.60074 8.24611 8.9487 8.18732 9.28125 8.07578V9.10955L8.25 10.4842L7.21875 9.10955V8.07578C7.55166 8.18586 7.8994 8.24461 8.25 8.25001ZM6.49615 9.86438L7.46697 11.159L6.3839 11.7004L5.44077 10.1283L6.49615 9.86438ZM1.03125 12.8413C1.03075 12.3812 1.18427 11.9341 1.46735 11.5714C1.75043 11.2086 2.14678 10.9511 2.59323 10.8397L4.39488 10.3895L5.7454 12.6403C5.81223 12.7517 5.91865 12.8338 6.04338 12.8701C6.1681 12.9065 6.30194 12.8944 6.41814 12.8363L7.73438 12.1781V15.4688H4.125V13.9219C4.125 13.7851 4.07068 13.654 3.97398 13.5573C3.87728 13.4606 3.74613 13.4063 3.60938 13.4063C3.47262 13.4063 3.34147 13.4606 3.24477 13.5573C3.14808 13.654 3.09375 13.7851 3.09375 13.9219V15.4688H1.03125V12.8413ZM15.4687 15.4688H13.4062V13.9219C13.4062 13.7851 13.3519 13.654 13.2552 13.5573C13.1585 13.4606 13.0274 13.4063 12.8906 13.4063C12.7539 13.4063 12.6227 13.4606 12.526 13.5573C12.4293 13.654 12.375 13.7851 12.375 13.9219V15.4688H8.76562V12.1781L10.0819 12.8362C10.1981 12.8943 10.3319 12.9064 10.4566 12.8701C10.5813 12.8338 10.6878 12.7517 10.7546 12.6403L12.1051 10.3895L13.9068 10.8397C14.3532 10.951 14.7496 11.2086 15.0327 11.5713C15.3157 11.9341 15.4693 12.3811 15.4687 12.8413V15.4688Z" fill="white"/>
</svg>
