<svg width="34" height="34" viewBox="0 0 34 34" fill="none" xmlns="http://www.w3.org/2000/svg">
<circle cx="17" cy="17" r="16.75" fill="#EFF4FB" stroke="#E2E8F0" stroke-width="0.5"/>
<path d="M24.1999 22.9344L23.6374 22.0625C23.5249 21.8938 23.4687 21.725 23.4687 21.5281V15.6781C23.4687 14.0188 22.7655 12.4719 21.4718 11.3188C20.4312 10.3906 19.0812 9.8 17.6468 9.6875V9.125C17.6468 8.7875 17.3655 8.47813 16.9999 8.47813C16.6624 8.47813 16.353 8.75938 16.353 9.125V9.65938C16.2968 9.65938 16.2405 9.65938 16.1843 9.6875C12.9218 10.0531 10.4749 12.6688 10.4749 15.7906V21.5281C10.4468 21.8094 10.3905 21.95 10.3343 22.0344L9.7999 22.9344C9.63115 23.2156 9.63115 23.5531 9.7999 23.8344C9.96865 24.0875 10.2499 24.2563 10.5593 24.2563H16.3812V24.875C16.3812 25.2125 16.6624 25.5219 17.028 25.5219C17.3655 25.5219 17.6749 25.2406 17.6749 24.875V24.2563H23.4687C23.778 24.2563 24.0593 24.0875 24.228 23.8344C24.3968 23.5531 24.3968 23.2156 24.1999 22.9344ZM11.2343 22.9906L11.4312 22.6531C11.5999 22.3719 11.6843 22.0344 11.7405 21.6406V15.7906C11.7405 13.3156 13.7093 11.2344 16.3249 10.9531C17.928 10.7844 19.503 11.2625 20.6562 12.275C21.6687 13.175 22.2312 14.3844 22.2312 15.6781V21.5281C22.2312 21.95 22.3437 22.3438 22.5968 22.7375L22.7655 22.9906H11.2343Z" fill="#64748B"/>
</svg>
