<svg width="22" height="22" viewBox="0 0 22 22" fill="none" xmlns="http://www.w3.org/2000/svg">
<path d="M0.5 5.78947C0.5 2.86818 2.86818 0.5 5.78947 0.5H16.2105C19.1318 0.5 21.5 2.86818 21.5 5.78947V16.2105C21.5 19.1318 19.1318 21.5 16.2105 21.5H5.78947C2.86818 21.5 0.5 19.1318 0.5 16.2105V5.78947Z" fill="white" stroke="white"/>
<g clip-path="url(#clip0_3331_8818)">
<path d="M11 4.5C12.2856 4.5 13.5423 4.88122 14.6112 5.59545C15.6801 6.30968 16.5133 7.32484 17.0052 8.51256C17.4972 9.70028 17.6259 11.0072 17.3751 12.2681C17.1243 13.529 16.5052 14.6872 15.5962 15.5962C14.6872 16.5052 13.529 17.1243 12.2681 17.3751C11.0072 17.6259 9.70028 17.4972 8.51256 17.0052C7.32484 16.5132 6.30968 15.6801 5.59545 14.6112C4.88122 13.5423 4.5 12.2856 4.5 11C4.49794 9.13797 5.21436 7.34694 6.5 6" stroke="#3C50E0" stroke-linecap="round" stroke-linejoin="round"/>
<path d="M4.5 6.5L6.5 6L7 8" stroke="#3C50E0" stroke-linecap="round" stroke-linejoin="round"/>
<path d="M11 7.5V11.5L13.6 12.8" stroke="#3C50E0" stroke-linecap="round" stroke-linejoin="round"/>
</g>
<defs>
<clipPath id="clip0_3331_8818">
<rect width="14" height="14" fill="white" transform="translate(4 4)"/>
</clipPath>
</defs>
</svg>
