<svg width="66" height="76" viewBox="0 0 66 76" fill="none" xmlns="http://www.w3.org/2000/svg">
<ellipse opacity="0.0169492" cx="33.1895" cy="38.1598" rx="4.56045" ry="37.6237" transform="rotate(140 33.1895 38.1598)" stroke="url(#paint0_linear_3320_496)" stroke-width="4"/>
<ellipse opacity="0.0338983" cx="33.1895" cy="38.1598" rx="4.56045" ry="37.0537" transform="rotate(150 33.1895 38.1598)" stroke="url(#paint1_linear_3320_496)" stroke-width="4"/>
<ellipse opacity="0.0508475" cx="33.1895" cy="38.1598" rx="4.56045" ry="36.4836" transform="rotate(160 33.1895 38.1598)" stroke="url(#paint2_linear_3320_496)" stroke-width="4"/>
<ellipse opacity="0.0677966" cx="33.1895" cy="38.1599" rx="4.56045" ry="35.9135" transform="rotate(170 33.1895 38.1599)" stroke="url(#paint3_linear_3320_496)" stroke-width="4"/>
<ellipse opacity="0.0847458" cx="33.1895" cy="38.1599" rx="4.56045" ry="35.3435" transform="rotate(-180 33.1895 38.1599)" stroke="url(#paint4_linear_3320_496)" stroke-width="4"/>
<ellipse opacity="0.101695" cx="33.1895" cy="38.1598" rx="4.56045" ry="34.7734" transform="rotate(-170 33.1895 38.1598)" stroke="url(#paint5_linear_3320_496)" stroke-width="4"/>
<ellipse opacity="0.118644" cx="33.1895" cy="38.1598" rx="4.56045" ry="34.2034" transform="rotate(-160 33.1895 38.1598)" stroke="url(#paint6_linear_3320_496)" stroke-width="4"/>
<ellipse opacity="0.135593" cx="33.1895" cy="38.1598" rx="4.56045" ry="33.6333" transform="rotate(-150 33.1895 38.1598)" stroke="url(#paint7_linear_3320_496)" stroke-width="4"/>
<ellipse opacity="0.152542" cx="33.1895" cy="38.1599" rx="4.56045" ry="33.0633" transform="rotate(-140 33.1895 38.1599)" stroke="url(#paint8_linear_3320_496)" stroke-width="4"/>
<ellipse opacity="0.169492" cx="33.1895" cy="38.1598" rx="4.56045" ry="32.4932" transform="rotate(-130 33.1895 38.1598)" stroke="url(#paint9_linear_3320_496)" stroke-width="4"/>
<ellipse opacity="0.186441" cx="33.1895" cy="38.1598" rx="4.56045" ry="31.9232" transform="rotate(-120 33.1895 38.1598)" stroke="url(#paint10_linear_3320_496)" stroke-width="4"/>
<ellipse opacity="0.20339" cx="33.1896" cy="38.1598" rx="4.56045" ry="31.3531" transform="rotate(-110 33.1896 38.1598)" stroke="url(#paint11_linear_3320_496)" stroke-width="4"/>
<ellipse opacity="0.220339" cx="33.1895" cy="38.1599" rx="4.56045" ry="30.783" transform="rotate(-100 33.1895 38.1599)" stroke="url(#paint12_linear_3320_496)" stroke-width="4"/>
<ellipse opacity="0.237288" cx="33.1895" cy="38.1598" rx="4.56045" ry="30.213" transform="rotate(-90 33.1895 38.1598)" stroke="url(#paint13_linear_3320_496)" stroke-width="4"/>
<ellipse opacity="0.254237" cx="33.1895" cy="38.1598" rx="4.56045" ry="29.6429" transform="rotate(-80 33.1895 38.1598)" stroke="url(#paint14_linear_3320_496)" stroke-width="4"/>
<ellipse opacity="0.271186" cx="33.1895" cy="38.1598" rx="4.56045" ry="29.0729" transform="rotate(-70 33.1895 38.1598)" stroke="url(#paint15_linear_3320_496)" stroke-width="4"/>
<ellipse opacity="0.288136" cx="33.1895" cy="38.1598" rx="4.56045" ry="28.5028" transform="rotate(-60 33.1895 38.1598)" stroke="url(#paint16_linear_3320_496)" stroke-width="4"/>
<ellipse opacity="0.305085" cx="33.1895" cy="38.1597" rx="4.56045" ry="27.9328" transform="rotate(-50 33.1895 38.1597)" stroke="url(#paint17_linear_3320_496)" stroke-width="4"/>
<ellipse opacity="0.322034" cx="33.1895" cy="38.1598" rx="4.56045" ry="27.3627" transform="rotate(-40 33.1895 38.1598)" stroke="url(#paint18_linear_3320_496)" stroke-width="4"/>
<ellipse opacity="0.338983" cx="33.1895" cy="38.1598" rx="4.56045" ry="26.7926" transform="rotate(-30 33.1895 38.1598)" stroke="url(#paint19_linear_3320_496)" stroke-width="4"/>
<ellipse opacity="0.355932" cx="33.1895" cy="38.1598" rx="4.56045" ry="26.2226" transform="rotate(-20 33.1895 38.1598)" stroke="url(#paint20_linear_3320_496)" stroke-width="4"/>
<ellipse opacity="0.372881" cx="33.1895" cy="38.1599" rx="4.56045" ry="25.6525" transform="rotate(-10 33.1895 38.1599)" stroke="url(#paint21_linear_3320_496)" stroke-width="4"/>
<ellipse opacity="0.38983" cx="33.1895" cy="38.1599" rx="4.56045" ry="25.0825" stroke="url(#paint22_linear_3320_496)" stroke-width="4"/>
<ellipse opacity="0.40678" cx="33.1896" cy="38.1598" rx="4.56045" ry="24.5124" transform="rotate(10 33.1896 38.1598)" stroke="url(#paint23_linear_3320_496)" stroke-width="4"/>
<ellipse opacity="0.423729" cx="33.1895" cy="38.1598" rx="4.56045" ry="23.9424" transform="rotate(20 33.1895 38.1598)" stroke="url(#paint24_linear_3320_496)" stroke-width="4"/>
<ellipse opacity="0.440678" cx="33.1895" cy="38.1598" rx="4.56045" ry="23.3723" transform="rotate(30 33.1895 38.1598)" stroke="url(#paint25_linear_3320_496)" stroke-width="4"/>
<ellipse opacity="0.457627" cx="33.1896" cy="38.1598" rx="4.56045" ry="22.8022" transform="rotate(40 33.1896 38.1598)" stroke="url(#paint26_linear_3320_496)" stroke-width="4"/>
<ellipse opacity="0.474576" cx="33.1896" cy="38.1599" rx="4.56045" ry="22.2322" transform="rotate(50 33.1896 38.1599)" stroke="url(#paint27_linear_3320_496)" stroke-width="4"/>
<ellipse opacity="0.491525" cx="33.1896" cy="38.1598" rx="4.56045" ry="21.6621" transform="rotate(60 33.1896 38.1598)" stroke="url(#paint28_linear_3320_496)" stroke-width="4"/>
<ellipse opacity="0.508475" cx="33.1895" cy="38.1599" rx="4.56045" ry="21.0921" transform="rotate(70 33.1895 38.1599)" stroke="url(#paint29_linear_3320_496)" stroke-width="4"/>
<ellipse opacity="0.525424" cx="33.1896" cy="38.1598" rx="4.56045" ry="20.522" transform="rotate(80 33.1896 38.1598)" stroke="url(#paint30_linear_3320_496)" stroke-width="4"/>
<ellipse opacity="0.542373" cx="33.1896" cy="38.1599" rx="4.56045" ry="19.952" transform="rotate(90 33.1896 38.1599)" stroke="url(#paint31_linear_3320_496)" stroke-width="4"/>
<ellipse opacity="0.559322" cx="33.1896" cy="38.1599" rx="4.56045" ry="19.3819" transform="rotate(100 33.1896 38.1599)" stroke="url(#paint32_linear_3320_496)" stroke-width="4"/>
<ellipse opacity="0.576271" cx="33.1895" cy="38.1599" rx="4.56045" ry="18.8119" transform="rotate(110 33.1895 38.1599)" stroke="url(#paint33_linear_3320_496)" stroke-width="4"/>
<ellipse opacity="0.59322" cx="33.1896" cy="38.1598" rx="4.56045" ry="18.2418" transform="rotate(120 33.1896 38.1598)" stroke="url(#paint34_linear_3320_496)" stroke-width="4"/>
<ellipse opacity="0.610169" cx="33.1896" cy="38.1599" rx="4.56045" ry="17.6717" transform="rotate(130 33.1896 38.1599)" stroke="url(#paint35_linear_3320_496)" stroke-width="4"/>
<ellipse opacity="0.627119" cx="33.1896" cy="38.1599" rx="4.56045" ry="17.1017" transform="rotate(140 33.1896 38.1599)" stroke="url(#paint36_linear_3320_496)" stroke-width="4"/>
<ellipse opacity="0.644068" cx="33.1896" cy="38.1598" rx="4.56045" ry="16.5316" transform="rotate(150 33.1896 38.1598)" stroke="url(#paint37_linear_3320_496)" stroke-width="4"/>
<ellipse opacity="0.661017" cx="33.1896" cy="38.1599" rx="4.56045" ry="15.9616" transform="rotate(160 33.1896 38.1599)" stroke="url(#paint38_linear_3320_496)" stroke-width="4"/>
<ellipse opacity="0.677966" cx="33.1895" cy="38.1599" rx="4.56045" ry="15.3915" transform="rotate(170 33.1895 38.1599)" stroke="url(#paint39_linear_3320_496)" stroke-width="4"/>
<ellipse opacity="0.694915" cx="33.1895" cy="38.1598" rx="4.56045" ry="14.8215" transform="rotate(-180 33.1895 38.1598)" stroke="url(#paint40_linear_3320_496)" stroke-width="4"/>
<ellipse opacity="0.711864" cx="33.1895" cy="38.1598" rx="4.56045" ry="14.2514" transform="rotate(-170 33.1895 38.1598)" stroke="url(#paint41_linear_3320_496)" stroke-width="4"/>
<ellipse opacity="0.728814" cx="33.1895" cy="38.1598" rx="4.56045" ry="13.6814" transform="rotate(-160 33.1895 38.1598)" stroke="url(#paint42_linear_3320_496)" stroke-width="4"/>
<ellipse opacity="0.745763" cx="33.1895" cy="38.1599" rx="4.56045" ry="13.1113" transform="rotate(-150 33.1895 38.1599)" stroke="url(#paint43_linear_3320_496)" stroke-width="4"/>
<ellipse opacity="0.762712" cx="33.1895" cy="38.1598" rx="4.56045" ry="12.5412" transform="rotate(-140 33.1895 38.1598)" stroke="url(#paint44_linear_3320_496)" stroke-width="4"/>
<ellipse opacity="0.779661" cx="33.1895" cy="38.1598" rx="4.56045" ry="11.9712" transform="rotate(-130 33.1895 38.1598)" stroke="url(#paint45_linear_3320_496)" stroke-width="4"/>
<ellipse opacity="0.79661" cx="33.1895" cy="38.1598" rx="4.56045" ry="11.4011" transform="rotate(-120 33.1895 38.1598)" stroke="url(#paint46_linear_3320_496)" stroke-width="4"/>
<ellipse opacity="0.813559" cx="33.1896" cy="38.1598" rx="4.56045" ry="10.8311" transform="rotate(-110 33.1896 38.1598)" stroke="url(#paint47_linear_3320_496)" stroke-width="4"/>
<ellipse opacity="0.830508" cx="33.1896" cy="38.1598" rx="4.56045" ry="10.261" transform="rotate(-100 33.1896 38.1598)" stroke="url(#paint48_linear_3320_496)" stroke-width="4"/>
<ellipse opacity="0.847458" cx="33.1896" cy="38.1598" rx="4.56045" ry="9.69096" transform="rotate(-90 33.1896 38.1598)" stroke="url(#paint49_linear_3320_496)" stroke-width="4"/>
<ellipse opacity="0.864407" cx="33.1896" cy="38.1598" rx="4.56045" ry="9.1209" transform="rotate(-80 33.1896 38.1598)" stroke="url(#paint50_linear_3320_496)" stroke-width="4"/>
<ellipse opacity="0.881356" cx="33.1895" cy="38.1598" rx="4.56045" ry="8.55084" transform="rotate(-70 33.1895 38.1598)" stroke="url(#paint51_linear_3320_496)" stroke-width="4"/>
<ellipse opacity="0.898305" cx="33.1895" cy="38.1598" rx="4.56045" ry="7.98079" transform="rotate(-60 33.1895 38.1598)" stroke="url(#paint52_linear_3320_496)" stroke-width="4"/>
<ellipse opacity="0.915254" cx="33.1895" cy="38.1599" rx="4.56045" ry="7.41073" transform="rotate(-50 33.1895 38.1599)" stroke="url(#paint53_linear_3320_496)" stroke-width="4"/>
<ellipse opacity="0.932203" cx="33.1896" cy="38.1598" rx="4.56045" ry="6.84068" transform="rotate(-40 33.1896 38.1598)" stroke="url(#paint54_linear_3320_496)" stroke-width="4"/>
<ellipse opacity="0.949153" cx="33.1895" cy="38.1598" rx="4.56045" ry="6.27062" transform="rotate(-30 33.1895 38.1598)" stroke="url(#paint55_linear_3320_496)" stroke-width="4"/>
<ellipse opacity="0.966102" cx="33.1895" cy="38.1598" rx="4.56045" ry="5.70056" transform="rotate(-20 33.1895 38.1598)" stroke="url(#paint56_linear_3320_496)" stroke-width="4"/>
<ellipse opacity="0.983051" cx="33.1895" cy="38.1598" rx="4.56045" ry="5.13051" transform="rotate(-10 33.1895 38.1598)" stroke="url(#paint57_linear_3320_496)" stroke-width="4"/>
<circle cx="33.1895" cy="38.1598" r="4.56045" stroke="url(#paint58_linear_3320_496)" stroke-width="4"/>
<defs>
<linearGradient id="paint0_linear_3320_496" x1="33.1895" y1="0.536114" x2="33.1895" y2="78.6053" gradientUnits="userSpaceOnUse">
<stop stop-color="white"/>
<stop offset="1" stop-color="#3C50E0"/>
</linearGradient>
<linearGradient id="paint1_linear_3320_496" x1="33.1895" y1="1.10616" x2="33.1896" y2="77.9925" gradientUnits="userSpaceOnUse">
<stop stop-color="white"/>
<stop offset="1" stop-color="#3C50E0"/>
</linearGradient>
<linearGradient id="paint2_linear_3320_496" x1="33.1895" y1="1.67622" x2="33.1895" y2="77.3797" gradientUnits="userSpaceOnUse">
<stop stop-color="white"/>
<stop offset="1" stop-color="#3C50E0"/>
</linearGradient>
<linearGradient id="paint3_linear_3320_496" x1="33.1895" y1="2.24633" x2="33.1895" y2="76.7669" gradientUnits="userSpaceOnUse">
<stop stop-color="white"/>
<stop offset="1" stop-color="#3C50E0"/>
</linearGradient>
<linearGradient id="paint4_linear_3320_496" x1="33.1895" y1="2.81638" x2="33.1895" y2="76.1541" gradientUnits="userSpaceOnUse">
<stop stop-color="white"/>
<stop offset="1" stop-color="#3C50E0"/>
</linearGradient>
<linearGradient id="paint5_linear_3320_496" x1="33.1895" y1="3.3864" x2="33.1896" y2="75.5413" gradientUnits="userSpaceOnUse">
<stop stop-color="white"/>
<stop offset="1" stop-color="#3C50E0"/>
</linearGradient>
<linearGradient id="paint6_linear_3320_496" x1="33.1895" y1="3.95642" x2="33.1895" y2="74.9284" gradientUnits="userSpaceOnUse">
<stop stop-color="white"/>
<stop offset="1" stop-color="#3C50E0"/>
</linearGradient>
<linearGradient id="paint7_linear_3320_496" x1="33.1895" y1="4.52647" x2="33.1895" y2="74.3156" gradientUnits="userSpaceOnUse">
<stop stop-color="white"/>
<stop offset="1" stop-color="#3C50E0"/>
</linearGradient>
<linearGradient id="paint8_linear_3320_496" x1="33.1895" y1="5.0966" x2="33.1895" y2="73.7029" gradientUnits="userSpaceOnUse">
<stop stop-color="white"/>
<stop offset="1" stop-color="#3C50E0"/>
</linearGradient>
<linearGradient id="paint9_linear_3320_496" x1="33.1895" y1="5.66661" x2="33.1895" y2="73.09" gradientUnits="userSpaceOnUse">
<stop stop-color="white"/>
<stop offset="1" stop-color="#3C50E0"/>
</linearGradient>
<linearGradient id="paint10_linear_3320_496" x1="33.1895" y1="6.23667" x2="33.1895" y2="72.4772" gradientUnits="userSpaceOnUse">
<stop stop-color="white"/>
<stop offset="1" stop-color="#3C50E0"/>
</linearGradient>
<linearGradient id="paint11_linear_3320_496" x1="33.1896" y1="6.80673" x2="33.1896" y2="71.8644" gradientUnits="userSpaceOnUse">
<stop stop-color="white"/>
<stop offset="1" stop-color="#3C50E0"/>
</linearGradient>
<linearGradient id="paint12_linear_3320_496" x1="33.1895" y1="7.37683" x2="33.1895" y2="71.2516" gradientUnits="userSpaceOnUse">
<stop stop-color="white"/>
<stop offset="1" stop-color="#3C50E0"/>
</linearGradient>
<linearGradient id="paint13_linear_3320_496" x1="33.1895" y1="7.94684" x2="33.1895" y2="70.6388" gradientUnits="userSpaceOnUse">
<stop stop-color="white"/>
<stop offset="1" stop-color="#3C50E0"/>
</linearGradient>
<linearGradient id="paint14_linear_3320_496" x1="33.1895" y1="8.51689" x2="33.1895" y2="70.026" gradientUnits="userSpaceOnUse">
<stop stop-color="white"/>
<stop offset="1" stop-color="#3C50E0"/>
</linearGradient>
<linearGradient id="paint15_linear_3320_496" x1="33.1895" y1="9.08692" x2="33.1895" y2="69.4131" gradientUnits="userSpaceOnUse">
<stop stop-color="white"/>
<stop offset="1" stop-color="#3C50E0"/>
</linearGradient>
<linearGradient id="paint16_linear_3320_496" x1="33.1895" y1="9.65698" x2="33.1895" y2="68.8003" gradientUnits="userSpaceOnUse">
<stop stop-color="white"/>
<stop offset="1" stop-color="#3C50E0"/>
</linearGradient>
<linearGradient id="paint17_linear_3320_496" x1="33.1895" y1="10.227" x2="33.1895" y2="68.1875" gradientUnits="userSpaceOnUse">
<stop stop-color="white"/>
<stop offset="1" stop-color="#3C50E0"/>
</linearGradient>
<linearGradient id="paint18_linear_3320_496" x1="33.1895" y1="10.7971" x2="33.1895" y2="67.5747" gradientUnits="userSpaceOnUse">
<stop stop-color="white"/>
<stop offset="1" stop-color="#3C50E0"/>
</linearGradient>
<linearGradient id="paint19_linear_3320_496" x1="33.1895" y1="11.3672" x2="33.1895" y2="66.9619" gradientUnits="userSpaceOnUse">
<stop stop-color="white"/>
<stop offset="1" stop-color="#3C50E0"/>
</linearGradient>
<linearGradient id="paint20_linear_3320_496" x1="33.1895" y1="11.9372" x2="33.1895" y2="66.3491" gradientUnits="userSpaceOnUse">
<stop stop-color="white"/>
<stop offset="1" stop-color="#3C50E0"/>
</linearGradient>
<linearGradient id="paint21_linear_3320_496" x1="33.1896" y1="12.5073" x2="33.1896" y2="65.7363" gradientUnits="userSpaceOnUse">
<stop stop-color="white"/>
<stop offset="1" stop-color="#3C50E0"/>
</linearGradient>
<linearGradient id="paint22_linear_3320_496" x1="33.1895" y1="13.0774" x2="33.1895" y2="65.1235" gradientUnits="userSpaceOnUse">
<stop stop-color="white"/>
<stop offset="1" stop-color="#3C50E0"/>
</linearGradient>
<linearGradient id="paint23_linear_3320_496" x1="33.1896" y1="13.6474" x2="33.1896" y2="64.5107" gradientUnits="userSpaceOnUse">
<stop stop-color="white"/>
<stop offset="1" stop-color="#3C50E0"/>
</linearGradient>
<linearGradient id="paint24_linear_3320_496" x1="33.1895" y1="14.2174" x2="33.1895" y2="63.8978" gradientUnits="userSpaceOnUse">
<stop stop-color="white"/>
<stop offset="1" stop-color="#3C50E0"/>
</linearGradient>
<linearGradient id="paint25_linear_3320_496" x1="33.1895" y1="14.7875" x2="33.1895" y2="63.2851" gradientUnits="userSpaceOnUse">
<stop stop-color="white"/>
<stop offset="1" stop-color="#3C50E0"/>
</linearGradient>
<linearGradient id="paint26_linear_3320_496" x1="33.1896" y1="15.3576" x2="33.1896" y2="62.6722" gradientUnits="userSpaceOnUse">
<stop stop-color="white"/>
<stop offset="1" stop-color="#3C50E0"/>
</linearGradient>
<linearGradient id="paint27_linear_3320_496" x1="33.1896" y1="15.9277" x2="33.1896" y2="62.0595" gradientUnits="userSpaceOnUse">
<stop stop-color="white"/>
<stop offset="1" stop-color="#3C50E0"/>
</linearGradient>
<linearGradient id="paint28_linear_3320_496" x1="33.1896" y1="16.4977" x2="33.1896" y2="61.4466" gradientUnits="userSpaceOnUse">
<stop stop-color="white"/>
<stop offset="1" stop-color="#3C50E0"/>
</linearGradient>
<linearGradient id="paint29_linear_3320_496" x1="33.1895" y1="17.0678" x2="33.1895" y2="60.8339" gradientUnits="userSpaceOnUse">
<stop stop-color="white"/>
<stop offset="1" stop-color="#3C50E0"/>
</linearGradient>
<linearGradient id="paint30_linear_3320_496" x1="33.1896" y1="17.6378" x2="33.1896" y2="60.221" gradientUnits="userSpaceOnUse">
<stop stop-color="white"/>
<stop offset="1" stop-color="#3C50E0"/>
</linearGradient>
<linearGradient id="paint31_linear_3320_496" x1="33.1896" y1="18.2079" x2="33.1896" y2="59.6082" gradientUnits="userSpaceOnUse">
<stop stop-color="white"/>
<stop offset="1" stop-color="#3C50E0"/>
</linearGradient>
<linearGradient id="paint32_linear_3320_496" x1="33.1896" y1="18.778" x2="33.1896" y2="58.9955" gradientUnits="userSpaceOnUse">
<stop stop-color="white"/>
<stop offset="1" stop-color="#3C50E0"/>
</linearGradient>
<linearGradient id="paint33_linear_3320_496" x1="33.1895" y1="19.3481" x2="33.1895" y2="58.3827" gradientUnits="userSpaceOnUse">
<stop stop-color="white"/>
<stop offset="1" stop-color="#3C50E0"/>
</linearGradient>
<linearGradient id="paint34_linear_3320_496" x1="33.1896" y1="19.918" x2="33.1896" y2="57.7697" gradientUnits="userSpaceOnUse">
<stop stop-color="white"/>
<stop offset="1" stop-color="#3C50E0"/>
</linearGradient>
<linearGradient id="paint35_linear_3320_496" x1="33.1896" y1="20.4882" x2="33.1896" y2="57.157" gradientUnits="userSpaceOnUse">
<stop stop-color="white"/>
<stop offset="1" stop-color="#3C50E0"/>
</linearGradient>
<linearGradient id="paint36_linear_3320_496" x1="33.1896" y1="21.0582" x2="33.1896" y2="56.5442" gradientUnits="userSpaceOnUse">
<stop stop-color="white"/>
<stop offset="1" stop-color="#3C50E0"/>
</linearGradient>
<linearGradient id="paint37_linear_3320_496" x1="33.1896" y1="21.6282" x2="33.1896" y2="55.9313" gradientUnits="userSpaceOnUse">
<stop stop-color="white"/>
<stop offset="1" stop-color="#3C50E0"/>
</linearGradient>
<linearGradient id="paint38_linear_3320_496" x1="33.1896" y1="22.1983" x2="33.1896" y2="55.3185" gradientUnits="userSpaceOnUse">
<stop stop-color="white"/>
<stop offset="1" stop-color="#3C50E0"/>
</linearGradient>
<linearGradient id="paint39_linear_3320_496" x1="33.1895" y1="22.7683" x2="33.1895" y2="54.7057" gradientUnits="userSpaceOnUse">
<stop stop-color="white"/>
<stop offset="1" stop-color="#3C50E0"/>
</linearGradient>
<linearGradient id="paint40_linear_3320_496" x1="33.1895" y1="23.3383" x2="33.1895" y2="54.0929" gradientUnits="userSpaceOnUse">
<stop stop-color="white"/>
<stop offset="1" stop-color="#3C50E0"/>
</linearGradient>
<linearGradient id="paint41_linear_3320_496" x1="33.1895" y1="23.9084" x2="33.1895" y2="53.4801" gradientUnits="userSpaceOnUse">
<stop stop-color="white"/>
<stop offset="1" stop-color="#3C50E0"/>
</linearGradient>
<linearGradient id="paint42_linear_3320_496" x1="33.1895" y1="24.4785" x2="33.1895" y2="52.8673" gradientUnits="userSpaceOnUse">
<stop stop-color="white"/>
<stop offset="1" stop-color="#3C50E0"/>
</linearGradient>
<linearGradient id="paint43_linear_3320_496" x1="33.1895" y1="25.0486" x2="33.1895" y2="52.2545" gradientUnits="userSpaceOnUse">
<stop stop-color="white"/>
<stop offset="1" stop-color="#3C50E0"/>
</linearGradient>
<linearGradient id="paint44_linear_3320_496" x1="33.1895" y1="25.6186" x2="33.1895" y2="51.6416" gradientUnits="userSpaceOnUse">
<stop stop-color="white"/>
<stop offset="1" stop-color="#3C50E0"/>
</linearGradient>
<linearGradient id="paint45_linear_3320_496" x1="33.1895" y1="26.1887" x2="33.1895" y2="51.0289" gradientUnits="userSpaceOnUse">
<stop stop-color="white"/>
<stop offset="1" stop-color="#3C50E0"/>
</linearGradient>
<linearGradient id="paint46_linear_3320_496" x1="33.1895" y1="26.7587" x2="33.1895" y2="50.416" gradientUnits="userSpaceOnUse">
<stop stop-color="white"/>
<stop offset="1" stop-color="#3C50E0"/>
</linearGradient>
<linearGradient id="paint47_linear_3320_496" x1="33.1896" y1="27.3287" x2="33.1896" y2="49.8032" gradientUnits="userSpaceOnUse">
<stop stop-color="white"/>
<stop offset="1" stop-color="#3C50E0"/>
</linearGradient>
<linearGradient id="paint48_linear_3320_496" x1="33.1896" y1="27.8988" x2="33.1896" y2="49.1904" gradientUnits="userSpaceOnUse">
<stop stop-color="white"/>
<stop offset="1" stop-color="#3C50E0"/>
</linearGradient>
<linearGradient id="paint49_linear_3320_496" x1="33.1896" y1="28.4689" x2="33.1896" y2="48.5776" gradientUnits="userSpaceOnUse">
<stop stop-color="white"/>
<stop offset="1" stop-color="#3C50E0"/>
</linearGradient>
<linearGradient id="paint50_linear_3320_496" x1="33.1896" y1="29.0389" x2="33.1896" y2="47.9648" gradientUnits="userSpaceOnUse">
<stop stop-color="white"/>
<stop offset="1" stop-color="#3C50E0"/>
</linearGradient>
<linearGradient id="paint51_linear_3320_496" x1="33.1895" y1="29.609" x2="33.1895" y2="47.352" gradientUnits="userSpaceOnUse">
<stop stop-color="white"/>
<stop offset="1" stop-color="#3C50E0"/>
</linearGradient>
<linearGradient id="paint52_linear_3320_496" x1="33.1895" y1="30.179" x2="33.1895" y2="46.7392" gradientUnits="userSpaceOnUse">
<stop stop-color="white"/>
<stop offset="1" stop-color="#3C50E0"/>
</linearGradient>
<linearGradient id="paint53_linear_3320_496" x1="33.1895" y1="30.7491" x2="33.1895" y2="46.1264" gradientUnits="userSpaceOnUse">
<stop stop-color="white"/>
<stop offset="1" stop-color="#3C50E0"/>
</linearGradient>
<linearGradient id="paint54_linear_3320_496" x1="33.1896" y1="31.3191" x2="33.1896" y2="45.5135" gradientUnits="userSpaceOnUse">
<stop stop-color="white"/>
<stop offset="1" stop-color="#3C50E0"/>
</linearGradient>
<linearGradient id="paint55_linear_3320_496" x1="33.1895" y1="31.8892" x2="33.1895" y2="44.9007" gradientUnits="userSpaceOnUse">
<stop stop-color="white"/>
<stop offset="1" stop-color="#3C50E0"/>
</linearGradient>
<linearGradient id="paint56_linear_3320_496" x1="33.1895" y1="32.4592" x2="33.1895" y2="44.2879" gradientUnits="userSpaceOnUse">
<stop stop-color="white"/>
<stop offset="1" stop-color="#3C50E0"/>
</linearGradient>
<linearGradient id="paint57_linear_3320_496" x1="33.1895" y1="33.0293" x2="33.1895" y2="43.6751" gradientUnits="userSpaceOnUse">
<stop stop-color="white"/>
<stop offset="1" stop-color="#3C50E0"/>
</linearGradient>
<linearGradient id="paint58_linear_3320_496" x1="33.1895" y1="33.5994" x2="33.1895" y2="43.0623" gradientUnits="userSpaceOnUse">
<stop stop-color="white"/>
<stop offset="1" stop-color="#3C50E0"/>
</linearGradient>
</defs>
</svg>
