<svg width="17" height="17" viewBox="0 0 17 17" fill="none" xmlns="http://www.w3.org/2000/svg">
<path d="M5.31563 0H1.74375C0.7875 0 0 0.7875 0 1.74375V5.31562C0 6.27187 0.7875 7.05938 1.74375 7.05938H5.31563C6.27188 7.05938 7.05938 6.27187 7.05938 5.31562V1.77187C7.0875 0.7875 6.3 0 5.31563 0ZM5.82188 5.34375C5.82188 5.625 5.59688 5.85 5.31563 5.85H1.74375C1.4625 5.85 1.2375 5.625 1.2375 5.34375V1.77187C1.2375 1.49062 1.4625 1.26562 1.74375 1.26562H5.31563C5.59688 1.26562 5.82188 1.49062 5.82188 1.77187V5.34375Z" fill="#5E5F60"/>
<path d="M14.6813 0H11.1095C10.1532 0 9.36572 0.7875 9.36572 1.74375V5.31562C9.36572 6.27187 10.1532 7.05938 11.1095 7.05938H14.6813C15.6376 7.05938 16.4251 6.27187 16.4251 5.31562V1.77187C16.4251 0.7875 15.6376 0 14.6813 0ZM15.1876 5.34375C15.1876 5.625 14.9626 5.85 14.6813 5.85H11.1095C10.8282 5.85 10.6032 5.625 10.6032 5.34375V1.77187C10.6032 1.49062 10.8282 1.26562 11.1095 1.26562H14.6813C14.9626 1.26562 15.1876 1.49062 15.1876 1.77187V5.34375Z" fill="#5E5F60"/>
<path d="M5.31563 8.97192H1.74375C0.7875 8.97192 0 9.75942 0 10.7157V14.2875C0 15.2438 0.7875 16.0313 1.74375 16.0313H5.31563C6.27188 16.0313 7.05938 15.2438 7.05938 14.2875V10.7438C7.0875 9.75942 6.3 8.97192 5.31563 8.97192ZM5.82188 14.3157C5.82188 14.5969 5.59688 14.8219 5.31563 14.8219H1.74375C1.4625 14.8219 1.2375 14.5969 1.2375 14.3157V10.7438C1.2375 10.4625 1.4625 10.2375 1.74375 10.2375H5.31563C5.59688 10.2375 5.82188 10.4625 5.82188 10.7438V14.3157Z" fill="#5E5F60"/>
<path d="M14.6813 8.97192H11.1095C10.1532 8.97192 9.36572 9.75942 9.36572 10.7157V14.2875C9.36572 15.2438 10.1532 16.0313 11.1095 16.0313H14.6813C15.6376 16.0313 16.4251 15.2438 16.4251 14.2875V10.7438C16.4251 9.75942 15.6376 8.97192 14.6813 8.97192ZM15.1876 14.3157C15.1876 14.5969 14.9626 14.8219 14.6813 14.8219H11.1095C10.8282 14.8219 10.6032 14.5969 10.6032 14.3157V10.7438C10.6032 10.4625 10.8282 10.2375 11.1095 10.2375H14.6813C14.9626 10.2375 15.1876 10.4625 15.1876 10.7438V14.3157Z" fill="#5E5F60"/>
</svg>
