<svg width="15" height="15" viewBox="0 0 15 15" fill="none" xmlns="http://www.w3.org/2000/svg">
<path d="M14.8535 1.64652L13.3535 0.146518C13.3071 0.100069 13.252 0.0632209 13.1913 0.0380804C13.1307 0.01294 13.0656 0 13 0C12.9343 0 12.8693 0.01294 12.8086 0.0380804C12.748 0.0632209 12.6929 0.100069 12.6465 0.146518L11.5 1.29297L10.8535 0.646519C10.8071 0.60007 10.752 0.563222 10.6913 0.538081C10.6307 0.512941 10.5656 0.500001 10.5 0.500001C10.4343 0.500001 10.3693 0.512941 10.3086 0.538081C10.248 0.563222 10.1929 0.60007 10.1465 0.646519L0.646454 10.1465C0.570685 10.2271 0.520988 10.3287 0.503854 10.438L0.0038531 14.438C-0.00557992 14.5136 0.00236226 14.5903 0.027074 14.6623C0.0517858 14.7343 0.0926146 14.7997 0.146447 14.8536C0.200279 14.9074 0.265694 14.9482 0.337702 14.9729C0.40971 14.9976 0.48641 15.0056 0.561954 14.9961L4.56196 14.4961C4.67126 14.479 4.77285 14.4293 4.85346 14.3535L13.5 5.70708L13.5293 5.73638C13.7318 5.93892 13.8456 6.21361 13.8456 6.50003C13.8456 6.78645 13.7318 7.06114 13.5293 7.26368L11.6465 9.14653C11.2879 9.50572 11.0865 9.99251 11.0865 10.5C11.0865 11.0076 11.2879 11.4944 11.6465 11.8535C11.7408 11.9446 11.8671 11.995 11.9982 11.9939C12.1293 11.9927 12.2547 11.9402 12.3474 11.8474C12.4401 11.7547 12.4927 11.6293 12.4938 11.4982C12.495 11.3671 12.4446 11.2408 12.3535 11.1465C12.1823 10.9749 12.0861 10.7424 12.0861 10.5C12.0861 10.2576 12.1823 10.0251 12.3535 9.85354L14.2363 7.97073C14.4295 7.77762 14.5828 7.54835 14.6873 7.296C14.7919 7.04365 14.8457 6.77318 14.8457 6.50003C14.8457 6.22688 14.7919 5.95641 14.6873 5.70406C14.5828 5.45171 14.4295 5.22244 14.2363 5.02933L14.207 5.00003L14.3535 4.85353C14.3999 4.80712 14.4368 4.75201 14.4619 4.69136C14.4871 4.6307 14.5 4.56569 14.5 4.50003C14.5 4.43437 14.4871 4.36935 14.4619 4.3087C14.4368 4.24804 14.3999 4.19293 14.3535 4.14653L13.707 3.50002L14.8535 2.35352C14.8999 2.30711 14.9368 2.25201 14.9619 2.19135C14.9871 2.1307 15 2.06568 15 2.00002C15 1.93436 14.9871 1.86935 14.9619 1.80869C14.9368 1.74803 14.8999 1.69293 14.8535 1.64652ZM10.5 1.70707L13.2929 4.50003L12.25 5.54298L9.45702 2.75002L10.5 1.70707ZM4.49996 13.293L1.70701 10.5L8.74997 3.45707L11.5429 6.25003L4.49996 13.293ZM1.36931 11.5764L3.42356 13.6307L1.07591 13.9241L1.36931 11.5764ZM13 2.79297L12.207 2.00002L13 1.20707L13.7929 2.00002L13 2.79297Z" fill="#5E5F60"/>
</svg>
